<?xml version="1.0" standalone="no"?>
<!DOCTYPE svg PUBLIC "-//W3C//DTD SVG 20010904//EN"
 "http://www.w3.org/TR/2001/REC-SVG-20010904/DTD/svg10.dtd">
<svg version="1.0" xmlns="http://www.w3.org/2000/svg"
 width="1146.000000pt" height="242.000000pt" viewBox="0 0 1146.000000 242.000000"
 preserveAspectRatio="xMidYMid meet">

<g transform="translate(0.000000,242.000000) scale(0.100000,-0.100000)"
fill="#000000" stroke="none">
<path d="M3110 1791 l0 -49 -180 -173 c-99 -95 -178 -174 -176 -176 5 -5 44
29 147 130 72 69 169 134 181 121 5 -5 109 45 118 57 3 3 19 13 35 22 l30 15
-30 7 c-58 13 -65 16 -65 31 0 8 5 14 11 14 12 0 38 29 39 43 0 4 -25 7 -55 7
l-55 0 0 -49z m-5 -130 c-3 -6 -11 -11 -17 -11 -6 0 -6 6 2 15 14 17 26 13 15
-4z"/>
<path d="M2703 1813 c-10 -4 -13 -60 -13 -236 0 -210 1 -229 15 -210 13 18 15
58 13 236 -2 166 -6 213 -15 210z"/>
<path d="M2065 1690 c3 -5 8 -10 11 -10 2 0 4 5 4 10 0 6 -5 10 -11 10 -5 0
-7 -4 -4 -10z"/>
<path d="M1921 1663 c-26 -11 -100 -71 -94 -77 4 -3 30 -6 60 -6 l53 0 0 45
c0 25 -1 45 -2 44 -2 0 -9 -3 -17 -6z"/>
<path d="M2225 1400 l-49 -49 -100 -4 -101 -3 122 -2 c111 -2 151 6 123 23 -7
4 6 20 29 38 39 30 51 47 33 47 -4 0 -30 -22 -57 -50z"/>
<path d="M3866 1405 c-20 -14 -39 -25 -42 -25 -9 0 -54 -49 -54 -60 0 -5 -4
-10 -10 -10 -5 0 -10 -7 -10 -15 0 -7 -6 -18 -13 -22 -17 -10 -36 -123 -26
-149 4 -11 8 -33 8 -50 1 -17 8 -37 16 -44 8 -7 15 -17 15 -22 0 -5 7 -16 15
-24 8 -8 18 -20 22 -27 5 -7 26 -26 48 -42 37 -28 48 -30 137 -33 73 -3 104 0
130 12 44 22 98 70 98 89 0 8 7 18 16 21 12 4 14 14 9 36 -5 23 -3 30 7 28 10
-2 13 17 14 82 2 99 -3 130 -17 109 -7 -9 -7 -5 -3 14 5 21 3 27 -10 27 -9 0
-16 8 -16 21 0 11 -4 17 -10 14 -5 -3 -10 1 -10 10 0 9 -4 14 -9 11 -5 -3 -23
8 -40 25 -43 40 -70 49 -155 49 -62 0 -79 -4 -110 -25z m174 -29 c0 -28 5 -36
33 -47 71 -30 97 -77 97 -179 0 -90 -19 -134 -75 -166 -44 -26 -55 -40 -55
-68 0 -23 -4 -26 -32 -26 -54 0 -79 11 -76 30 3 20 -37 60 -59 60 -8 0 -11 5
-8 10 3 6 -1 10 -10 10 -9 0 -13 5 -10 10 3 6 -1 10 -9 10 -9 0 -16 7 -16 15
0 8 -4 15 -10 15 -5 0 -10 9 -10 21 0 11 -7 28 -16 37 -18 17 -14 94 5 100 6
2 11 13 11 24 0 25 56 80 99 98 29 12 44 40 21 40 -5 0 -10 4 -10 8 0 15 44
31 88 31 41 1 42 0 42 -33z"/>
<path d="M4430 1415 c0 -8 5 -15 10 -15 6 0 10 7 10 15 0 8 -4 15 -10 15 -5 0
-10 -7 -10 -15z"/>
<path d="M4810 1420 c0 -5 5 -10 10 -10 6 0 10 5 10 10 0 6 -4 10 -10 10 -5 0
-10 -4 -10 -10z"/>
<path d="M6480 1420 c0 -5 4 -10 9 -10 6 0 13 5 16 10 3 6 -1 10 -9 10 -9 0
-16 -4 -16 -10z"/>
<path d="M7750 1415 c-7 -8 -9 -15 -6 -15 4 0 14 7 22 15 9 8 11 15 6 15 -5 0
-15 -7 -22 -15z"/>
<path d="M8604 1200 c0 -129 2 -182 3 -117 2 64 2 170 0 235 -1 64 -3 11 -3
-118z"/>
<path d="M9080 1423 c0 -5 9 -19 20 -33 11 -14 20 -31 20 -37 0 -7 5 -13 10
-13 6 0 10 -9 10 -20 0 -11 5 -20 10 -20 6 0 10 -4 10 -9 0 -6 11 -22 25 -37
14 -15 25 -35 25 -45 0 -11 5 -19 10 -19 6 0 10 -7 10 -15 0 -8 5 -15 10 -15
6 0 10 -6 10 -14 0 -8 7 -16 15 -19 11 -5 15 -32 17 -129 3 -133 6 -138 64
-124 19 5 24 13 24 36 0 17 -4 30 -10 30 -6 0 -10 38 -10 94 0 65 -4 96 -12
98 -7 3 -12 17 -13 33 0 17 -8 32 -20 39 -27 16 -45 33 -45 44 0 6 -7 13 -16
16 -9 4 -14 13 -10 21 3 8 -6 27 -19 41 -14 15 -25 33 -25 40 0 8 -4 14 -10
14 -5 0 -10 9 -10 21 0 11 -4 17 -10 14 -5 -3 -10 -1 -10 4 0 6 -16 11 -35 11
-19 0 -35 -3 -35 -7z"/>
<path d="M9500 1419 c0 -7 -11 -22 -25 -35 -14 -13 -25 -28 -25 -34 0 -5 -3
-10 -8 -10 -22 0 -44 -112 -28 -139 11 -18 46 15 46 44 0 13 10 27 25 35 16 8
25 22 25 37 0 13 4 23 8 23 5 0 15 12 23 28 8 15 23 35 34 44 19 17 18 17 -27
18 -29 0 -48 -4 -48 -11z"/>
<path d="M7715 1361 c-8 -17 -12 -31 -8 -31 9 0 35 52 29 58 -3 2 -12 -10 -21
-27z"/>
<path d="M4430 1239 c0 -149 10 -207 43 -236 18 -17 18 -16 -2 20 -19 34 -21
53 -21 197 0 100 -4 160 -10 160 -6 0 -10 -54 -10 -141z"/>
<path d="M6488 1353 c7 -3 16 -2 19 1 4 3 -2 6 -13 5 -11 0 -14 -3 -6 -6z"/>
<path d="M4808 1198 c-2 -84 -8 -162 -13 -173 -5 -13 -5 -17 2 -10 18 18 33
125 33 232 0 160 -18 121 -22 -49z"/>
<path d="M4998 1343 c12 -2 32 -2 45 0 12 2 2 4 -23 4 -25 0 -35 -2 -22 -4z"/>
<path d="M6128 1343 c17 -2 47 -2 65 0 17 2 3 4 -33 4 -36 0 -50 -2 -32 -4z"/>
<path d="M6368 1343 c17 -2 47 -2 65 0 17 2 3 4 -33 4 -36 0 -50 -2 -32 -4z"/>
<path d="M2628 1333 c7 -3 16 -2 19 1 4 3 -2 6 -13 5 -11 0 -14 -3 -6 -6z"/>
<path d="M5402 1268 c-1 -25 -5 -55 -8 -65 -5 -14 -4 -15 5 -7 8 7 11 31 8 65
l-3 54 -2 -47z"/>
<path d="M7672 1290 c-17 -27 -15 -35 4 -16 8 9 14 21 12 26 -2 6 -9 1 -16
-10z"/>
<path d="M2585 1053 c-49 -136 -91 -256 -93 -265 -4 -23 24 -24 33 0 62 157
137 374 137 397 -1 16 3 34 7 40 7 10 15 75 9 75 -2 0 -43 -111 -93 -247z"/>
<path d="M7410 1290 c0 -5 5 -10 11 -10 5 0 7 5 4 10 -3 6 -8 10 -11 10 -2 0
-4 -4 -4 -10z"/>
<path d="M6807 1250 c3 -11 7 -20 9 -20 2 0 4 9 4 20 0 11 -4 20 -9 20 -5 0
-7 -9 -4 -20z"/>
<path d="M7310 1218 c0 -41 0 -42 15 -20 12 16 13 26 5 42 -16 29 -20 25 -20
-22z"/>
<path d="M7635 1230 c-3 -5 -1 -10 4 -10 6 0 11 5 11 10 0 6 -2 10 -4 10 -3 0
-8 -4 -11 -10z"/>
<path d="M7772 1058 l-2 -177 -32 -4 -33 -4 33 -1 c19 -1 35 3 38 11 2 7 3 89
1 182 l-3 170 -2 -177z"/>
<path d="M7475 1190 c3 -5 8 -10 11 -10 2 0 4 5 4 10 0 6 -5 10 -11 10 -5 0
-7 -4 -4 -10z"/>
<path d="M5357 1145 c-15 -19 -23 -35 -18 -35 11 0 55 59 49 65 -2 2 -16 -11
-31 -30z"/>
<path d="M7040 1176 c0 -2 7 -19 15 -37 l14 -34 1 31 c0 19 -6 34 -15 38 -8 3
-15 4 -15 2z"/>
<path d="M7551 1106 c-28 -41 -51 -80 -50 -88 0 -7 5 -3 11 10 6 12 15 22 20
22 4 0 8 7 8 15 0 8 5 15 10 15 6 0 10 6 10 14 0 8 3 16 8 18 8 4 45 68 39 68
-3 0 -28 -33 -56 -74z"/>
<path d="M6355 1120 l-90 -6 87 -2 c49 -1 89 2 93 8 3 6 5 9 3 8 -2 -1 -43 -5
-93 -8z"/>
<path d="M6806 1115 c-3 -8 -1 -15 4 -15 6 0 10 7 10 15 0 8 -2 15 -4 15 -2 0
-6 -7 -10 -15z"/>
<path d="M6150 1110 c0 -5 14 -7 33 -3 45 8 47 13 4 13 -20 0 -37 -4 -37 -10z"/>
<path d="M5275 1090 c-3 -5 1 -10 9 -10 9 0 16 5 16 10 0 6 -4 10 -9 10 -6 0
-13 -4 -16 -10z"/>
<path d="M7076 1078 c3 -12 13 -35 20 -52 11 -26 13 -28 14 -9 0 12 -4 25 -10
28 -5 3 -10 17 -10 31 0 13 -5 24 -11 24 -6 0 -8 -9 -3 -22z"/>
<path d="M5040 1072 c0 -4 16 -6 35 -4 19 2 35 6 35 8 0 2 -16 4 -35 4 -19 0
-35 -4 -35 -8z"/>
<path d="M5128 1073 c6 -2 18 -2 25 0 6 3 1 5 -13 5 -14 0 -19 -2 -12 -5z"/>
<path d="M6150 980 l0 -100 -27 -1 c-16 0 -22 -3 -15 -6 7 -3 23 -2 35 1 21 5
23 11 25 106 3 67 0 100 -7 100 -7 0 -11 -35 -11 -100z"/>
<path d="M6778 1043 c-9 -24 -12 -43 -7 -43 5 0 9 6 9 14 0 8 5 16 11 18 6 2
9 15 7 28 -3 22 -5 20 -20 -17z"/>
<path d="M2694 905 c0 -71 1 -99 3 -62 2 37 2 96 0 130 -2 34 -3 4 -3 -68z"/>
<path d="M4761 959 c-13 -17 -46 -42 -74 -56 -29 -14 -41 -22 -27 -19 14 3 30
6 36 6 15 0 94 76 94 90 0 16 -5 12 -29 -21z"/>
<path d="M8890 920 l0 -39 -67 -4 -68 -4 75 1 75 1 -3 27 c-2 14 2 29 8 33 11
7 4 25 -11 25 -5 0 -9 -18 -9 -40z"/>
<path d="M4531 919 c-1 -40 10 -49 60 -49 42 0 35 16 -10 24 -34 5 -40 10 -44
34 -3 22 -4 21 -6 -9z"/>
<path d="M7145 891 c3 -6 -12 -12 -32 -14 -34 -3 -33 -4 11 -5 42 -2 47 0 36
13 -14 17 -25 20 -15 6z"/>
<path d="M7275 880 l-40 -7 37 -2 c20 0 40 4 43 9 3 6 5 9 3 9 -2 -1 -21 -5
-43 -9z"/>
<path d="M4993 873 c9 -2 23 -2 30 0 6 3 -1 5 -18 5 -16 0 -22 -2 -12 -5z"/>
<path d="M5348 873 c12 -2 32 -2 45 0 12 2 2 4 -23 4 -25 0 -35 -2 -22 -4z"/>
<path d="M6648 873 c12 -2 32 -2 45 0 12 2 2 4 -23 4 -25 0 -35 -2 -22 -4z"/>
<path d="M8103 873 c9 -2 23 -2 30 0 6 3 -1 5 -18 5 -16 0 -22 -2 -12 -5z"/>
<path d="M8573 873 c15 -2 37 -2 50 0 12 2 0 4 -28 4 -27 0 -38 -2 -22 -4z"/>
<path d="M2692 735 c0 -16 2 -22 5 -12 2 9 2 23 0 30 -3 6 -5 -1 -5 -18z"/>
<path d="M2691 484 c0 -11 3 -14 6 -6 3 7 2 16 -1 19 -3 4 -6 -2 -5 -13z"/>
</g>
</svg>
