<?xml version="1.0" standalone="no"?>
<!DOCTYPE svg PUBLIC "-//W3C//DTD SVG 20010904//EN"
 "http://www.w3.org/TR/2001/REC-SVG-20010904/DTD/svg10.dtd">
<svg version="1.0" xmlns="http://www.w3.org/2000/svg"
 width="1146.000000pt" height="242.000000pt" viewBox="0 0 1146.000000 242.000000"
 preserveAspectRatio="xMidYMid meet">

<g transform="translate(0.000000,242.000000) scale(0.100000,-0.100000)"
fill="#000000" stroke="none">
<path d="M3143 1842 c-12 -2 -27 -10 -35 -19 -11 -13 -10 -18 4 -26 15 -10 15
-12 0 -24 -13 -11 -9 -10 13 1 17 8 40 25 53 39 21 22 22 25 5 29 -10 2 -28 2
-40 0z"/>
<path d="M3159 1724 c-18 -20 -29 -35 -24 -32 70 29 105 50 100 58 -12 20 -42
9 -76 -26z"/>
<path d="M1840 1629 l-45 -40 45 3 c43 3 45 4 51 41 3 20 3 37 0 37 -3 -1 -26
-19 -51 -41z"/>
<path d="M3879 1426 c-123 -44 -189 -136 -189 -265 0 -74 22 -139 66 -189 36
-42 105 -82 142 -82 18 0 22 6 22 35 0 30 -5 37 -39 55 -133 67 -134 292 -1
360 37 19 40 24 40 60 0 22 -1 40 -2 40 -2 -1 -19 -7 -39 -14z"/>
<path d="M9421 1350 l-62 -90 21 -35 c12 -19 25 -35 28 -34 6 0 152 220 160
241 2 4 -16 8 -40 8 l-45 0 -62 -90z"/>
<path d="M4010 1396 c0 -29 6 -37 50 -64 62 -39 90 -92 90 -172 0 -89 -50
-168 -122 -193 -13 -5 -18 -17 -18 -42 0 -30 3 -35 23 -35 52 1 173 102 181
153 1 6 5 18 9 24 15 25 19 112 7 162 -17 73 -63 137 -124 171 -28 17 -61 30
-73 30 -19 0 -23 -5 -23 -34z m180 -366 c-12 -22 -21 -26 -17 -7 2 10 17 26
25 27 1 0 -2 -9 -8 -20z"/>
<path d="M9088 1378 c16 -29 61 -103 100 -165 l72 -112 0 -111 0 -110 50 0 50
0 0 110 0 109 -107 166 -108 165 -43 0 -43 0 29 -52z"/>
</g>
</svg>
