<?xml version="1.0" encoding="UTF-8"?>
<svg version="1.1" xmlns="http://www.w3.org/2000/svg" width="225" height="225">
<path d="M0 0 C74.25 0 148.5 0 225 0 C225 74.25 225 148.5 225 225 C150.75 225 76.5 225 0 225 C0 150.75 0 76.5 0 0 Z " fill="#FEFEFE" transform="translate(0,0)"/>
<path d="M0 0 C4.95 0 9.9 0 15 0 C19.95 8.58 24.9 17.16 30 26 C34.76942426 26.06893707 39.53711478 26.12864755 44.30664062 26.16479492 C45.92844506 26.17986565 47.55020884 26.20032593 49.171875 26.22631836 C51.50531046 26.26277829 53.83820631 26.27974314 56.171875 26.29296875 C56.89493835 26.30845261 57.61800171 26.32393646 58.36297607 26.33988953 C61.3635811 26.34088881 63.72433189 26.1196923 66.48925781 24.91918945 C68.7216207 22.49035781 68.7216207 22.49035781 68 16 C53.81 15.67 39.62 15.34 25 15 C26.98 12.69 28.96 10.38 31 8 C31.5787085 7.20489014 32.15741699 6.40978027 32.75366211 5.59057617 C35.7150528 1.88439367 37.88612249 0.20972589 42.61767578 -0.68115234 C46.19062121 -0.94195639 49.74003166 -0.898972 53.31811523 -0.76831055 C55.56174052 -0.68752735 57.79997376 -0.66583461 60.04492188 -0.65429688 C75.07055453 -0.41241317 75.07055453 -0.41241317 81.375 5.0625 C84.55934306 8.85921673 84.40138643 12.1649434 84.33203125 16.98828125 C83.42634052 25.20342894 78.79023376 30.79492244 72.8671875 36.2109375 C63.51457311 42.04676501 54.62883212 42.53080343 43.8125 42.25 C42.46552172 42.22987889 41.118514 42.21163815 39.77148438 42.1953125 C36.51355084 42.14860378 33.25717345 42.08311562 30 42 C29.79503906 42.75925781 29.59007812 43.51851562 29.37890625 44.30078125 C29.10949219 45.29464844 28.84007812 46.28851563 28.5625 47.3125 C28.29566406 48.29863281 28.02882812 49.28476563 27.75390625 50.30078125 C27.21920575 52.21517526 26.62855462 54.11433615 26 56 C21.38 56 16.76 56 12 56 C12.66713171 51.99720973 13.2648849 48.84859116 14.5625 45.125 C14.96662109 43.95324219 14.96662109 43.95324219 15.37890625 42.7578125 C15.58386719 42.17773438 15.78882813 41.59765625 16 41 C11.56342938 44.78957074 7.15976972 48.61012449 2.796875 52.484375 C-1.42190009 56.04282007 -4.38756832 56.25366314 -9.6875 56.125 C-10.38939453 56.11597656 -11.09128906 56.10695312 -11.81445312 56.09765625 C-13.54311525 56.07413704 -15.27160145 56.03826713 -17 56 C-9.23774941 48.15428435 -1.03418859 40.89179707 7.58984375 34.0078125 C9.86458234 32.11281147 11.94382399 30.12773666 14 28 C12.36140729 21.82935023 9.07825938 16.64641883 5.875 11.1875 C4.76643689 9.28620011 3.65956714 7.38391152 2.5546875 5.48046875 C2.06468262 4.64410889 1.57467773 3.80774902 1.06982422 2.94604492 C0 1 0 1 0 0 Z " fill="#7F599F" transform="translate(99,68)"/>
<path d="M0 0 C4.95 0 9.9 0 15 0 C17.18833162 3.62171434 19.36531427 7.24650916 21.51855469 10.88867188 C22.25398232 12.125852 22.99517503 13.35962392 23.7421875 14.58984375 C24.81481858 16.35854393 25.86614198 18.138452 26.9140625 19.921875 C27.8723999 21.52434082 27.8723999 21.52434082 28.85009766 23.15917969 C30 26 30 26 29.33129883 28.23852539 C23.87074153 35.46352464 15.6044829 41.29496218 8.53515625 46.8828125 C6.00458173 48.90114779 6.00458173 48.90114779 4.05859375 51.1171875 C0.81996572 54.60063622 -0.97957365 55.88546235 -5.828125 56.4296875 C-9.57236624 56.50677482 -13.26903051 56.30605609 -17 56 C-9.23774941 48.15428435 -1.03418859 40.89179707 7.58984375 34.0078125 C9.86458234 32.11281147 11.94382399 30.12773666 14 28 C12.36140729 21.82935023 9.07825938 16.64641883 5.875 11.1875 C4.76643689 9.28620011 3.65956714 7.38391152 2.5546875 5.48046875 C2.06468262 4.64410889 1.57467773 3.80774902 1.06982422 2.94604492 C0 1 0 1 0 0 Z " fill="#EF6923" transform="translate(99,68)"/>
<path d="M0 0 C12.12226277 -1.34507299 12.12226277 -1.34507299 15.9140625 1.37109375 C17.54778054 3.82167081 18.74287781 6.33268634 20 9 C21.30106967 11.3694663 22.63476531 13.71917324 23.96777344 16.07080078 C26.01423806 19.69436393 28.00844172 23.34605198 30 27 C26.36915618 30.67103766 22.66447863 34.24310527 18.875 37.75 C18.31312988 38.27005615 17.75125977 38.7901123 17.17236328 39.32592773 C12.66946974 43.45812149 8.02293169 47.3511657 3.2421875 51.16015625 C1.01220487 52.8464831 1.01220487 52.8464831 -0.32421875 54.734375 C-3.11575153 56.84266549 -6.34147574 56.30934402 -9.6875 56.1875 C-10.38939453 56.17396484 -11.09128906 56.16042969 -11.81445312 56.14648438 C-13.54329829 56.11120182 -15.27174765 56.05739583 -17 56 C-13.15499335 52.10430588 -9.2029937 48.34425982 -5.1875 44.625 C-4.5702002 44.05281738 -3.95290039 43.48063477 -3.31689453 42.89111328 C8.01044019 32.42024283 8.01044019 32.42024283 14 28 C12.66535624 24.45690452 11.09155098 21.25409453 9.1796875 17.98828125 C8.64472656 17.06595703 8.10976562 16.14363281 7.55859375 15.19335938 C6.42910391 13.26064764 5.29888645 11.32836095 4.16796875 9.39648438 C3.63558594 8.47802734 3.10320312 7.55957031 2.5546875 6.61328125 C2.06468262 5.77579346 1.57467773 4.93830566 1.06982422 4.07543945 C0 2 0 2 0 0 Z " fill="#F48372" transform="translate(78,68)"/>
<path d="M0 0 C1.99609375 0.87890625 1.99609375 0.87890625 3.04296875 2.9453125 C3.275 3.76902344 3.50703125 4.59273437 3.74609375 5.44140625 C3.9884375 6.26769531 4.23078125 7.09398437 4.48046875 7.9453125 C4.650625 8.58339844 4.82078125 9.22148437 4.99609375 9.87890625 C5.32609375 9.54890625 5.65609375 9.21890625 5.99609375 8.87890625 C8.52205634 8.64237102 11.02716582 8.45716933 13.55859375 8.31640625 C14.26951172 8.27322266 14.98042969 8.23003906 15.71289062 8.18554688 C17.47371287 8.07918848 19.23487695 7.97851779 20.99609375 7.87890625 C21.32609375 6.88890625 21.65609375 5.89890625 21.99609375 4.87890625 C17.04609375 4.87890625 12.09609375 4.87890625 6.99609375 4.87890625 C10.99609375 -0.12109375 10.99609375 -0.12109375 14.37890625 -0.6796875 C15.61382812 -0.63972656 16.84875 -0.59976563 18.12109375 -0.55859375 C19.98121094 -0.52572266 19.98121094 -0.52572266 21.87890625 -0.4921875 C24.99609375 -0.12109375 24.99609375 -0.12109375 26.99609375 1.87890625 C27.12109375 5.50390625 27.12109375 5.50390625 26.99609375 8.87890625 C27.44339844 8.31300781 27.89070313 7.74710938 28.3515625 7.1640625 C29.25841797 6.06384766 29.25841797 6.06384766 30.18359375 4.94140625 C30.77527344 4.21050781 31.36695313 3.47960937 31.9765625 2.7265625 C34.32114578 0.58151822 35.88000873 0.21796213 38.99609375 -0.12109375 C41.84813178 6.10153467 43.99609375 11.93223362 43.99609375 18.87890625 C35.74609375 18.87890625 27.49609375 18.87890625 18.99609375 18.87890625 C20.31609375 16.89890625 21.63609375 14.91890625 22.99609375 12.87890625 C22.00609375 13.20890625 21.01609375 13.53890625 19.99609375 13.87890625 C17.16207636 14.06840221 14.33039625 14.19538066 11.4921875 14.3046875 C8.8333768 14.61323229 8.8333768 14.61323229 7.65625 16.921875 C7.43839844 17.56769531 7.22054687 18.21351563 6.99609375 18.87890625 C-1.67057292 18.87890625 -10.33723958 18.87890625 -19.00390625 18.87890625 C-15.54155235 13.99609947 -11.92679005 9.57039491 -7.6015625 5.42578125 C-5.85020857 3.77271778 -5.85020857 3.77271778 -3.81640625 1.37890625 C-2.00390625 -0.12109375 -2.00390625 -0.12109375 0 0 Z " fill="#805AA0" transform="translate(118.00390625,138.12109375)"/>
<path d="M0 0 C4.95 0 9.9 0 15 0 C11.37 11.55 7.74 23.1 4 35 C-0.95 35 -5.9 35 -11 35 C-7.37 23.45 -3.74 11.9 0 0 Z " fill="#532A75" transform="translate(52,89)"/>
<path d="M0 0 C1.12350861 0.00636726 1.12350861 0.00636726 2.26971436 0.01286316 C4.65413875 0.02961129 7.03770753 0.06725478 9.421875 0.10546875 C11.04165443 0.12052066 12.66144715 0.13420818 14.28125 0.14648438 C18.24511966 0.17950195 22.20835243 0.23125629 26.171875 0.29296875 C23.18658581 4.60505313 22.63136574 5.2010706 17.171875 6.29296875 C15.851875 10.25296875 14.531875 14.21296875 13.171875 18.29296875 C11.521875 18.62296875 9.871875 18.95296875 8.171875 19.29296875 C9.16231205 14.4566857 10.12886346 9.81678002 12.171875 5.29296875 C11.388125 5.29296875 10.604375 5.29296875 9.796875 5.29296875 C8.25520833 5.29296875 6.71354167 5.29296875 5.171875 5.29296875 C4.181875 5.78796875 4.181875 5.78796875 3.171875 6.29296875 C4.161875 6.95296875 5.151875 7.61296875 6.171875 8.29296875 C5.80879314 14.58638769 5.80879314 14.58638769 3.171875 17.51171875 C-0.88912339 19.92293654 -4.01990136 19.74437498 -8.640625 19.54296875 C-9.82301758 19.51589844 -9.82301758 19.51589844 -11.02929688 19.48828125 C-12.96276761 19.44140923 -14.89560785 19.36967285 -16.828125 19.29296875 C-15.28125 16.8125 -15.28125 16.8125 -12.828125 14.29296875 C-9.375 13.8046875 -9.375 13.8046875 -5.578125 13.98046875 C-4.31484375 14.02558594 -3.0515625 14.07070312 -1.75 14.1171875 C-0.78578125 14.17519531 0.1784375 14.23320312 1.171875 14.29296875 C1.171875 13.30296875 1.171875 12.31296875 1.171875 11.29296875 C0.32882813 11.31617188 -0.51421875 11.339375 -1.3828125 11.36328125 C-3.02636719 11.39035156 -3.02636719 11.39035156 -4.703125 11.41796875 C-5.79367188 11.44117188 -6.88421875 11.464375 -8.0078125 11.48828125 C-10.828125 11.29296875 -10.828125 11.29296875 -12.828125 9.29296875 C-12.69023637 6.05258598 -12.51841772 4.03073794 -10.26269531 1.61987305 C-6.87836506 -0.22467518 -3.75190305 -0.08034417 0 0 Z " fill="#542A76" transform="translate(84.828125,137.70703125)"/>
<path d="M0 0 C2.11328125 0.40625 2.11328125 0.40625 4 1 C4.56247352 2.86886364 5.09910978 4.7455141 5.625 6.625 C5.92664063 7.66914063 6.22828125 8.71328125 6.5390625 9.7890625 C7.06801138 13.47377418 6.41895392 15.60063558 5 19 C-2.33333333 19 -9.66666667 19 -17 19 C-13.5376461 14.11719322 -9.9228838 9.69148866 -5.59765625 5.546875 C-3.84630232 3.89381153 -3.84630232 3.89381153 -1.8125 1.5 C-1.214375 1.005 -0.61625 0.51 0 0 Z " fill="#532875" transform="translate(116,138)"/>
<path d="M0 0 C2.48660455 0.3878678 3.72345219 0.70962479 5.484375 2.55859375 C5.90203125 3.17863281 6.3196875 3.79867187 6.75 4.4375 C7.17796875 5.05496094 7.6059375 5.67242187 8.046875 6.30859375 C9 8 9 8 9 10 C9.66 10 10.32 10 11 10 C11.66 6.7 12.32 3.4 13 0 C14.65 0 16.3 0 18 0 C16.41039668 6.23440168 14.72399099 12.16287645 12 18 C8 18 8 18 6.515625 16.5390625 C6.09796875 15.90742188 5.6803125 15.27578125 5.25 14.625 C4.82203125 13.99851563 4.3940625 13.37203125 3.953125 12.7265625 C3 11 3 11 3 9 C2.34 9 1.68 9 1 9 C0.34 11.97 -0.32 14.94 -1 18 C-2.65 18.33 -4.3 18.66 -6 19 C-4.70024676 12.28460827 -2.70071112 6.27980887 0 0 Z " fill="#522774" transform="translate(55,138)"/>
<path d="M0 0 C1.23492187 0.03996094 2.46984375 0.07992187 3.7421875 0.12109375 C5.60230469 0.15396484 5.60230469 0.15396484 7.5 0.1875 C10.6171875 0.55859375 10.6171875 0.55859375 12.6171875 2.55859375 C13.0546875 5.37109375 13.0546875 5.37109375 12.6171875 8.55859375 C10.4445525 11.13145099 8.63724912 13.04856294 5.6171875 14.55859375 C2.79505532 14.75457515 -0.02473747 14.87650931 -2.8515625 14.984375 C-5.54253772 15.28733406 -5.54253772 15.28733406 -6.7265625 17.6015625 C-7.05140625 18.57029297 -7.05140625 18.57029297 -7.3828125 19.55859375 C-8.7028125 19.55859375 -10.0228125 19.55859375 -11.3828125 19.55859375 C-10.6328125 11.80859375 -10.6328125 11.80859375 -8.3828125 9.55859375 C-5.81364593 9.25260312 -3.33522866 9.04772288 -0.7578125 8.93359375 C-0.05140625 8.89492187 0.655 8.85625 1.3828125 8.81640625 C3.12717274 8.72211651 4.87214441 8.63926484 6.6171875 8.55859375 C6.9471875 7.56859375 7.2771875 6.57859375 7.6171875 5.55859375 C2.6671875 5.55859375 -2.2828125 5.55859375 -7.3828125 5.55859375 C-3.3828125 0.55859375 -3.3828125 0.55859375 0 0 Z " fill="#7F59A0" transform="translate(132.3828125,137.44140625)"/>
<path d="M0 0 C4.95 0 9.9 0 15 0 C13.35 4.95 11.7 9.9 10 15 C5.38 15 0.76 15 -4 15 C-2.89782584 9.80403612 -1.68917657 5.06752972 0 0 Z " fill="#583179" transform="translate(59,68)"/>
<path d="M0 0 C2.8125 -0.3125 2.8125 -0.3125 6 0 C7.88599343 2.38892501 9 3.91851558 9 7 C9.50789062 6.4946875 10.01578125 5.989375 10.5390625 5.46875 C16.23156089 0.09605489 16.23156089 0.09605489 20.5 -0.4375 C21.325 -0.293125 22.15 -0.14875 23 0 C20.15896774 3.49588012 17.43135226 6.78812825 13.8125 9.5 C10.40501488 12.52887566 9.49681845 14.75901438 8 19 C6.35 19 4.7 19 3 19 C3.2475 17.72125 3.495 16.4425 3.75 15.125 C4.43453233 9.3840555 2.47606308 5.09027561 0 0 Z " fill="#7E579F" transform="translate(160,138)"/>
<path d="M0 0 C1.65 0 3.3 0 5 0 C3.47214176 6.59904729 1.92382423 12.87389209 -1 19 C-2.65 19 -4.3 19 -6 19 C-4.02 12.73 -2.04 6.46 0 0 Z " fill="#552A77" transform="translate(47,138)"/>
<path d="M0 0 C0.309375 0.639375 0.61875 1.27875 0.9375 1.9375 C1.8345163 3.93610821 1.8345163 3.93610821 3 5 C5.01594582 5.23427778 7.038474 5.41336124 9.0625 5.5625 C10.71958984 5.68818359 10.71958984 5.68818359 12.41015625 5.81640625 C13.26480469 5.87699219 14.11945313 5.93757812 15 6 C15 6.99 15 7.98 15 9 C14.02417969 9.04898438 13.04835938 9.09796875 12.04296875 9.1484375 C10.77066406 9.22320312 9.49835938 9.29796875 8.1875 9.375 C6.29064453 9.47941406 6.29064453 9.47941406 4.35546875 9.5859375 C0.87244766 9.76102939 0.87244766 9.76102939 -2 12 C-3.15957207 8.52128379 -2.77456651 7.65780355 -1.5625 4.3125 C-1.13130859 3.10013672 -1.13130859 3.10013672 -0.69140625 1.86328125 C-0.46324219 1.24839844 -0.23507813 0.63351563 0 0 Z " fill="#EDE9F0" transform="translate(71,143)"/>
<path d="M0 0 C0.66 0 1.32 0 2 0 C1.45018084 6.04801071 0.09570426 11.30601106 -2 17 C-3.1171875 15.421875 -3.1171875 15.421875 -4 13 C-3.3203125 9.765625 -3.3203125 9.765625 -2.125 6.25 C-1.73570313 5.07953125 -1.34640625 3.9090625 -0.9453125 2.703125 C-0.63335937 1.81109375 -0.32140625 0.9190625 0 0 Z " fill="#E4E0E9" transform="translate(51,140)"/>
<path d="M0 0 C0.33 1.98 0.66 3.96 1 6 C-0.0725 6.103125 -1.145 6.20625 -2.25 6.3125 C-5.85820872 6.97400493 -7.36395023 7.57483421 -10 10 C-8.50006099 6.10015857 -4.53875449 0 0 0 Z " fill="#F0EDF4" transform="translate(154,146)"/>
<path d="M0 0 C0.33 1.98 0.66 3.96 1 6 C-0.093125 6.12375 -1.18625 6.2475 -2.3125 6.375 C-6.07381802 6.75464801 -6.07381802 6.75464801 -9 9 C-7.45665977 5.21180126 -4.44676575 0 0 0 Z " fill="#EBE7EF" transform="translate(116,146)"/>
<path d="M0 0 C4.62 0 9.24 0 14 0 C14 0.33 14 0.66 14 1 C13.18015625 1.04898438 12.3603125 1.09796875 11.515625 1.1484375 C10.43796875 1.22320312 9.3603125 1.29796875 8.25 1.375 C6.64898437 1.47941406 6.64898437 1.47941406 5.015625 1.5859375 C2.19793568 1.9728223 0.4169634 2.55686166 -2 4 C-1.34 2.68 -0.68 1.36 0 0 Z " fill="#4D2071" transform="translate(72,152)"/>
<path d="M0 0 C1.25541557 3.76624671 0.37061958 5.37188934 -1 9 C-2.1875 7.3125 -2.1875 7.3125 -3 5 C-1.625 2.25 -1.625 2.25 0 0 Z " fill="#EFECF2" transform="translate(50,148)"/>
</svg>
