<?xml version="1.0" standalone="no"?>
<!DOCTYPE svg PUBLIC "-//W3C//DTD SVG 20010904//EN"
 "http://www.w3.org/TR/2001/REC-SVG-20010904/DTD/svg10.dtd">
<svg version="1.0" xmlns="http://www.w3.org/2000/svg"
 width="566.000000pt" height="656.000000pt" viewBox="0 0 566.000000 656.000000"
 preserveAspectRatio="xMidYMid meet">

<g transform="translate(0.000000,656.000000) scale(0.100000,-0.100000)"
fill="#000000" stroke="none">
<path d="M0 3280 l0 -3280 2830 0 2830 0 0 3280 0 3280 -2830 0 -2830 0 0
-3280z m3235 1925 c149 -18 154 -19 295 -57 280 -76 574 -242 804 -456 62 -58
163 -171 198 -222 225 -323 334 -607 371 -965 17 -171 7 -440 -22 -570 -64
-287 -158 -500 -316 -717 -125 -172 -223 -276 -330 -353 -44 -32 -84 -63 -90
-70 -5 -6 -23 -19 -40 -28 -16 -9 -46 -30 -65 -48 -30 -27 -143 -99 -155 -99
-3 0 -28 -11 -57 -24 -71 -32 -187 -76 -203 -76 -7 0 -16 12 -19 26 -8 30 -50
98 -84 136 -28 31 -25 59 10 98 75 81 87 127 46 177 -51 62 -205 216 -235 234
-25 16 -31 24 -24 37 4 9 11 55 15 101 4 47 11 90 17 97 5 7 49 17 97 24 186
25 316 66 363 112 24 24 29 38 29 76 0 25 -5 60 -12 79 -11 30 -10 35 15 61
28 30 35 70 15 90 -9 9 -8 15 4 24 28 23 36 50 30 114 l-5 64 46 19 c59 25 82
59 74 108 -4 21 -16 49 -27 63 -39 49 -94 136 -128 202 -33 66 -33 67 -18 113
23 65 20 127 -8 198 -31 77 -56 175 -56 216 0 16 7 52 16 77 18 53 26 181 13
190 -5 3 -9 27 -9 55 0 45 -4 53 -48 99 -27 28 -57 50 -68 50 -11 0 -30 9 -42
20 -12 11 -28 20 -37 20 -8 0 -15 4 -15 9 0 5 -10 13 -22 16 -13 4 -53 20 -90
36 -36 16 -81 31 -100 33 -18 3 -59 18 -92 35 -70 37 -108 39 -168 7 -45 -24
-46 -24 -73 -6 -27 18 -28 18 -47 0 -11 -10 -19 -21 -18 -25 4 -17 -23 -20
-113 -14 -89 6 -196 -6 -213 -24 -4 -4 -22 -7 -40 -7 -18 0 -49 -9 -71 -19
-21 -11 -58 -28 -83 -39 -27 -12 -78 -53 -125 -99 -44 -44 -92 -88 -107 -98
-16 -9 -28 -24 -28 -31 0 -8 -4 -14 -9 -14 -5 0 -12 -11 -15 -25 -3 -13 -27
-44 -52 -68 -41 -40 -94 -125 -94 -152 0 -6 -9 -28 -20 -50 -21 -41 -27 -114
-11 -130 5 -6 11 -39 14 -75 6 -89 34 -256 52 -309 27 -82 193 -357 236 -391
19 -15 59 -149 73 -243 22 -146 21 -166 -4 -160 -22 6 -22 4 -41 -127 -7 -49
-22 -103 -35 -127 -12 -23 -20 -51 -17 -62 3 -10 -3 -24 -12 -32 -10 -8 -43
-37 -74 -66 -81 -76 -95 -87 -216 -178 -60 -46 -123 -98 -139 -115 -40 -44
-63 -54 -70 -32 -3 9 -33 36 -65 60 -64 47 -159 154 -200 227 -56 98 -133 215
-142 215 -5 0 -9 7 -9 14 0 8 -15 46 -34 83 -36 74 -73 186 -106 328 -11 50
-25 104 -30 120 -5 17 -11 55 -14 85 -3 30 -10 109 -17 175 -23 247 13 487
112 754 99 263 203 437 371 616 21 22 38 46 38 53 0 6 6 12 13 12 6 0 35 22
62 48 173 164 406 308 625 386 41 14 84 30 95 35 29 14 179 48 260 61 163 24
195 28 295 29 58 0 159 -6 225 -14z m-1002 -962 c-7 -2 -19 -2 -25 0 -7 3 -2
5 12 5 14 0 19 -2 13 -5z"/>
</g>
</svg>
