<?xml version="1.0" encoding="UTF-8"?>
<svg version="1.1" xmlns="http://www.w3.org/2000/svg" width="512" height="512">
<path d="M0 0 C1.58126181 -0.00407124 3.16252078 -0.00941621 4.74377441 -0.01593018 C9.01904439 -0.02955177 13.29409599 -0.02432445 17.56936955 -0.01479292 C22.06354025 -0.00716017 26.55769313 -0.01425279 31.05186462 -0.01895142 C38.60475999 -0.02440242 46.15756725 -0.01723871 53.71044922 -0.00292969 C62.40533682 0.01335415 71.10001286 0.00813679 79.79489523 -0.0084089 C87.28912588 -0.02209215 94.78329339 -0.02390901 102.27753252 -0.0160929 C106.74030954 -0.0114484 111.20298772 -0.01070078 115.66575813 -0.02070236 C119.87086067 -0.02946838 124.07569529 -0.02317745 128.28076935 -0.00601959 C129.81081895 -0.00210373 131.3408917 -0.00310285 132.87093163 -0.00980759 C166.58785933 -0.14375343 195.21268808 13.25683837 219.26928711 36.38818359 C219.91381836 36.95794922 220.55834961 37.52771484 221.22241211 38.11474609 C240.78459609 55.94010066 251.88715853 87.29923198 253.43334961 113.12890625 C255.00526543 151.66049274 241.94141814 185.87673854 216.26928711 214.38818359 C215.68791992 215.04173828 215.10655273 215.69529297 214.50756836 216.36865234 C192.76189905 239.4289213 158.73814861 254.93119871 127.19039917 256.67459106 C123.1294717 256.79154423 119.07748272 256.82929944 115.01538086 256.82958984 C113.53425327 256.8414142 112.05313736 256.85479034 110.57203674 256.86961365 C106.73006028 256.90526752 102.88818757 256.92584729 99.04608154 256.94116211 C92.86881582 256.96630505 86.69177872 257.00601853 80.51472664 257.06306267 C78.37885525 257.0792046 76.24320893 257.08314887 74.10728455 257.08607483 C61.42798856 256.90472629 61.42798856 256.90472629 50.55627441 262.70829773 C44.22814034 270.96831936 42.99688397 284.33585073 40.7091217 294.27069664 C39.97527494 297.4552848 39.23231092 300.63762531 38.48693848 303.8195343 C36.37126303 312.85876188 34.27259603 321.90191731 32.17797852 330.94604492 C30.89149665 336.49796669 29.59522334 342.04753178 28.29322815 347.59583473 C27.80138307 349.70116341 27.31340348 351.8073992 26.82945251 353.9145565 C26.15249116 356.86199219 25.46318277 359.80629503 24.77124023 362.75024414 C24.57683853 363.61122208 24.38243683 364.47220001 24.18214417 365.35926819 C20.92353479 379.03953479 20.92353479 379.03953479 15.10308838 382.85583496 C10.80447805 384.93034568 6.6276766 384.95074389 1.9284668 384.90576172 C0.56355354 384.91627563 0.56355354 384.91627563 -0.82893372 384.92700195 C-3.82255016 384.94453587 -6.8152126 384.93297146 -9.80883789 384.91943359 C-11.90240662 384.92213076 -13.99597412 384.92601505 -16.08953857 384.93103027 C-20.47412053 384.93691991 -24.85837601 384.9283829 -29.24291992 384.90966797 C-34.83906847 384.88693549 -40.43444716 384.89996903 -46.03056717 384.92395782 C-50.35455013 384.93847843 -54.67835357 384.93378021 -59.00234222 384.92344666 C-61.0642379 384.92079371 -63.12615032 384.92399823 -65.18802643 384.93336487 C-82.05018478 384.99313673 -94.48183129 382.89743488 -107.41821289 371.26318359 C-115.07619421 363.28388837 -118.07503207 353.28095885 -118.11805725 342.51019287 C-117.89871563 331.98094072 -115.08029759 321.83478011 -112.66821289 311.63818359 C-112.08844566 309.12708758 -111.51039441 306.61559491 -110.93383789 304.10375977 C-109.62247991 298.40038137 -108.29867571 292.69999477 -106.96850586 287.00097656 C-104.54334873 276.60566881 -102.15383051 266.20224414 -99.76586914 255.79833984 C-98.86356705 251.86837994 -97.96111294 247.93845497 -97.05859375 244.00854492 C-96.82842843 243.00624061 -96.59826311 242.00393629 -96.36112309 240.97125912 C-94.68745381 233.68461311 -93.00986521 226.39887588 -91.33056641 219.11352539 C-85.51803777 193.8934234 -79.73144225 168.66753378 -73.97290039 143.43505859 C-73.72715979 142.35835643 -73.72715979 142.35835643 -73.47645473 141.25990272 C-70.22069838 126.99486879 -66.9666194 112.7294528 -63.71552074 98.46335661 C-62.34845012 92.46469776 -60.98045296 86.4662505 -59.61221695 80.46785736 C-58.7844899 76.83765141 -57.95788004 73.20719235 -57.13131714 69.57672119 C-55.90322769 64.186617 -54.66719659 58.79839026 -53.42540741 53.41142654 C-52.96123029 51.3913729 -52.49990286 49.37066237 -52.04138947 47.34931564 C-51.38949796 44.47645671 -50.72838141 41.60586293 -50.06518555 38.7355957 C-49.8780921 37.90084245 -49.69099865 37.06608919 -49.4982357 36.20604038 C-46.7761435 24.55153068 -41.79343355 13.76827109 -31.60571289 6.97021484 C-21.23462396 0.83038615 -11.77885579 -0.05109331 0 0 Z " fill="#002F89" transform="translate(186.730712890625,31.61181640625)"/>
<path d="M0 0 C16.35186841 11.82901119 23.99326285 34.76378792 27.75390625 53.8203125 C32.20154792 83.11876325 26.11444507 112.84590662 8.81738281 137.15576172 C-4.51715017 155.15867922 -20.77733927 168.89588326 -41.1953125 178.17724609 C-42.78711417 178.90294572 -44.36367044 179.66188791 -45.9375 180.42578125 C-62.39593661 187.97702418 -80.46338222 190.11183742 -98.3515625 190.2109375 C-99.73823827 190.2239252 -101.12490649 190.23774388 -102.51156616 190.25234985 C-108.36441497 190.31352103 -114.21723282 190.3680626 -120.0703125 190.40136719 C-123.6653327 190.42236158 -127.25997482 190.45768486 -130.85477829 190.50212479 C-132.21740643 190.51622741 -133.58010122 190.5249942 -134.94279861 190.52817917 C-136.84948107 190.53311204 -138.75608033 190.55792247 -140.66259766 190.58349609 C-141.74433258 190.59158295 -142.8260675 190.5996698 -143.94058228 190.60800171 C-148.34333915 191.17211989 -151.59714229 192.59494011 -154.74966431 195.75241089 C-156.41136804 198.73947047 -157.16870529 201.64584705 -158.00537109 204.96142578 C-158.18309555 205.65486084 -158.36082001 206.3482959 -158.54393005 207.06274414 C-159.12913581 209.35481977 -159.70121536 211.64996433 -160.2734375 213.9453125 C-160.68228952 215.55579281 -161.09202338 217.16604949 -161.50259399 218.77609253 C-162.58387009 223.02506976 -163.65434702 227.27669217 -164.722229 231.52905273 C-166.21436277 237.4629876 -167.72077714 243.3933144 -169.22598267 249.32394409 C-170.02577643 252.47525465 -170.82147789 255.6275494 -171.61361694 258.78079224 C-172.53455524 262.44109941 -173.47332457 266.0964863 -174.42162323 269.74979401 C-174.82176417 271.30656391 -175.21504203 272.86510806 -175.60279083 274.42501068 C-176.21056378 276.86670417 -176.83905865 279.30230736 -177.47119141 281.73779297 C-177.65022696 282.47734789 -177.8292625 283.21690281 -178.01372337 283.97886848 C-179.38121788 289.12954936 -181.12903767 292.27992007 -185 296 C-190.02679983 298.8155316 -194.46924011 299.43576041 -200.1315918 299.38818359 C-200.91313126 299.39344055 -201.69467072 299.39869751 -202.49989319 299.40411377 C-205.06654252 299.4172441 -207.6325638 299.40859634 -210.19921875 299.3984375 C-211.998928 299.40046126 -213.79863644 299.40337521 -215.5983429 299.40713501 C-219.3666669 299.41154981 -223.1347771 299.40515833 -226.90307617 299.39111328 C-231.70312276 299.37408357 -236.50266371 299.38382838 -241.30269146 299.40183067 C-245.02020477 299.41274416 -248.73760107 299.40918669 -252.45511818 299.4014473 C-254.2231229 299.39946291 -255.99113867 299.40184176 -257.75913048 299.40888596 C-272.31570658 299.45413528 -285.26492023 298.6292449 -297 289 C-302.81580734 283.00124507 -308 276.63177364 -308 268 C-307.10394043 267.98018066 -306.20788086 267.96036133 -305.28466797 267.93994141 C-301.88861065 267.86080063 -298.49290738 267.77408996 -295.09716797 267.68261719 C-293.64086076 267.64485752 -292.18447691 267.60992376 -290.72802734 267.578125 C-271.54378057 267.40863808 -271.54378057 267.40863808 -253.625 261.375 C-252.95291504 261.02163574 -252.28083008 260.66827148 -251.58837891 260.30419922 C-237.43097043 252.54977704 -232.01656095 240.23510064 -227.6502533 225.30485153 C-225.61801414 218.10149008 -223.91268256 210.81305103 -222.171875 203.53515625 C-221.73357767 201.72182258 -221.29470346 199.90862827 -220.85528564 198.0955658 C-219.71367691 193.38062605 -218.57774335 188.66434141 -217.44372559 183.9475708 C-215.61619985 176.34724402 -213.78322993 168.74824576 -211.94382477 161.15078545 C-211.30419695 158.50296638 -210.66912244 155.85408308 -210.03436279 153.20509338 C-209.64646745 151.59900483 -209.25839557 149.99295889 -208.87011719 148.38696289 C-208.69455292 147.64893433 -208.51898865 146.91090576 -208.33810425 146.1505127 C-207.11374593 141.11374593 -207.11374593 141.11374593 -206 140 C-203.26411519 139.8635512 -200.55028908 139.78876374 -197.8125 139.75390625 C-196.07567772 139.72257338 -194.3388615 139.69090285 -192.60205078 139.65893555 C-191.68715881 139.64357758 -190.77226685 139.6282196 -189.82965088 139.61239624 C-146.50366951 138.8484138 -103.95487733 135.01872361 -68 108 C-66.97390625 107.25492187 -65.9478125 106.50984375 -64.890625 105.7421875 C-52.51170903 96.61715801 -41.25839614 86.31621505 -32 74 C-30.83791016 72.52080078 -30.83791016 72.52080078 -29.65234375 71.01171875 C-14.39295238 51.11598414 -1.97267431 25.2502312 0 0 Z " fill="#009CDE" transform="translate(468,180)"/>
<path d="M0 0 C0.66 0.33 1.32 0.66 2 1 C-2.29 5.29 -6.58 9.58 -11 14 C-11 10.30159372 -10.17133056 9.68584567 -7.75 7 C-7.14671875 6.319375 -6.5434375 5.63875 -5.921875 4.9375 C-4.06233388 3.06284066 -2.15205789 1.52358081 0 0 Z " fill="#00256A" transform="translate(156,38)"/>
</svg>
