<?xml version="1.0" encoding="UTF-8"?>
<svg version="1.1" xmlns="http://www.w3.org/2000/svg" width="512" height="512">
<path d="M0 0 C10.55132384 0.71569501 21.0936018 1.17762067 31.66457909 1.48010522 C32.41874087 1.50175145 33.17290265 1.52339767 33.94991782 1.54569984 C36.98431102 1.63189335 40.01874416 1.71643047 43.05324287 1.79882771 C66.08046907 2.42432133 89.09637734 3.26107877 112.09044999 4.66351396 C114.46212995 4.80765027 116.83414888 4.94632951 119.20649117 5.0791195 C122.44299963 5.26336295 125.67705007 5.47124639 128.91157311 5.6872738 C129.84562594 5.73769533 130.77967877 5.78811686 131.74203622 5.84006631 C138.53075103 6.33871079 144.32327903 7.92897013 149.26638573 12.81579858 C149.7214248 13.48482202 150.17646386 14.15384546 150.64529198 14.84314233 C151.11837792 15.51474389 151.59146386 16.18634546 152.07888573 16.87829858 C154.4465573 20.86811191 154.31956896 24.25653811 154.29198998 28.80044824 C154.28916674 29.51945019 154.28634349 30.23845214 154.28343469 30.97924203 C154.27301326 33.39502074 154.25563818 35.81070306 154.2385537 38.22644311 C154.23012815 39.95610043 154.22229435 41.68576072 154.21500939 43.41542321 C154.20324721 46.18144692 154.19104294 48.94746287 154.17704052 51.71347624 C154.14249627 58.57685576 154.12631951 65.44009915 154.12139672 72.30356103 C154.12066403 73.29930646 154.11993134 74.29505189 154.11917645 75.32097143 C154.11651125 79.42975055 154.11446447 83.53852976 154.11270088 87.64730936 C154.10691851 99.31314948 154.08317396 110.97831995 154.00564355 122.64392358 C153.94419076 131.90850186 153.92159901 141.17225688 153.94445592 150.43702382 C153.95508891 155.33906949 153.9461657 160.23931493 153.8901307 165.14108926 C153.83781339 169.75646582 153.83718779 174.36901142 153.87549943 178.98449785 C153.88047828 180.67395833 153.86679351 182.36359783 153.8326146 184.05271989 C153.50992953 193.5073862 153.50992953 193.5073862 157.61340493 201.72915536 C160.37715624 204.01003774 163.15850404 205.90741025 166.20779198 207.78064233 C167.47972753 208.81678239 168.73614379 209.87316199 169.95779198 210.96814233 C170.49823144 211.43494409 171.03867089 211.90174585 171.5954873 212.38269311 C172.12754784 212.84401635 172.65960839 213.3053396 173.20779198 213.78064233 C178.43501313 218.29031648 183.72740137 222.70032683 189.09841698 227.03845483 C191.20779198 228.78064233 191.20779198 228.78064233 193.20779198 230.78064233 C193.41019712 233.73701058 193.48575708 236.60025865 193.47521752 239.5581997 C193.47974863 240.47840815 193.48427975 241.3986166 193.48894817 242.34671015 C193.50167146 245.44957493 193.49996666 248.55226596 193.49831933 251.65515405 C193.50429997 253.87240592 193.51110443 256.0896557 193.51867455 258.30690271 C193.53639733 264.34666464 193.5410328 270.38636997 193.54230613 276.42615539 C193.54420249 281.46786175 193.55155769 286.50955485 193.55865031 291.55125612 C193.57402612 302.7726753 193.57998612 313.99406769 193.57863961 325.2154942 C193.5785597 325.88925871 193.57847979 326.56302322 193.57839745 327.25720483 C193.57831569 327.93179566 193.57823393 328.60638648 193.57814969 329.30141945 C193.57733838 340.21197498 193.59643295 351.12239192 193.62467419 362.03290741 C193.65346017 373.24275462 193.66684557 384.45255124 193.66548663 395.66244024 C193.66497737 401.95286903 193.67063996 408.24314136 193.69184273 414.53353769 C193.71126442 420.45805952 193.71132244 426.38227641 193.69680947 432.30680925 C193.69472458 434.47550225 193.69940303 436.64421452 193.71153039 438.81287462 C193.79113293 454.04083521 193.41602476 467.2278942 182.20779198 478.78064233 C172.184078 488.27343926 160.52264863 489.3723991 147.30495995 489.2885769 C145.71112724 489.29319264 144.1172988 489.29955005 142.52347916 489.30748588 C138.16844403 489.32411007 133.81376166 489.31596449 129.45872563 489.303541 C124.75243773 489.2944644 120.0462091 489.30847316 115.3399331 489.31946069 C106.1300891 489.33722268 96.9203757 489.33341626 87.71052665 489.32181013 C80.22374403 489.31276695 72.73699794 489.31155563 65.25021142 489.31590539 C63.65027677 489.31682479 63.65027677 489.31682479 62.01802021 489.31776276 C59.85101812 489.3190417 57.68401604 489.32033855 55.51701397 489.32165313 C35.20954611 489.33305213 14.90215055 489.31995587 -5.40530545 489.29845166 C-22.82011646 489.28058131 -40.2348208 489.28368561 -57.64962989 489.30212671 C-77.88573364 489.32354541 -98.12177407 489.33195356 -118.35788757 489.31967765 C-120.51680085 489.31840349 -122.67571415 489.31714601 -124.83462745 489.31590539 C-126.42785825 489.31497974 -126.42785825 489.31497974 -128.05327553 489.31403539 C-135.52878886 489.31058549 -143.00426195 489.31640306 -150.47976905 489.32582361 C-159.59318968 489.33705606 -168.70647254 489.33397729 -177.81987745 489.31270063 C-182.46735525 489.30220704 -187.11460357 489.29803952 -191.76207954 489.31129724 C-196.02081643 489.32326204 -200.27911225 489.31659162 -204.53780943 489.29538703 C-206.07400094 489.29093822 -207.61023011 489.29314832 -209.14639717 489.30289018 C-222.30064499 489.3798768 -233.1447087 487.30072184 -242.79220802 477.78064233 C-250.47204715 468.89055617 -253.24392795 459.64490979 -253.22699195 448.02759057 C-253.2424787 446.63490811 -253.2424787 446.63490811 -253.25827831 445.21409065 C-253.28875241 442.13139384 -253.29819161 439.04901741 -253.30734473 435.96618921 C-253.32452268 433.74450573 -253.34284299 431.52283083 -253.36221534 429.3011654 C-253.40994473 423.28683738 -253.43764914 417.27259021 -253.45863706 411.25811464 C-253.47190263 407.49737676 -253.48815824 403.73666225 -253.50516349 399.97593957 C-253.55095603 389.54600937 -253.59062025 379.11609496 -253.60853606 368.68607599 C-253.61324502 365.98761756 -253.61796486 363.28915917 -253.62277442 360.59070092 C-253.62396333 359.92010949 -253.62515224 359.24951806 -253.62637718 358.55860567 C-253.64694336 347.68566378 -253.71512748 336.81357045 -253.8032953 325.94098759 C-253.89325573 314.75578807 -253.94071953 303.57089632 -253.94919246 292.38530475 C-253.95493742 286.11357574 -253.97870055 279.8431517 -254.04693443 273.57176477 C-254.11001543 267.67449633 -254.12058784 261.77942351 -254.09127265 255.88191301 C-254.08951286 253.72198266 -254.10647267 251.56194083 -254.143843 249.40233308 C-254.42347309 232.26807264 -254.42347309 232.26807264 -250.44321281 227.37047082 C-247.68258016 224.81945927 -244.94995209 222.80704794 -241.79220802 220.78064233 C-240.00646812 219.34060072 -238.23341366 217.88452817 -236.47970802 216.40564233 C-235.14166114 215.32669702 -235.14166114 215.32669702 -233.77658302 214.22595483 C-229.57978449 210.78721677 -225.48033127 207.2381986 -221.38669044 203.67761499 C-217.00380502 199.88644083 -217.00380502 199.88644083 -214.79220802 198.78064233 C-214.98175559 197.71738229 -215.17130317 196.65412225 -215.36659461 195.55864221 C-221.96204105 157.17445597 -226.26736823 112.00976009 -202.71464568 78.63119966 C-195.17960332 68.59419993 -186.75231494 59.46829914 -177.88700685 50.61475965 C-176.4030615 49.12582324 -174.93282338 47.62441472 -173.46514136 46.11945683 C-122.99825842 -5.45129988 -68.36162353 -4.69470704 0 0 Z " fill="#E9ECF3" transform="translate(285.79220801591873,8.219357669353485)"/>
<path d="M0 0 C-0.04520782 0.65573502 -0.09041565 1.31147003 -0.13699341 1.98707581 C-3.72743643 31.43365043 -3.72743643 31.43365043 3.18017578 58.83544922 C8.90187769 64.28396642 15.88153451 66.53756451 23.33837891 68.76513672 C29.43547123 70.82135041 34.66493095 74.21255854 40.125 77.5625 C42.28808449 78.81868865 44.45474581 80.0687391 46.625 81.3125 C57.75878705 87.74625772 68.8572469 94.24065487 79.95898438 100.72949219 C91.09343839 107.23621169 102.23446652 113.73155778 113.39801025 120.18826294 C115.08221664 121.16274553 116.76548605 122.13884695 118.44873047 123.11499023 C119.47885254 123.70997314 120.50897461 124.30495605 121.5703125 124.91796875 C122.47539551 125.44156982 123.38047852 125.9651709 124.31298828 126.50463867 C127.16776809 128.0933654 130.06809966 129.55933875 133 131 C134.23363281 129.85724609 134.23363281 129.85724609 135.4921875 128.69140625 C138.42292258 125.97864514 141.35997726 123.27281189 144.29882812 120.56884766 C145.77136481 119.21085099 147.23781311 117.84625801 148.703125 116.48046875 C159.84334442 106.22068603 170.97447176 96.91947361 186.890625 97.55859375 C202.44753699 99.76704985 212.4127371 110.22608355 223.2043457 120.63232422 C227.25299411 124.50730811 231.36031588 127.85271751 236 131 C252.40896056 121.65743169 268.77821723 112.25372156 285.07324219 102.71337891 C299.43568303 94.30533671 313.82166051 85.93968643 328.24243164 77.63208008 C335.9447355 73.19235204 343.63345486 68.72983391 351.3125 64.25 C352.31474609 63.66541016 353.31699219 63.08082031 354.34960938 62.47851562 C358.17730707 60.24352654 358.17730707 60.24352654 362 58 C362.86003632 57.58753525 363.72007263 57.1750705 364.60617065 56.75010681 C367.21567926 55.22925626 367.21567926 55.22925626 367.63923645 52.55122375 C367.64589828 51.5808165 367.65256012 50.61040924 367.65942383 49.6105957 C367.67906693 48.50968094 367.69871002 47.40876617 367.71894836 46.27449036 C367.71501572 45.08691635 367.71108307 43.89934235 367.70703125 42.67578125 C367.72215256 41.45924362 367.73727386 40.24270599 367.75285339 38.98930359 C367.79590284 35.09684971 367.80458563 31.20516873 367.8125 27.3125 C367.83563068 24.67641149 367.860993 22.04034155 367.88867188 19.40429688 C367.95169491 12.93619074 367.98649207 6.46838874 368 0 C372.21884951 2.4541487 375.83887141 5.28977964 379.5 8.5 C380.74053143 9.57592911 381.9814255 10.65144023 383.22265625 11.7265625 C383.84930176 12.27086914 384.47594727 12.81517578 385.12158203 13.37597656 C388.04023367 15.89935461 390.98786248 18.38798251 393.9375 20.875 C395.95981804 22.58157548 397.9806469 24.2899172 400 26 C400.5930469 26.40854339 401.18609379 26.81708679 401.79711181 27.23801029 C404.48179984 29.20078297 406.61196649 30.78478315 407.64677942 34.02553964 C407.89393251 36.46103082 407.91910601 38.8109265 407.86869812 41.25857544 C407.87750136 42.18220158 407.88630459 43.10582773 407.8953746 44.05744255 C407.91625114 47.14870509 407.88715044 50.23744626 407.8581543 53.32861328 C407.86272894 55.54646088 407.870327 57.764304 407.88072205 59.98213196 C407.89982913 66.00544757 407.87508698 72.02786557 407.84148383 78.05108881 C407.8125876 84.35956443 407.82023177 90.66800552 407.82295227 96.97653198 C407.82196189 107.57729818 407.79369278 118.17768116 407.74780273 128.77832031 C407.70069248 139.66544651 407.67936494 150.55222554 407.6862793 161.43945312 C407.69456817 174.57629234 407.68303721 187.71297402 407.65207863 200.84978867 C407.64040276 205.8582632 407.63582986 210.86666891 407.63687706 215.8751564 C407.63675069 221.78338769 407.6162919 227.69122108 407.58048439 233.59934044 C407.57044716 235.76156106 407.56706971 237.923825 407.57102966 240.08606529 C407.5927687 255.27861789 407.17784786 268.47857075 396 280 C385.97628602 289.49279693 374.31485664 290.59175677 361.09716797 290.50793457 C359.50333526 290.5125503 357.90950682 290.51890772 356.31568718 290.52684355 C351.96065204 290.54346774 347.60596968 290.53532216 343.25093365 290.52289867 C338.54464575 290.51382207 333.83841712 290.52783083 329.13214111 290.53881836 C319.92229712 290.55658035 310.71258372 290.55277393 301.50273466 290.5411678 C294.01595204 290.53212462 286.52920595 290.5309133 279.04241943 290.53526306 C277.44248479 290.53618246 277.44248479 290.53618246 275.81022823 290.53712043 C273.64322614 290.53839937 271.47622405 290.53969622 269.30922198 290.5410108 C249.00175413 290.5524098 228.69435857 290.53931354 208.38690257 290.51780933 C190.97209156 290.49993898 173.55738721 290.50304328 156.14257812 290.52148438 C135.90647438 290.54290308 115.67043395 290.55131123 95.43432045 290.53903532 C93.27540717 290.53776116 91.11649387 290.53650368 88.95758057 290.53526306 C87.36434977 290.53433741 87.36434977 290.53433741 85.73893249 290.53339306 C78.26341915 290.52994316 70.78794607 290.53576073 63.31243896 290.54518127 C54.19901833 290.55641373 45.08573547 290.55333496 35.97233057 290.5320583 C31.32485277 290.52156471 26.67760445 290.51739719 22.03012848 290.53065491 C17.77139158 290.54261971 13.51309576 290.53594929 9.25439858 290.5147447 C7.71820708 290.51029589 6.1819779 290.51250599 4.64581084 290.52224785 C-8.50843698 290.59923446 -19.35250069 288.52007951 -29 279 C-36.67983913 270.10991384 -39.45171993 260.86426746 -39.43478394 249.24694824 C-39.44510843 248.31849327 -39.45543293 247.39003829 -39.46607029 246.43344831 C-39.49654439 243.35075151 -39.5059836 240.26837508 -39.51513672 237.18554688 C-39.53231467 234.9638634 -39.55063497 232.7421885 -39.57000732 230.52052307 C-39.61773671 224.50619505 -39.64544112 218.49194788 -39.66642904 212.47747231 C-39.67969461 208.71673443 -39.69595023 204.95601992 -39.71295547 201.19529724 C-39.75874801 190.76536704 -39.79841224 180.33545263 -39.81632805 169.90543365 C-39.821037 167.20697523 -39.82575685 164.50851684 -39.83056641 161.81005859 C-39.83175532 161.13946716 -39.83294423 160.46887573 -39.83416916 159.77796334 C-39.85473535 148.90502145 -39.92291946 138.03292812 -40.01108728 127.16034526 C-40.10104771 115.97514574 -40.14851151 104.79025399 -40.15698445 93.60466242 C-40.1627294 87.33293341 -40.18649254 81.06250937 -40.25472641 74.79112244 C-40.31780742 68.893854 -40.32837982 62.99878118 -40.29906464 57.10127068 C-40.29730484 54.94134033 -40.31426465 52.7812985 -40.35163498 50.62169075 C-40.63126508 33.48743031 -40.63126508 33.48743031 -36.65100479 28.58982849 C-33.89037215 26.03881694 -31.15774408 24.02640561 -28 22 C-26.21426011 20.55995839 -24.44120564 19.10388584 -22.6875 17.625 C-21.79546875 16.90570313 -20.9034375 16.18640625 -19.984375 15.4453125 C-15.78757647 12.00657444 -11.68812325 8.45755627 -7.59448242 4.89697266 C-1.93320991 0 -1.93320991 0 0 0 Z " fill="#FEAB02" transform="translate(72,207)"/>
<path d="M0 0 C-0.04520782 0.65573502 -0.09041565 1.31147003 -0.13699341 1.98707581 C-3.72743643 31.43365043 -3.72743643 31.43365043 3.18017578 58.83544922 C8.90187769 64.28396642 15.88153451 66.53756451 23.33837891 68.76513672 C29.43547123 70.82135041 34.66493095 74.21255854 40.125 77.5625 C42.28808449 78.81868865 44.45474581 80.0687391 46.625 81.3125 C57.75878705 87.74625772 68.8572469 94.24065487 79.95898438 100.72949219 C92.79559248 108.23091149 105.65060929 115.69881709 118.53662109 123.11499023 C119.56996582 123.70997314 120.60331055 124.30495605 121.66796875 124.91796875 C122.57828857 125.44156982 123.4886084 125.9651709 124.42651367 126.50463867 C126.9654359 127.97991603 129.48582646 129.48299726 132 131 C130.43667078 134.99207282 127.63950856 137.4160785 124.5 140.1875 C123.96391113 140.66944824 123.42782227 141.15139648 122.87548828 141.64794922 C121.77769288 142.63391707 120.67759543 143.61732787 119.57519531 144.59814453 C117.33112019 146.59527401 115.10437291 148.61148701 112.875 150.625 C110.44376184 152.80846866 108.01095279 154.99017782 105.578125 157.171875 C101.02949804 161.25694762 96.50259936 165.36425788 92 169.5 C85.90004921 175.10294652 79.74438953 180.6421281 73.578125 186.171875 C69.02949804 190.25694762 64.50259936 194.36425788 60 198.5 C53.90004921 204.10294652 47.74438953 209.6421281 41.578125 215.171875 C37.02949804 219.25694762 32.50259936 223.36425788 28 227.5 C21.90004921 233.10294652 15.74438953 238.6421281 9.578125 244.171875 C5.02949733 248.25694826 0.50265784 252.36432096 -4 256.5 C-8.53500454 260.6644456 -13.08121288 264.81520441 -17.67578125 268.9140625 C-19.22993684 270.30888449 -20.76908351 271.72060635 -22.29296875 273.1484375 C-23.00066406 273.80070312 -23.70835938 274.45296875 -24.4375 275.125 C-25.05496094 275.70507812 -25.67242187 276.28515625 -26.30859375 276.8828125 C-26.86675781 277.25148438 -27.42492188 277.62015625 -28 278 C-32.58867988 276.47044004 -33.8388923 273.15423534 -36 269 C-38.54663425 262.41068148 -39.44502297 256.27045569 -39.43478394 249.24694824 C-39.44510843 248.31849327 -39.45543293 247.39003829 -39.46607029 246.43344831 C-39.49654439 243.35075151 -39.5059836 240.26837508 -39.51513672 237.18554688 C-39.53231467 234.9638634 -39.55063497 232.7421885 -39.57000732 230.52052307 C-39.61773671 224.50619505 -39.64544112 218.49194788 -39.66642904 212.47747231 C-39.67969461 208.71673443 -39.69595023 204.95601992 -39.71295547 201.19529724 C-39.75874801 190.76536704 -39.79841224 180.33545263 -39.81632805 169.90543365 C-39.821037 167.20697523 -39.82575685 164.50851684 -39.83056641 161.81005859 C-39.83175532 161.13946716 -39.83294423 160.46887573 -39.83416916 159.77796334 C-39.85473535 148.90502145 -39.92291946 138.03292812 -40.01108728 127.16034526 C-40.10104771 115.97514574 -40.14851151 104.79025399 -40.15698445 93.60466242 C-40.1627294 87.33293341 -40.18649254 81.06250937 -40.25472641 74.79112244 C-40.31780742 68.893854 -40.32837982 62.99878118 -40.29906464 57.10127068 C-40.29730484 54.94134033 -40.31426465 52.7812985 -40.35163498 50.62169075 C-40.63126508 33.48743031 -40.63126508 33.48743031 -36.65100479 28.58982849 C-33.89037215 26.03881694 -31.15774408 24.02640561 -28 22 C-26.21426011 20.55995839 -24.44120564 19.10388584 -22.6875 17.625 C-21.79546875 16.90570313 -20.9034375 16.18640625 -19.984375 15.4453125 C-15.78757647 12.00657444 -11.68812325 8.45755627 -7.59448242 4.89697266 C-1.93320991 0 -1.93320991 0 0 0 Z " fill="#FEC80D" transform="translate(72,207)"/>
<path d="M0 0 C4.21884951 2.4541487 7.83887141 5.28977964 11.5 8.5 C12.74053143 9.57592911 13.9814255 10.65144023 15.22265625 11.7265625 C15.84930176 12.27086914 16.47594727 12.81517578 17.12158203 13.37597656 C20.04023367 15.89935461 22.98786248 18.38798251 25.9375 20.875 C27.95981804 22.58157548 29.9806469 24.2899172 32 26 C32.5930469 26.40854339 33.18609379 26.81708679 33.79711181 27.23801029 C36.48179984 29.20078297 38.61196649 30.78478315 39.64677942 34.02553964 C39.89393251 36.46103082 39.91910601 38.8109265 39.86869812 41.25857544 C39.88190298 42.64401466 39.88190298 42.64401466 39.8953746 44.05744255 C39.91625114 47.14870509 39.88715044 50.23744626 39.8581543 53.32861328 C39.86272894 55.54646088 39.870327 57.764304 39.88072205 59.98213196 C39.89982913 66.00544757 39.87508698 72.02786557 39.84148383 78.05108881 C39.8125876 84.35956443 39.82023177 90.66800552 39.82295227 96.97653198 C39.82196189 107.57729818 39.79369278 118.17768116 39.74780273 128.77832031 C39.70069248 139.66544651 39.67936494 150.55222554 39.6862793 161.43945312 C39.69456817 174.57629234 39.68303721 187.71297402 39.65207863 200.84978867 C39.64040276 205.8582632 39.63582986 210.86666891 39.63687706 215.8751564 C39.63675069 221.78338769 39.6162919 227.69122108 39.58048439 233.59934044 C39.57044716 235.76156106 39.56706971 237.923825 39.57102966 240.08606529 C39.59125387 254.21996149 39.34831703 266.57427919 30 278 C25.90814788 276.34942197 23.02124271 273.42825844 19.875 270.4375 C18.70751273 269.34323607 17.53953974 268.24949015 16.37109375 267.15625 C15.51040283 266.34800781 15.51040283 266.34800781 14.63232422 265.5234375 C12.4269525 263.46517852 10.18567348 261.44883186 7.9375 259.4375 C4.22422438 256.11064656 0.54374253 252.75070101 -3.125 249.375 C-6.36211029 246.39775181 -9.6113792 243.44046979 -12.9375 240.5625 C-17.06755185 236.98197688 -21.0660407 233.26420238 -25.07519531 229.54980469 C-30.00645654 224.98403358 -34.99297968 220.48255338 -40 216 C-45.87649198 210.73109362 -51.72145987 205.42993852 -57.53417969 200.09082031 C-62.32574851 195.69316338 -67.15810864 191.34208322 -72 187 C-77.87600701 181.73054855 -83.72145443 176.42994352 -89.53417969 171.09082031 C-94.32574851 166.69316338 -99.15810864 162.34208322 -104 158 C-112.86289377 150.05198559 -112.86289377 150.05198559 -117.0859375 146.1640625 C-117.61203613 145.6798584 -118.13813477 145.1956543 -118.68017578 144.69677734 C-120.16829263 143.32530293 -121.65451444 141.95177314 -123.140625 140.578125 C-125.18116507 138.73829379 -127.21974543 137.01008367 -129.359375 135.296875 C-130.66648437 134.15992188 -130.66648437 134.15992188 -132 133 C-132 132.34 -132 131.68 -132 131 C-130.9162207 130.38294189 -130.9162207 130.38294189 -129.81054688 129.75341797 C-114.13342465 120.82300422 -98.49696208 111.8293566 -82.92675781 102.71337891 C-68.56431697 94.30533671 -54.17833949 85.93968643 -39.75756836 77.63208008 C-32.0552645 73.19235204 -24.36654514 68.72983391 -16.6875 64.25 C-15.68525391 63.66541016 -14.68300781 63.08082031 -13.65039062 62.47851562 C-9.82269293 60.24352654 -9.82269293 60.24352654 -6 58 C-5.13996368 57.58753525 -4.27992737 57.1750705 -3.39382935 56.75010681 C-0.78432074 55.22925626 -0.78432074 55.22925626 -0.36076355 52.55122375 C-0.35410172 51.5808165 -0.34743988 50.61040924 -0.34057617 49.6105957 C-0.31111153 47.95922356 -0.31111153 47.95922356 -0.28105164 46.27449036 C-0.28498428 45.08691635 -0.28891693 43.89934235 -0.29296875 42.67578125 C-0.27028679 40.85097481 -0.27028679 40.85097481 -0.24714661 38.98930359 C-0.20409716 35.09684971 -0.19541437 31.20516873 -0.1875 27.3125 C-0.16436932 24.67641149 -0.139007 22.04034155 -0.11132812 19.40429688 C-0.04830509 12.93619074 -0.01350793 6.46838874 0 0 Z " fill="#FEC80D" transform="translate(440,207)"/>
<path d="M0 0 C0.99902344 -0.01289063 1.99804688 -0.02578125 3.02734375 -0.0390625 C7.09638747 0.85120447 9.45097032 2.46691302 12.0625 5.625 C14.36737058 9.99335375 16.12449177 14.56538853 17.8984375 19.16796875 C18.42653484 20.5018065 18.95606875 21.83507629 19.48696899 23.1678009 C20.87357905 26.66103532 22.23870347 30.16229541 23.59997559 33.66546631 C24.71794953 36.53144571 25.85145152 39.39115801 26.98573875 42.25071239 C28.33704433 45.6585043 29.68112041 49.06912788 31.0234375 52.48046875 C31.28009563 53.13193563 31.53675377 53.78340252 31.80118942 54.45461082 C32.52290246 56.29136868 33.23889044 58.130373 33.95458984 59.96948242 C34.36285004 61.01585373 34.77111023 62.06222504 35.19174194 63.14030457 C36.0625 65.625 36.0625 65.625 36.0625 67.625 C36.7225 67.625 37.3825 67.625 38.0625 67.625 C38.22440826 67.04438309 38.38631653 66.46376617 38.5531311 65.86555481 C40.56468886 58.88898616 43.07745959 52.18719784 45.7734375 45.44921875 C46.4484581 43.75693901 46.4484581 43.75693901 47.13711548 42.0304718 C48.08438717 39.66214903 49.03416412 37.2948269 49.98632812 34.9284668 C51.4382381 31.31066083 52.87154754 27.68582203 54.3046875 24.06054688 C55.23063326 21.75214754 56.15767877 19.44418896 57.0859375 17.13671875 C57.51006927 16.0564592 57.93420105 14.97619965 58.3711853 13.86320496 C60.57389648 8.45042967 62.36791121 4.22589163 67.0625 0.625 C72.44379574 -0.52711252 77.49227251 -0.29866323 82.25 2.5 C85.4386134 6.23837433 85.22764741 9.32071797 85.25537109 14.04052734 C85.26763733 15.18712578 85.26763733 15.18712578 85.28015137 16.35688782 C85.30500533 18.89156303 85.32151996 21.42618231 85.3359375 23.9609375 C85.34126118 24.82568317 85.34658485 25.69042885 85.35206985 26.58137894 C85.37879953 31.1571082 85.3981763 35.73281017 85.41259766 40.30859375 C85.429259 45.0390938 85.4740492 49.76889897 85.5249691 54.49913597 C85.55859017 58.13309549 85.5701693 61.76688889 85.57582474 65.40098953 C85.58254988 67.14495794 85.59780473 68.88891494 85.62171555 70.63273239 C85.65326596 73.07262963 85.65342019 75.51063671 85.64599609 77.95068359 C85.66240143 78.67186874 85.67880676 79.39305389 85.69570923 80.13609314 C85.64951397 83.84197652 85.31530852 85.35361435 82.75259399 88.10464478 C80.0625 89.625 80.0625 89.625 76.4375 89.625 C72.64480631 88.50123891 71.97933028 87.95617905 70.0625 84.625 C69.66377258 82.01800537 69.66377258 82.01800537 69.63012695 79.03027344 C69.61033279 77.90941345 69.59053864 76.78855347 69.57014465 75.63372803 C69.56375473 74.42944153 69.55736481 73.22515503 69.55078125 71.984375 C69.53283005 70.74705627 69.51487885 69.50973755 69.49638367 68.23492432 C69.45139834 64.95357149 69.4190961 61.67241589 69.39294434 58.39086914 C69.36310821 55.03907478 69.31633932 51.68756457 69.27148438 48.3359375 C69.18645461 41.76573385 69.11814428 35.19551467 69.0625 28.625 C68.68552979 29.57004395 68.30855957 30.51508789 67.92016602 31.48876953 C67.38559818 32.828458 66.85100983 34.16813829 66.31640625 35.5078125 C66.02990707 36.22592606 65.7434079 36.94403961 65.44822693 37.68391418 C63.86628362 41.64722031 62.28089285 45.60910029 60.68945312 49.56860352 C60.04419629 51.17461198 59.39901384 52.78065033 58.75390625 54.38671875 C58.43418854 55.18261917 58.11447083 55.97851959 57.7850647 56.79853821 C55.93244919 61.42107763 54.11821276 66.05544004 52.33984375 70.70703125 C51.94788818 71.71427246 51.55593262 72.72151367 51.15209961 73.75927734 C50.44620337 75.57534292 49.7546432 77.39707278 49.08032227 79.22509766 C47.04628963 84.3930896 45.23974268 87.04326329 40.0625 89.625 C35.78049435 90.33866761 33.12324174 89.57015405 29.56326294 87.08639526 C26.47922714 84.0832592 25.23584721 80.01498657 23.71484375 76.06640625 C23.33566299 75.12627182 22.95648224 74.18613739 22.56581116 73.21751404 C21.35944075 70.21425648 20.17955292 67.2013771 19 64.1875 C18.20418134 62.19528065 17.40667119 60.20373612 16.60742188 58.21289062 C12.67333426 48.38364206 8.83244501 38.51832378 5.0625 28.625 C5.05663376 29.30294113 5.05076752 29.98088226 5.04472351 30.67936707 C4.98078421 37.73614535 4.89636255 44.79246781 4.80004883 51.84887695 C4.76679675 54.48227936 4.73876576 57.11575309 4.71606445 59.74926758 C4.68252471 63.53497711 4.6302068 67.32003289 4.57421875 71.10546875 C4.56463387 72.8713459 4.56463387 72.8713459 4.55485535 74.67289734 C4.53506119 75.77366104 4.51526703 76.87442474 4.49487305 78.00854492 C4.47821846 79.45749397 4.47821846 79.45749397 4.46122742 80.93571472 C3.98909083 84.12012069 2.93828691 86.02906137 1.0625 88.625 C-1.77833641 90.04541821 -3.79227278 89.93952272 -6.9375 89.625 C-9.09947205 88.08787537 -9.09947205 88.08787537 -10.9375 85.625 C-11.33746021 82.9171073 -11.49528434 80.61331727 -11.47094727 77.90649414 C-11.47956284 77.13365585 -11.48817841 76.36081757 -11.49705505 75.56455994 C-11.51973654 73.01275022 -11.51297229 70.46203684 -11.50390625 67.91015625 C-11.50914118 66.13422825 -11.51541718 64.35830303 -11.52268982 62.5823822 C-11.53309824 58.86085932 -11.52852678 55.1397187 -11.51391602 51.41821289 C-11.49673396 46.65186918 -11.52021335 41.88673159 -11.55540562 37.1205225 C-11.57738042 33.45299814 -11.57593788 29.7857623 -11.5676403 26.11819267 C-11.5668207 24.36113602 -11.57368597 22.6040582 -11.58841133 20.84706306 C-11.60585811 18.38825804 -11.591316 15.93161878 -11.56860352 13.47290039 C-11.58029572 12.74910187 -11.59198792 12.02530334 -11.60403442 11.27957153 C-11.5311889 7.39823583 -11.03424541 5.74599045 -8.57945251 2.67601013 C-5.45955094 0.25395686 -3.91060653 -0.05032956 0 0 Z " fill="#F0504B" transform="translate(218.9375,135.375)"/>
<path d="M0 0 C0.09288003 9.90130645 0.16385614 19.80250842 0.20724869 29.7041626 C0.22808014 34.30244387 0.25631609 38.90042601 0.30175781 43.49853516 C0.34537476 47.94004232 0.36917049 52.38126264 0.37950897 56.82296753 C0.386872 58.51338208 0.40125021 60.2037818 0.42292023 61.89407349 C0.62530235 78.3415623 0.62530235 78.3415623 -4 85 C-6.03515625 87.05859375 -6.03515625 87.05859375 -8.0625 88.4375 C-8.73410156 88.91058594 -9.40570313 89.38367188 -10.09765625 89.87109375 C-14.12024561 92.25821557 -17.88831054 92.13644193 -22.40893555 92.11352539 C-23.16039856 92.11367142 -23.91186157 92.11381744 -24.68609619 92.1139679 C-27.16966642 92.11327129 -29.65316163 92.10549067 -32.13671875 92.09765625 C-33.85878966 92.09579118 -35.58086111 92.09436769 -37.30293274 92.09336853 C-41.83539291 92.0895504 -46.36782104 92.07972611 -50.90026855 92.06866455 C-55.52530484 92.05843531 -60.15034629 92.05386766 -64.77539062 92.04882812 C-73.8502745 92.03810323 -82.92513458 92.02103523 -92 92 C-87.43090021 86.52121697 -82.58149429 81.43885397 -77.53198242 76.40258789 C-76.28949738 75.15747437 -76.28949738 75.15747437 -75.02191162 73.88720703 C-72.3022625 71.16318075 -69.57900102 68.44279968 -66.85546875 65.72265625 C-64.96057231 63.82708597 -63.06582403 61.93136852 -61.17121887 60.0355072 C-57.21139969 56.07387503 -53.24949023 52.11434251 -49.28637695 48.15600586 C-44.70030732 43.57539976 -40.11788161 38.9911719 -35.53728789 34.40509039 C-31.59931786 30.46259123 -27.65941372 26.52203287 -23.71786767 22.58310884 C-21.36553701 20.23233917 -19.01408891 17.88069969 -16.66399193 15.52769661 C-14.05207993 12.91326194 -11.43701325 10.30202547 -8.82104492 7.69165039 C-8.03925369 6.90783493 -7.25746246 6.12401947 -6.45198059 5.31645203 C-5.74407379 4.61136505 -5.03616699 3.90627808 -4.30680847 3.17982483 C-3.68870395 2.56209733 -3.07059942 1.94436983 -2.43376446 1.30792332 C-1 0 -1 0 0 0 Z " fill="#D2DBE9" transform="translate(164,15)"/>
<path d="M0 0 C0.76223877 0.15678223 1.52447754 0.31356445 2.30981445 0.47509766 C6.69517527 1.50213961 9.53498683 2.58333272 12.25 6.25 C12.85605429 9.88632575 12.72161336 11.53314769 10.6875 14.625 C7.30597978 16.87934681 5.26884342 16.65188434 1.25 16.25 C0.03828125 15.92 -1.1734375 15.59 -2.421875 15.25 C-6.89210605 14.10614069 -11.15096168 13.88284819 -15.75 13.875 C-16.50539062 13.85050781 -17.26078125 13.82601562 -18.0390625 13.80078125 C-23.6653393 13.77177982 -28.08138368 15.02692783 -32.75 18.25 C-34.31700442 21.38400885 -34.60164561 24.88155095 -33.75 28.25 C-29.76391584 32.52987921 -25.23409052 33.43506478 -19.75 34.6875 C-7.1170925 37.81158551 5.0121949 40.92057901 13.75 51.1875 C16.63046117 56.97425608 16.02032694 64.01981196 15.25 70.25 C14.11393165 73.51745323 12.60540577 75.73876586 10.25 78.25 C9.75371094 78.80042969 9.25742188 79.35085937 8.74609375 79.91796875 C0.11748801 88.33865628 -10.50632985 88.85469328 -21.9621582 88.79736328 C-31.21172745 88.51946311 -41.73532645 87.34027206 -49.14453125 81.296875 C-50.75 79.25 -50.75 79.25 -51.25 75.75 C-50.75 72.25 -50.75 72.25 -49.1875 69.75 C-46.75 68.25 -46.75 68.25 -43.5625 68.3125 C-40.76651016 69.00003848 -38.39636082 69.76074999 -35.7421875 70.78125 C-30.18418615 72.64829795 -24.88237162 72.72898969 -19.0625 72.6875 C-17.55333008 72.7174707 -17.55333008 72.7174707 -16.01367188 72.74804688 C-9.96289003 72.74405823 -6.33003097 72.32873405 -1.75 68.25 C-0.2716774 65.29335481 -0.68967217 62.50770263 -0.75 59.25 C-8.08829277 54.40801797 -16.28322832 52.6594438 -24.703125 50.42578125 C-35.64584194 47.36718219 -44.20402853 43.04309395 -50.0625 33 C-52.07445115 24.95219542 -50.81381252 18.38298562 -46.75 11.25 C-42.97043471 4.99918048 -36.14519906 1.41193007 -29.3828125 -0.90234375 C-19.62482205 -3.17920819 -9.69126451 -2.06239108 0 0 Z " fill="#F0524D" transform="translate(179.75,136.75)"/>
<path d="M0 0 C2.10546875 1.51953125 2.10546875 1.51953125 3.10546875 3.51953125 C3.49050251 7.06184186 3.52482834 8.88210467 1.54296875 11.89453125 C-1.83855147 14.14887806 -3.87568783 13.92141559 -7.89453125 13.51953125 C-9.70824219 13.02259766 -9.70824219 13.02259766 -11.55859375 12.515625 C-16.0743929 11.35852965 -20.37526588 11.18745172 -25.01953125 11.20703125 C-25.79167969 11.19091797 -26.56382812 11.17480469 -27.359375 11.15820312 C-33.13461823 11.15328384 -36.91996261 12.53648549 -41.76953125 15.76953125 C-43.66405109 18.71656212 -43.31105246 21.12785857 -42.89453125 24.51953125 C-37.44031029 31.14603953 -28.42802356 32.41405883 -20.45703125 34.39453125 C-9.66502098 37.21079489 -0.87043144 40.63656392 5.1953125 50.24609375 C7.47402443 55.93798363 7.21586318 64.2825332 5.23046875 70.0703125 C4.01616683 72.12743581 2.73836925 73.77860171 1.10546875 75.51953125 C0.60917969 76.06996094 0.11289062 76.62039062 -0.3984375 77.1875 C-9.02704324 85.60818753 -19.6508611 86.12422453 -31.10668945 86.06689453 C-40.3562587 85.78899436 -50.8798577 84.60980331 -58.2890625 78.56640625 C-59.89453125 76.51953125 -59.89453125 76.51953125 -60.39453125 73.01953125 C-59.89453125 69.51953125 -59.89453125 69.51953125 -58.33203125 67.01953125 C-55.89453125 65.51953125 -55.89453125 65.51953125 -52.70703125 65.58203125 C-49.90586919 66.27084159 -47.51772025 67.03559777 -44.85546875 68.0546875 C-39.45310148 69.87055827 -34.36423633 69.9638503 -28.70703125 69.89453125 C-27.2694043 69.91193359 -27.2694043 69.91193359 -25.80273438 69.9296875 C-20.44903524 69.90748833 -16.46397082 69.62412656 -11.89453125 66.51953125 C-9.46507965 62.87535385 -9.7327355 60.80711853 -9.89453125 56.51953125 C-15.33343855 52.89359305 -20.77913992 51.29861502 -27.05859375 49.578125 C-50.79432488 43.02783667 -50.79432488 43.02783667 -57.89453125 32.51953125 C-59.99394774 26.22128178 -59.97658238 18.11457029 -58.05859375 11.7421875 C-53.89649883 3.57163203 -46.59064695 -0.97771475 -38.0625 -3.7890625 C-26.6850641 -6.27217736 -10.48004701 -5.36023997 0 0 Z " fill="#F0524D" transform="translate(377.89453125,139.48046875)"/>
<path d="M0 0 C4.25544277 2.55326566 7.80310675 5.25848359 11.5 8.5 C12.73924127 9.57461334 13.97883306 10.64882258 15.21875 11.72265625 C15.84523438 12.26680176 16.47171875 12.81094727 17.1171875 13.37158203 C20.05914431 15.91603897 23.02822259 18.42799907 26 20.9375 C26.51498047 21.37320313 27.02996094 21.80890625 27.56054688 22.2578125 C31.02712129 25.18794692 34.51049259 28.09726988 38 31 C36.746996 34.75901199 35.69790801 35.0206611 32.29296875 36.890625 C30.83153442 37.70333862 30.83153442 37.70333862 29.34057617 38.5324707 C28.30006104 39.09925537 27.2595459 39.66604004 26.1875 40.25 C24.08294358 41.41466058 21.97877325 42.58001911 19.875 43.74609375 C18.86050781 44.30538574 17.84601563 44.86467773 16.80078125 45.44091797 C12.48226959 47.84485934 8.24433045 50.37385624 4.01171875 52.92578125 C2 54 2 54 0 54 C0 36.18 0 18.36 0 0 Z " fill="#FFAB02" transform="translate(440,207)"/>
<path d="M0 0 C0 17.82 0 35.64 0 54 C-4.34148355 52.55283882 -7.27019 51.437886 -11.046875 49.171875 C-11.975 48.61886719 -12.903125 48.06585938 -13.859375 47.49609375 C-15.29023437 46.63177734 -15.29023437 46.63177734 -16.75 45.75 C-17.6884375 45.18925781 -18.626875 44.62851563 -19.59375 44.05078125 C-22.39929479 42.37287946 -25.19996418 40.68707547 -28 39 C-29.90081815 37.85900256 -31.80184693 36.7183559 -33.703125 35.578125 C-35.13541667 34.71875 -36.56770833 33.859375 -38 33 C-36.08404337 28.72401347 -33.11196665 26.25251927 -29.5625 23.3125 C-28.93504883 22.78430664 -28.30759766 22.25611328 -27.66113281 21.71191406 C-25.78063634 20.13321387 -23.89199302 18.5648941 -22 17 C-21.00355469 16.17371094 -20.00710937 15.34742188 -18.98046875 14.49609375 C-16.33124916 12.31683586 -13.66892696 10.15505894 -11 8 C-9.58074219 6.84564453 -9.58074219 6.84564453 -8.1328125 5.66796875 C-7.22273438 4.93191406 -6.31265625 4.19585937 -5.375 3.4375 C-4.55773437 2.77621094 -3.74046875 2.11492187 -2.8984375 1.43359375 C-1 0 -1 0 0 0 Z " fill="#FFAB01" transform="translate(72,207)"/>
</svg>
