<?xml version="1.0" encoding="UTF-8"?>
<svg version="1.1" xmlns="http://www.w3.org/2000/svg" width="960" height="639">
<path d="M0 0 C316.8 0 633.6 0 960 0 C960 210.87 960 421.74 960 639 C643.2 639 326.4 639 0 639 C0 428.13 0 217.26 0 0 Z " fill="#237BB4" transform="translate(0,0)"/>
<path d="M0 0 C114.18 0 228.36 0 346 0 C346 210.87 346 421.74 346 639 C151.3 639 -43.4 639 -244 639 C-241.36335259 636.36335259 -239.24029829 634.744776 -236 633 C-235.34 633 -234.68 633 -234 633 C-234 632.34 -234 631.68 -234 631 C-233.01 631 -232.02 631 -231 631 C-230.90912109 630.09507812 -230.90912109 630.09507812 -230.81640625 629.171875 C-230.73261719 628.37265625 -230.64882813 627.5734375 -230.5625 626.75 C-230.48128906 625.96109375 -230.40007812 625.1721875 -230.31640625 624.359375 C-230.02365007 622.17635361 -229.57935581 620.1226818 -229 618 C-228.34 618 -227.68 618 -227 618 C-227 616.68 -227 615.36 -227 614 C-226.34 614 -225.68 614 -225 614 C-224.87044922 612.90945313 -224.87044922 612.90945313 -224.73828125 611.796875 C-223.78871579 605.00181943 -222.08177233 599.2681256 -219.29296875 593.01171875 C-217.99249067 589.98250847 -216.94375793 586.9505929 -215.9375 583.8125 C-214.54824092 579.51081827 -212.91625968 575.47432145 -211.015625 571.37890625 C-209.02029703 566.70523419 -207.53936552 561.83917565 -206 557 C-205.34 557 -204.68 557 -204 557 C-203.34 553.04 -202.68 549.08 -202 545 C-201.34 545 -200.68 545 -200 545 C-200 543.68 -200 542.36 -200 541 C-199.34 541 -198.68 541 -198 541 C-197.91363281 540.27296875 -197.82726562 539.5459375 -197.73828125 538.796875 C-196.79226631 532.02722681 -195.08923525 526.34290835 -192.30859375 520.11328125 C-190.1095357 514.88149239 -188.57258025 509.44692599 -187 504 C-186.34 504 -185.68 504 -185 504 C-184.896875 503.21625 -184.79375 502.4325 -184.6875 501.625 C-183.80420046 496.9676024 -182.41971242 492.51807851 -181 488 C-180.34 488 -179.68 488 -179 488 C-179 486.68 -179 485.36 -179 484 C-178.34 484 -177.68 484 -177 484 C-176.91363281 483.27296875 -176.82726562 482.5459375 -176.73828125 481.796875 C-175.78871579 475.00181943 -174.08177233 469.2681256 -171.29296875 463.01171875 C-169.61924798 459.11311237 -168.34683634 455.13105347 -167.08984375 451.08203125 C-166.20024246 448.56627707 -165.21817539 446.21955491 -164.11328125 443.796875 C-161.84511958 438.77898086 -160.03038163 433.64492524 -158.25 428.4375 C-157.93417969 427.52419922 -157.61835938 426.61089844 -157.29296875 425.66992188 C-156.52511628 423.44780336 -155.76085976 421.22452041 -155 419 C-154.34 419 -153.68 419 -153 419 C-152.91363281 418.27296875 -152.82726562 417.5459375 -152.73828125 416.796875 C-151.78871579 410.00181943 -150.08177233 404.2681256 -147.29296875 398.01171875 C-145.99249067 394.98250847 -144.94375793 391.9505929 -143.9375 388.8125 C-142.54824092 384.51081827 -140.91625968 380.47432145 -139.015625 376.37890625 C-137.02029703 371.70523419 -135.53936552 366.83917565 -134 362 C-133.34 362 -132.68 362 -132 362 C-131.67 359.36 -131.34 356.72 -131 354 C-130.34 354 -129.68 354 -129 354 C-128.91363281 353.27296875 -128.82726562 352.5459375 -128.73828125 351.796875 C-127.63262402 343.88483242 -125.31403522 337.24021707 -122 330 C-121.4752957 328.77248077 -120.95376462 327.54359256 -120.4375 326.3125 C-119.65956223 324.51986078 -118.87228831 322.73061623 -118.03515625 320.96484375 C-115.74952359 316.07445235 -114.1953615 311.28769166 -112.859375 306.0625 C-111.23292427 300.26642102 -109.08477681 294.64455381 -107 289 C-106.34 289 -105.68 289 -105 289 C-104.91363281 288.27296875 -104.82726562 287.5459375 -104.73828125 286.796875 C-103.78871579 280.00181943 -102.08177233 274.2681256 -99.29296875 268.01171875 C-97.99249067 264.98250847 -96.94375793 261.9505929 -95.9375 258.8125 C-94.54824092 254.51081827 -92.91625968 250.47432145 -91.015625 246.37890625 C-89.02029703 241.70523419 -87.53936552 236.83917565 -86 232 C-85.34 232 -84.68 232 -84 232 C-83.67 229.36 -83.34 226.72 -83 224 C-82.34 224 -81.68 224 -81 224 C-80.87044922 222.90945312 -80.87044922 222.90945312 -80.73828125 221.796875 C-79.78871579 215.00181943 -78.08177233 209.2681256 -75.29296875 203.01171875 C-73.99249067 199.98250847 -72.94375793 196.9505929 -71.9375 193.8125 C-70.81807116 190.34227061 -69.62481301 187.04335583 -68.0625 183.75 C-65.78253837 178.85664361 -64.28348139 173.74772257 -62.75024414 168.58300781 C-61.74439164 165.22554153 -60.71754646 162.0647962 -59 159 C-58.34 159 -57.68 159 -57 159 C-56.87044922 157.90945312 -56.87044922 157.90945312 -56.73828125 156.796875 C-55.63065288 148.87072704 -53.2772063 142.26513203 -50 135 C-47.56951488 129.24899295 -45.51397302 123.52662047 -43.7890625 117.52734375 C-42.68057868 113.97690301 -41.28954261 110.56350792 -39.8671875 107.12890625 C-39.18083035 105.44393037 -38.57534597 103.7260379 -38 102 C-37.34 102 -36.68 102 -36 102 C-35.67 99.36 -35.34 96.72 -35 94 C-34.34 94 -33.68 94 -33 94 C-32.91363281 93.27296875 -32.82726562 92.5459375 -32.73828125 91.796875 C-31.78871579 85.00181943 -30.08177233 79.2681256 -27.29296875 73.01171875 C-25.61924798 69.11311237 -24.34683634 65.13105347 -23.08984375 61.08203125 C-22.20024246 58.56627707 -21.21817539 56.21955491 -20.11328125 53.796875 C-17.84511958 48.77898086 -16.03038163 43.64492524 -14.25 38.4375 C-13.93417969 37.52419922 -13.61835937 36.61089844 -13.29296875 35.66992188 C-12.52511628 33.44780336 -11.76085976 31.22452041 -11 29 C-10.34 29 -9.68 29 -9 29 C-8.87044922 27.90945312 -8.87044922 27.90945312 -8.73828125 26.796875 C-7.63251145 18.88402686 -5.28295238 12.24985317 -2 5 C-1.34 3.35 -0.68 1.7 0 0 Z " fill="#1B191A" transform="translate(614,0)"/>
<path d="M0 0 C2.27640983 0 4.47783143 0.11417887 6.73828125 0.375 C6.32578125 1.6125 5.91328125 2.85 5.48828125 4.125 C5.21628906 4.94355469 4.94429687 5.76210937 4.6640625 6.60546875 C4.02180647 8.52681695 3.37289852 10.44594939 2.71875 12.36328125 C0.80757619 17.99659131 -0.92393541 23.57793887 -2.26171875 29.375 C-2.92171875 29.375 -3.58171875 29.375 -4.26171875 29.375 C-4.37902344 30.22449219 -4.49632812 31.07398437 -4.6171875 31.94921875 C-6.03668159 39.49404492 -9.02526408 46.86402997 -12.26171875 53.8125 C-14.37104382 58.36285851 -15.86554254 63.09555493 -17.40185547 67.86035156 C-18.54746895 71.37050419 -19.79676426 74.73087781 -21.38671875 78.0625 C-23.83771063 83.26338521 -25.01332732 88.78561112 -26.26171875 94.375 C-26.92171875 94.375 -27.58171875 94.375 -28.26171875 94.375 C-28.59171875 97.015 -28.92171875 99.655 -29.26171875 102.375 C-29.92171875 102.375 -30.58171875 102.375 -31.26171875 102.375 C-31.39835937 102.94992188 -31.535 103.52484375 -31.67578125 104.1171875 C-32.23920908 106.28826275 -32.908853 108.37901485 -33.63671875 110.5 C-34.73841088 113.75185453 -35.74848819 117.01351691 -36.69921875 120.3125 C-37.93600708 124.47550401 -39.4400707 128.45258082 -41.0859375 132.46875 C-42.56657849 136.12854034 -43.98511679 139.80932817 -45.38671875 143.5 C-45.64042236 144.15693848 -45.89412598 144.81387695 -46.15551758 145.49072266 C-47.88326598 150.06038031 -49.14911133 154.61727874 -50.26171875 159.375 C-50.92171875 159.375 -51.58171875 159.375 -52.26171875 159.375 C-52.4009375 159.94476563 -52.54015625 160.51453125 -52.68359375 161.1015625 C-55.33933566 171.54508811 -58.70794205 182.04123826 -63.26171875 191.8125 C-65.67363234 197.01870373 -67.35240153 202.47099893 -69.11328125 207.921875 C-69.80000829 209.98672773 -70.52863801 212.03939686 -71.33984375 214.05859375 C-72.2155536 216.25900028 -72.84060438 218.386018 -73.38671875 220.6875 C-73.81984375 222.5128125 -73.81984375 222.5128125 -74.26171875 224.375 C-74.92171875 224.375 -75.58171875 224.375 -76.26171875 224.375 C-76.59171875 227.015 -76.92171875 229.655 -77.26171875 232.375 C-77.92171875 232.375 -78.58171875 232.375 -79.26171875 232.375 C-79.37902344 233.22449219 -79.49632812 234.07398438 -79.6171875 234.94921875 C-81.03668159 242.49404492 -84.02526408 249.86402997 -87.26171875 256.8125 C-89.67363234 262.01870373 -91.35240153 267.47099893 -93.11328125 272.921875 C-93.80000829 274.98672773 -94.52863801 277.03939686 -95.33984375 279.05859375 C-96.2155536 281.25900028 -96.84060438 283.386018 -97.38671875 285.6875 C-97.67546875 286.904375 -97.96421875 288.12125 -98.26171875 289.375 C-98.92171875 289.375 -99.58171875 289.375 -100.26171875 289.375 C-100.34421875 290.15875 -100.42671875 290.9425 -100.51171875 291.75 C-101.15498466 294.85911856 -101.98166798 297.28619873 -103.19921875 300.1875 C-104.55585487 303.4356467 -105.59132941 306.48288106 -106.26171875 309.9375 C-107.05663359 313.92614348 -108.42780736 317.36972978 -110.1640625 321.0390625 C-112.82068258 326.69265257 -115.12152931 332.47058452 -117.32421875 338.3125 C-117.58009766 338.97701172 -117.83597656 339.64152344 -118.09960938 340.32617188 C-119.84492408 344.95192883 -121.13729575 349.55988716 -122.26171875 354.375 C-122.92171875 354.375 -123.58171875 354.375 -124.26171875 354.375 C-124.59171875 357.015 -124.92171875 359.655 -125.26171875 362.375 C-125.92171875 362.375 -126.58171875 362.375 -127.26171875 362.375 C-127.37902344 363.22449219 -127.49632812 364.07398438 -127.6171875 364.94921875 C-129.03668159 372.49404492 -132.02526408 379.86402997 -135.26171875 386.8125 C-137.67363234 392.01870373 -139.35240153 397.47099893 -141.11328125 402.921875 C-141.80000829 404.98672773 -142.52863801 407.03939686 -143.33984375 409.05859375 C-144.2155536 411.25900028 -144.84060438 413.386018 -145.38671875 415.6875 C-145.67546875 416.904375 -145.96421875 418.12125 -146.26171875 419.375 C-146.92171875 419.375 -147.58171875 419.375 -148.26171875 419.375 C-148.35839844 420.18710937 -148.45507812 420.99921875 -148.5546875 421.8359375 C-149.41433582 426.13892855 -150.92474195 429.94730629 -152.57421875 434 C-154.67890339 439.27375212 -156.70906883 444.52911404 -158.44921875 449.9375 C-159.55152732 453.35700189 -160.75589379 456.61334824 -162.26171875 459.875 C-165.8722921 467.7073855 -168.32563183 475.98529002 -170.26171875 484.375 C-170.92171875 484.375 -171.58171875 484.375 -172.26171875 484.375 C-172.26171875 485.695 -172.26171875 487.015 -172.26171875 488.375 C-172.92171875 488.375 -173.58171875 488.375 -174.26171875 488.375 C-174.36484375 489.53 -174.46796875 490.685 -174.57421875 491.875 C-175.12206988 496.38671519 -176.53920665 500.18105749 -178.26171875 504.375 C-178.92171875 504.375 -179.58171875 504.375 -180.26171875 504.375 C-180.34421875 505.509375 -180.42671875 506.64375 -180.51171875 507.8125 C-181.02461016 511.93730276 -182.3768219 515.15666264 -184.1484375 518.88671875 C-187.36194312 526.06918569 -189.49569822 533.72224438 -191.26171875 541.375 C-191.92171875 541.375 -192.58171875 541.375 -193.26171875 541.375 C-193.26171875 542.695 -193.26171875 544.015 -193.26171875 545.375 C-193.92171875 545.375 -194.58171875 545.375 -195.26171875 545.375 C-195.32230469 545.98988281 -195.38289062 546.60476563 -195.4453125 547.23828125 C-195.52910156 548.04652344 -195.61289062 548.85476563 -195.69921875 549.6875 C-195.82103516 550.88826172 -195.82103516 550.88826172 -195.9453125 552.11328125 C-196.26171875 554.375 -196.26171875 554.375 -197.26171875 557.375 C-197.92171875 557.375 -198.58171875 557.375 -199.26171875 557.375 C-199.37902344 558.22449219 -199.49632812 559.07398438 -199.6171875 559.94921875 C-201.03668159 567.49404492 -204.02526408 574.86402997 -207.26171875 581.8125 C-209.67363234 587.01870373 -211.35240153 592.47099893 -213.11328125 597.921875 C-213.80000829 599.98672773 -214.52863801 602.03939686 -215.33984375 604.05859375 C-216.2155536 606.25900028 -216.84060438 608.386018 -217.38671875 610.6875 C-217.67546875 611.904375 -217.96421875 613.12125 -218.26171875 614.375 C-218.92171875 614.375 -219.58171875 614.375 -220.26171875 614.375 C-220.26171875 615.695 -220.26171875 617.015 -220.26171875 618.375 C-220.92171875 618.375 -221.58171875 618.375 -222.26171875 618.375 C-222.36484375 619.6125 -222.46796875 620.85 -222.57421875 622.125 C-222.99973557 625.6542866 -223.74284467 627.74660966 -226.26171875 630.375 C-229.26171875 626.625 -229.26171875 626.625 -229.26171875 624.375 C-229.8340625 624.08882812 -230.40640625 623.80265625 -230.99609375 623.5078125 C-234.41796875 621.796875 -237.83984375 620.0859375 -241.26171875 618.375 C-241.26171875 617.715 -241.26171875 617.055 -241.26171875 616.375 C-243.24171875 616.045 -245.22171875 615.715 -247.26171875 615.375 C-247.26171875 614.715 -247.26171875 614.055 -247.26171875 613.375 C-249.57171875 613.045 -251.88171875 612.715 -254.26171875 612.375 C-254.26171875 611.715 -254.26171875 611.055 -254.26171875 610.375 C-254.85339844 610.25382813 -255.44507813 610.13265625 -256.0546875 610.0078125 C-260.2997546 609.10755357 -264.28611536 608.17043379 -268.26171875 606.375 C-268.26171875 605.715 -268.26171875 605.055 -268.26171875 604.375 C-270.90171875 604.045 -273.54171875 603.715 -276.26171875 603.375 C-276.26171875 602.715 -276.26171875 602.055 -276.26171875 601.375 C-276.93976563 601.26542969 -277.6178125 601.15585937 -278.31640625 601.04296875 C-286.5033164 599.64824583 -294.20533056 597.68268566 -301.8828125 594.49609375 C-307.26297215 592.32551023 -312.72520695 590.53781355 -318.26171875 588.8125 C-319.18210937 588.52181641 -320.1025 588.23113281 -321.05078125 587.93164062 C-326.37242789 586.25644623 -331.70699802 584.64258523 -337.0703125 583.10571289 C-339.26368634 582.37434392 -341.19942282 581.41177122 -343.26171875 580.375 C-345.69663105 579.72738686 -348.12063457 579.12757859 -350.57421875 578.5625 C-357.52997645 576.90034907 -364.22858152 574.79283963 -370.98828125 572.46875 C-373.53560981 571.61761397 -376.0273734 570.86881708 -378.63671875 570.25 C-382.94216962 569.21075324 -387.08076477 567.82672013 -391.26171875 566.375 C-388.50503987 558.66173101 -382.96529264 553.07857389 -377.26171875 547.375 C-376.34799205 546.11697049 -375.45258039 544.84547138 -374.57421875 543.5625 C-373.42953125 541.9846875 -373.42953125 541.9846875 -372.26171875 540.375 C-371.60171875 540.375 -370.94171875 540.375 -370.26171875 540.375 C-370.00648438 539.81039062 -369.75125 539.24578125 -369.48828125 538.6640625 C-368.10934336 536.09063064 -366.48469017 534.01026783 -364.63671875 531.75 C-363.55970703 530.42355469 -363.55970703 530.42355469 -362.4609375 529.0703125 C-361.73519531 528.18085937 -361.00945312 527.29140625 -360.26171875 526.375 C-355.16818371 520.04698295 -350.12892279 513.67761898 -345.11791992 507.28417969 C-344.67552979 506.71989258 -344.23313965 506.15560547 -343.77734375 505.57421875 C-343.35259766 505.03200684 -342.92785156 504.48979492 -342.49023438 503.93115234 C-341.33794272 502.47155238 -340.16761906 501.02623918 -338.99609375 499.58203125 C-337.24066605 497.50041185 -337.24066605 497.50041185 -336.26171875 495.375 C-335.60171875 495.375 -334.94171875 495.375 -334.26171875 495.375 C-334.00132812 494.80265625 -333.7409375 494.2303125 -333.47265625 493.640625 C-332.16398851 491.19214988 -330.65812013 489.26264049 -328.88671875 487.125 C-326.21904266 483.85905832 -323.63811218 480.55946123 -321.13671875 477.1640625 C-320.59966309 476.43606445 -320.06260742 475.70806641 -319.50927734 474.95800781 C-318.43415951 473.49496754 -317.36409596 472.02819861 -316.29931641 470.55761719 C-315.8047998 469.88633789 -315.3102832 469.21505859 -314.80078125 468.5234375 C-314.35943848 467.91677246 -313.9180957 467.31010742 -313.46337891 466.68505859 C-313.06683105 466.25273926 -312.6702832 465.82041992 -312.26171875 465.375 C-311.60171875 465.375 -310.94171875 465.375 -310.26171875 465.375 C-309.98328125 464.80265625 -309.70484375 464.2303125 -309.41796875 463.640625 C-308.27898083 461.40882434 -307.06235492 459.26629126 -305.76171875 457.125 C-305.33890625 456.41859375 -304.91609375 455.7121875 -304.48046875 454.984375 C-304.07828125 454.45328125 -303.67609375 453.9221875 -303.26171875 453.375 C-302.60171875 453.375 -301.94171875 453.375 -301.26171875 453.375 C-300.99601074 452.80587891 -300.73030273 452.23675781 -300.45654297 451.65039062 C-298.23602245 447.42169198 -295.22361431 443.70567568 -292.38671875 439.875 C-291.76152344 439.02035156 -291.13632812 438.16570312 -290.4921875 437.28515625 C-289.57759766 436.04572266 -289.57759766 436.04572266 -288.64453125 434.78125 C-288.09168457 434.03166016 -287.53883789 433.28207031 -286.96923828 432.50976562 C-285.20122784 430.29937339 -283.26630986 428.36969061 -281.26171875 426.375 C-280.23559926 424.72428604 -279.23863732 423.05529994 -278.26171875 421.375 C-277.42347487 420.09360808 -276.56842094 418.82309732 -275.69921875 417.5625 C-275.28542969 416.95792969 -274.87164062 416.35335938 -274.4453125 415.73046875 C-274.05472656 415.28316406 -273.66414063 414.83585937 -273.26171875 414.375 C-272.60171875 414.375 -271.94171875 414.375 -271.26171875 414.375 C-271.15730469 413.80265625 -271.05289063 413.2303125 -270.9453125 412.640625 C-270.15012376 410.00514232 -268.98270384 408.31468692 -267.32421875 406.125 C-266.79957031 405.41859375 -266.27492188 404.7121875 -265.734375 403.984375 C-265.24839844 403.45328125 -264.76242187 402.9221875 -264.26171875 402.375 C-263.60171875 402.375 -262.94171875 402.375 -262.26171875 402.375 C-262.15730469 401.80265625 -262.05289063 401.2303125 -261.9453125 400.640625 C-261.15012376 398.00514232 -259.98270384 396.31468692 -258.32421875 394.125 C-257.53724609 393.06539063 -257.53724609 393.06539063 -256.734375 391.984375 C-256.24839844 391.45328125 -255.76242187 390.9221875 -255.26171875 390.375 C-254.60171875 390.375 -253.94171875 390.375 -253.26171875 390.375 C-253.0905957 389.49642334 -253.0905957 389.49642334 -252.91601562 388.60009766 C-252.20994713 386.19893784 -251.29535872 384.76243369 -249.79296875 382.7734375 C-249.06013672 381.79117188 -249.06013672 381.79117188 -248.3125 380.7890625 C-247.80074219 380.11617188 -247.28898438 379.44328125 -246.76171875 378.75 C-245.7500886 377.40455739 -244.73961655 376.058243 -243.73046875 374.7109375 C-243.28123047 374.11845215 -242.83199219 373.5259668 -242.36914062 372.91552734 C-241.18560235 371.35522267 -241.18560235 371.35522267 -240.26171875 369.375 C-239.60171875 369.375 -238.94171875 369.375 -238.26171875 369.375 C-237.98328125 368.80265625 -237.70484375 368.2303125 -237.41796875 367.640625 C-236.27898083 365.40882434 -235.06235492 363.26629126 -233.76171875 361.125 C-233.1275 360.06539063 -233.1275 360.06539063 -232.48046875 358.984375 C-232.07828125 358.45328125 -231.67609375 357.9221875 -231.26171875 357.375 C-230.60171875 357.375 -229.94171875 357.375 -229.26171875 357.375 C-229.0905957 356.49642334 -229.0905957 356.49642334 -228.91601562 355.60009766 C-228.20994713 353.19893784 -227.29535872 351.76243369 -225.79296875 349.7734375 C-225.06013672 348.79117188 -225.06013672 348.79117188 -224.3125 347.7890625 C-223.80074219 347.11617188 -223.28898438 346.44328125 -222.76171875 345.75 C-221.7500886 344.40455739 -220.73961655 343.058243 -219.73046875 341.7109375 C-219.28123047 341.11845215 -218.83199219 340.5259668 -218.36914062 339.91552734 C-217.18560235 338.35522267 -217.18560235 338.35522267 -216.26171875 336.375 C-215.60171875 336.375 -214.94171875 336.375 -214.26171875 336.375 C-214.03613281 335.69824219 -213.81054688 335.02148438 -213.578125 334.32421875 C-211.90071855 330.566231 -209.63638043 327.48645859 -207.19921875 324.1875 C-203.97800512 319.93975136 -203.97800512 319.93975136 -201.26171875 315.375 C-200.60171875 315.375 -199.94171875 315.375 -199.26171875 315.375 C-199.17921875 314.818125 -199.09671875 314.26125 -199.01171875 313.6875 C-198.03076492 310.66289237 -196.26076264 308.84712724 -194.26171875 306.375 C-192.94915658 304.47258195 -191.65816139 302.55514184 -190.38671875 300.625 C-189.69578125 299.5834375 -189.00484375 298.541875 -188.29296875 297.46875 C-187.01167665 295.51724357 -185.73953905 293.55966678 -184.48046875 291.59375 C-183.6915625 290.37171875 -183.6915625 290.37171875 -182.88671875 289.125 C-182.42523438 288.39796875 -181.96375 287.6709375 -181.48828125 286.921875 C-181.08351563 286.41140625 -180.67875 285.9009375 -180.26171875 285.375 C-179.60171875 285.375 -178.94171875 285.375 -178.26171875 285.375 C-178.10703125 284.5396875 -178.10703125 284.5396875 -177.94921875 283.6875 C-177.11993467 280.8980899 -175.91872819 278.7610936 -174.26171875 276.375 C-173.60171875 276.375 -172.94171875 276.375 -172.26171875 276.375 C-171.93171875 275.055 -171.60171875 273.735 -171.26171875 272.375 C-170.60171875 272.375 -169.94171875 272.375 -169.26171875 272.375 C-169.00390625 271.66085937 -168.74609375 270.94671875 -168.48046875 270.2109375 C-167.18207959 267.1896858 -165.61669573 264.7140442 -163.76171875 262 C-163.05015625 260.95070313 -162.33859375 259.90140625 -161.60546875 258.8203125 C-161.22519531 258.2624707 -160.84492188 257.70462891 -160.453125 257.12988281 C-158.36826679 254.05898921 -156.3173253 250.96551445 -154.26171875 247.875 C-153.40770162 246.59365032 -152.55353637 245.31239935 -151.69921875 244.03125 C-150.88671875 242.8125 -150.07421875 241.59375 -149.26171875 240.375 C-146.59505208 236.375 -143.92838542 232.375 -141.26171875 228.375 C-140.85920898 227.77123535 -140.45669922 227.1674707 -140.04199219 226.54541016 C-138.08935547 223.61645508 -138.08935547 223.61645508 -136.13671875 220.6875 C-135.70907227 220.04603027 -135.28142578 219.40456055 -134.84082031 218.74365234 C-133.06184896 216.07519531 -131.2828776 213.40673828 -129.50390625 210.73828125 C-128.5433692 209.29747568 -127.58366668 207.85611323 -126.625 206.4140625 C-125.67116668 204.98741209 -124.70956843 203.56593654 -123.7421875 202.1484375 C-120.27531367 197.04028417 -117.17086111 191.81998769 -114.26171875 186.375 C-113.60171875 186.375 -112.94171875 186.375 -112.26171875 186.375 C-111.93171875 184.725 -111.60171875 183.075 -111.26171875 181.375 C-110.60171875 181.375 -109.94171875 181.375 -109.26171875 181.375 C-109.01421875 180.67375 -108.76671875 179.9725 -108.51171875 179.25 C-107.09580675 175.9934024 -105.27166072 173.29855196 -103.26171875 170.375 C-102.72546875 169.42625 -102.18921875 168.4775 -101.63671875 167.5 C-101.18296875 166.79875 -100.72921875 166.0975 -100.26171875 165.375 C-99.60171875 165.375 -98.94171875 165.375 -98.26171875 165.375 C-98.17921875 164.694375 -98.09671875 164.01375 -98.01171875 163.3125 C-97.03839347 159.5003093 -95.3036442 156.73429671 -93.26171875 153.375 C-92.60171875 153.375 -91.94171875 153.375 -91.26171875 153.375 C-91.15988281 152.6428125 -91.05804687 151.910625 -90.953125 151.15625 C-90.18680765 148.0736627 -89.09933927 146.40272297 -87.19921875 143.875 C-80.41890744 134.52428379 -74.65877611 124.57625614 -69.26171875 114.375 C-68.60171875 114.375 -67.94171875 114.375 -67.26171875 114.375 C-67.15730469 113.65957031 -67.05289062 112.94414063 -66.9453125 112.20703125 C-66.18649608 109.06336323 -64.99678169 106.82284227 -63.32421875 104.0625 C-62.79957031 103.17949219 -62.27492188 102.29648438 -61.734375 101.38671875 C-61.00541016 100.39091797 -61.00541016 100.39091797 -60.26171875 99.375 C-59.60171875 99.375 -58.94171875 99.375 -58.26171875 99.375 C-58.19984375 98.715 -58.13796875 98.055 -58.07421875 97.375 C-57.10985266 93.81426366 -55.45571322 91.28695685 -53.41796875 88.2421875 C-52.09999098 86.27416091 -52.09999098 86.27416091 -51.26171875 83.375 C-50.60171875 83.375 -49.94171875 83.375 -49.26171875 83.375 C-48.97296875 82.653125 -48.68421875 81.93125 -48.38671875 81.1875 C-47.34505208 78.58333333 -46.30338542 75.97916667 -45.26171875 73.375 C-44.60171875 73.375 -43.94171875 73.375 -43.26171875 73.375 C-43.26171875 72.385 -43.26171875 71.395 -43.26171875 70.375 C-42.60171875 70.375 -41.94171875 70.375 -41.26171875 70.375 C-40.89046875 68.828125 -40.89046875 68.828125 -40.51171875 67.25 C-39.40973622 63.40836646 -37.54539402 60.67364205 -35.26171875 57.375 C-33.75551647 54.6859609 -32.30381048 51.9703361 -30.84765625 49.25390625 C-29.31308898 46.46825089 -27.68420851 43.76703831 -26.01171875 41.0625 C-23.89583501 37.58957041 -22.30474136 34.33848591 -21.26171875 30.375 C-20.60171875 30.375 -19.94171875 30.375 -19.26171875 30.375 C-18.99488281 29.65570312 -18.72804688 28.93640625 -18.453125 28.1953125 C-17.25123573 25.35018445 -15.82961252 22.8698465 -14.19921875 20.25 C-12.53492473 17.57248052 -11.26181074 15.37527598 -10.26171875 12.375 C-9.60171875 12.375 -8.94171875 12.375 -8.26171875 12.375 C-7.89046875 11.075625 -7.89046875 11.075625 -7.51171875 9.75 C-4.15580994 0.68904621 -4.15580994 0.68904621 0 0 Z " fill="#DADBDB" transform="translate(607.26171875,-0.375)"/>
<path d="M0 0 C0.83958252 -0.00064453 1.67916504 -0.00128906 2.54418945 -0.00195312 C8.5124728 0.04888503 13.95685759 0.66798724 19.75 2.1875 C19.75 2.8475 19.75 3.5075 19.75 4.1875 C22.06 4.5175 24.37 4.8475 26.75 5.1875 C26.75 5.8475 26.75 6.5075 26.75 7.1875 C27.3275 7.47625 27.905 7.765 28.5 8.0625 C31.625 9.625 31.625 9.625 34.75 11.1875 C34.75 11.8475 34.75 12.5075 34.75 13.1875 C35.41 13.1875 36.07 13.1875 36.75 13.1875 C37.08 13.8475 37.41 14.5075 37.75 15.1875 C48.16763388 13.43586244 57.93438872 10.65779843 67.0078125 5.140625 C68.75 4.1875 68.75 4.1875 70.75 4.1875 C70.42 5.8375 70.09 7.4875 69.75 9.1875 C69.09 9.1875 68.43 9.1875 67.75 9.1875 C67.42 11.1675 67.09 13.1475 66.75 15.1875 C66.09 15.1875 65.43 15.1875 64.75 15.1875 C64.52570313 15.90292969 64.30140625 16.61835938 64.0703125 17.35546875 C62.45390489 20.82261526 60.3759455 22.8548601 57.625 25.5 C56.71492187 26.38300781 55.80484375 27.26601562 54.8671875 28.17578125 C53.81917969 29.17158203 53.81917969 29.17158203 52.75 30.1875 C59.15300207 29.76763101 64.32199071 28.43897274 70.26953125 26.02734375 C72.75 25.1875 72.75 25.1875 76.75 25.1875 C74.32442117 30.7535651 69.85055667 34.81182611 65.75 39.1875 C65.02554688 39.96609375 64.30109375 40.7446875 63.5546875 41.546875 C62.53761719 42.60648437 62.53761719 42.60648437 61.5 43.6875 C60.89671875 44.3165625 60.2934375 44.945625 59.671875 45.59375 C57.48989758 47.40319469 55.41654811 48.26800065 52.75 49.1875 C52.79640625 50.18523437 52.8428125 51.18296875 52.890625 52.2109375 C53.18976074 61.98386433 52.37504619 71.33618893 50.875 81 C50.70129883 82.12647949 50.52759766 83.25295898 50.34863281 84.41357422 C49.55055973 89.29421157 48.67646236 93.6179545 46.75 98.1875 C46.33911437 99.78285222 45.96195834 101.38741364 45.625 103 C45.37363281 104.18529297 45.37363281 104.18529297 45.1171875 105.39453125 C44.99601563 105.98621094 44.87484375 106.57789063 44.75 107.1875 C44.09 107.1875 43.43 107.1875 42.75 107.1875 C42.75 108.5075 42.75 109.8275 42.75 111.1875 C42.09 111.1875 41.43 111.1875 40.75 111.1875 C40.66621094 112.17621094 40.58242188 113.16492188 40.49609375 114.18359375 C39.84213407 118.69784226 37.98620984 122.28288789 35.8125 126.25 C35.41353516 126.98879395 35.01457031 127.72758789 34.60351562 128.48876953 C18.2080633 158.16249838 -9.24456802 185.3525069 -42.25 195.4375 C-43.301875 195.73140625 -44.35375 196.0253125 -45.4375 196.328125 C-48.20102747 197.08439325 -48.20102747 197.08439325 -50.421875 198.2890625 C-53.03879879 199.57515753 -55.38248733 199.31784149 -58.25 199.1875 C-58.25 199.8475 -58.25 200.5075 -58.25 201.1875 C-70.27346968 202.78872307 -82.19315783 203.38803291 -94.3125 203.375 C-96.27231812 203.3759668 -96.27231812 203.3759668 -98.27172852 203.37695312 C-105.64971609 203.33552227 -112.91719949 203.01452189 -120.25 202.1875 C-120.25 201.5275 -120.25 200.8675 -120.25 200.1875 C-121.73693359 200.24357422 -121.73693359 200.24357422 -123.25390625 200.30078125 C-127.43217227 200.18233578 -131.17507768 199.44254285 -135.1875 198.375 C-136.23647461 198.10478027 -136.23647461 198.10478027 -137.30664062 197.82910156 C-142.09631669 196.56807315 -146.68158858 195.09100476 -151.25 193.1875 C-151.25 192.5275 -151.25 191.8675 -151.25 191.1875 C-152.549375 191.0328125 -152.549375 191.0328125 -153.875 190.875 C-157.41683123 190.15351586 -160.09312042 188.91626739 -163.25 187.1875 C-163.25 186.5275 -163.25 185.8675 -163.25 185.1875 C-164.013125 185.043125 -164.77625 184.89875 -165.5625 184.75 C-168.25 184.1875 -168.25 184.1875 -171.25 183.1875 C-171.25 182.5275 -171.25 181.8675 -171.25 181.1875 C-170.63705078 181.1781543 -170.02410156 181.16880859 -169.39257812 181.15917969 C-153.70692128 180.86001421 -140.18749942 179.09767871 -125.35546875 173.84765625 C-121.40208231 172.60809724 -117.32444216 171.91052209 -113.25 171.1875 C-113.25 170.5275 -113.25 169.8675 -113.25 169.1875 C-111.1328125 167.6796875 -111.1328125 167.6796875 -108.375 166.0625 C-107.47007812 165.52367187 -106.56515625 164.98484375 -105.6328125 164.4296875 C-103.25 163.1875 -103.25 163.1875 -101.25 163.1875 C-101.25 162.5275 -101.25 161.8675 -101.25 161.1875 C-100.59 160.8575 -99.93 160.5275 -99.25 160.1875 C-100.4875 160.125625 -101.725 160.06375 -103 160 C-116.36455153 158.4498796 -127.80187535 150.64047918 -136.25 140.5 C-140.62563366 134.94198003 -143.06459175 131.29994952 -144.25 124.1875 C-137.98 123.8575 -131.71 123.5275 -125.25 123.1875 C-124.92 122.5275 -124.59 121.8675 -124.25 121.1875 C-125.384375 121.125625 -126.51875 121.06375 -127.6875 121 C-132.89719648 120.38490167 -136.86845986 117.93610504 -141.25 115.1875 C-141.25 114.5275 -141.25 113.8675 -141.25 113.1875 C-141.83652344 112.91550781 -142.42304688 112.64351563 -143.02734375 112.36328125 C-148.25685853 109.59687712 -152.70663621 105.57344685 -155.25 100.1875 C-155.25 99.5275 -155.25 98.8675 -155.25 98.1875 C-155.91 98.1875 -156.57 98.1875 -157.25 98.1875 C-157.745 95.2175 -157.745 95.2175 -158.25 92.1875 C-158.91 92.1875 -159.57 92.1875 -160.25 92.1875 C-163.38902852 85.38627155 -163.58452052 79.62128943 -163.25 72.1875 C-162.72792969 72.39246094 -162.20585937 72.59742188 -161.66796875 72.80859375 C-155.54251368 75.05066049 -149.74617989 75.83537062 -143.25 76.1875 C-143.86488281 75.58421875 -144.47976562 74.9809375 -145.11328125 74.359375 C-145.92152344 73.56015625 -146.72976562 72.7609375 -147.5625 71.9375 C-148.36300781 71.14859375 -149.16351563 70.3596875 -149.98828125 69.546875 C-155.25 64.05796632 -155.25 64.05796632 -155.25 61.1875 C-155.91 61.1875 -156.57 61.1875 -157.25 61.1875 C-157.90474408 59.50343731 -158.54833406 57.81503664 -159.1875 56.125 C-159.54714844 55.18527344 -159.90679687 54.24554688 -160.27734375 53.27734375 C-162.23766649 47.04997313 -162.44298812 40.8441168 -162.4375 34.375 C-162.43814453 33.58689941 -162.43878906 32.79879883 -162.43945312 31.98681641 C-162.38718178 26.21202117 -161.82034942 20.76784883 -160.25 15.1875 C-159.59 15.1875 -158.93 15.1875 -158.25 15.1875 C-157.92 13.5375 -157.59 11.8875 -157.25 10.1875 C-153.87710892 10.7589835 -152.40908441 11.71522288 -150.18359375 14.28515625 C-149.6205957 14.91856934 -149.05759766 15.55198242 -148.47753906 16.20458984 C-147.88682617 16.8795752 -147.29611328 17.55456055 -146.6875 18.25 C-140.64082822 24.96304618 -134.43911089 31.09294456 -126.25 35.1875 C-126.25 35.8475 -126.25 36.5075 -126.25 37.1875 C-125.37988281 37.61482422 -125.37988281 37.61482422 -124.4921875 38.05078125 C-122.41485873 39.10392179 -120.39802273 40.22179833 -118.375 41.375 C-100.23467782 51.61928302 -100.23467782 51.61928302 -80.48046875 57.73046875 C-78.25 58.1875 -78.25 58.1875 -75.171875 59.16796875 C-70.31043389 60.58493987 -65.34010268 60.89324674 -60.3125 61.3125 C-59.34248047 61.39886719 -58.37246094 61.48523438 -57.37304688 61.57421875 C-54.99915989 61.78471119 -52.62491294 61.98897885 -50.25 62.1875 C-50.26571045 61.53789307 -50.2814209 60.88828613 -50.29760742 60.21899414 C-50.36059337 57.22942069 -50.39919021 54.23998751 -50.4375 51.25 C-50.46263672 50.22841797 -50.48777344 49.20683594 -50.51367188 48.15429688 C-50.64789151 34.15071484 -44.67404409 23.37565578 -35.25 13.1875 C-31.75 10.1875 -31.75 10.1875 -29.25 10.1875 C-29.25 9.5275 -29.25 8.8675 -29.25 8.1875 C-27.0465194 7.0314273 -24.83796844 5.88765279 -22.625 4.75 C-22.00753906 4.42451172 -21.39007813 4.09902344 -20.75390625 3.76367188 C-13.85000344 0.23904781 -7.57488437 -0.00598509 0 0 Z " fill="#D1E5F1" transform="translate(290.25,217.8125)"/>
<path d="M0 0 C23.76 0 47.52 0 72 0 C72.495 1.98 72.495 1.98 73 4 C73.66 4 74.32 4 75 4 C76.4088974 5.84037223 77.72840298 7.74971704 79 9.6875 C79.70125 10.74324219 80.4025 11.79898438 81.125 12.88671875 C82.73769598 15.56446603 83.95452347 18.06504244 85 21 C85.66 21 86.32 21 87 21 C88.515625 23.125 88.515625 23.125 90.25 26 C92.40357349 29.48673803 94.56767498 32.87317003 97.0625 36.125 C106 47.7847035 106 47.7847035 106 51 C106.66 51 107.32 51 108 51 C109.515625 53.125 109.515625 53.125 111.25 56 C113.40357349 59.48673803 115.56767498 62.87317003 118.0625 66.125 C127 77.7847035 127 77.7847035 127 81 C127.66 81 128.32 81 129 81 C132 84.46153846 132 84.46153846 132 87 C132.66 87 133.32 87 134 87 C134.268125 86.4225 134.53625 85.845 134.8125 85.25 C136.02929189 82.94449957 137.30333879 80.97943808 139 79 C139.66 79 140.32 79 141 79 C141.309375 78.38125 141.61875 77.7625 141.9375 77.125 C142.625 75.75 143.3125 74.375 144 73 C144.66 73 145.32 73 146 73 C146.4031543 72.11356812 146.4031543 72.11356812 146.81445312 71.20922852 C148.00294882 68.99450496 149.23976757 67.46440923 150.96875 65.65234375 C151.53980469 65.04712891 152.11085938 64.44191406 152.69921875 63.81835938 C153.29347656 63.19767578 153.88773438 62.57699219 154.5 61.9375 C155.67898183 60.69841823 156.85613873 59.45759686 158.03125 58.21484375 C158.55267578 57.66948975 159.07410156 57.12413574 159.61132812 56.56225586 C161.20599134 54.84072536 161.20599134 54.84072536 163 52 C163.66 52 164.32 52 165 52 C165.268125 51.4121875 165.53625 50.824375 165.8125 50.21875 C167.01264238 47.97637872 168.28999645 46.37442696 170 44.5 C172.26499562 41.98227856 174.47616113 39.43897161 176.61328125 36.8125 C177.05994141 36.26529297 177.50660156 35.71808594 177.96679688 35.15429688 C178.85672364 34.06029401 179.74222926 32.96267832 180.62304688 31.86132812 C181.70507449 30.53733528 182.84801932 29.26359856 184 28 C184.66 28 185.32 28 186 28 C186.33 27.01 186.66 26.02 187 25 C187.66 25 188.32 25 189 25 C189.4021875 24.11828125 189.4021875 24.11828125 189.8125 23.21875 C191.01264238 20.97637872 192.28999645 19.37442696 194 17.5 C197.66722322 13.4158714 201.1627902 9.20878956 204.62304688 4.94921875 C207.78161957 1.10919022 207.78161957 1.10919022 210 0 C211.59447464 -0.08400529 213.19240545 -0.10727467 214.7890625 -0.09765625 C215.73007812 -0.09443359 216.67109375 -0.09121094 217.640625 -0.08789062 C218.62546875 -0.07951172 219.6103125 -0.07113281 220.625 -0.0625 C221.61757813 -0.05798828 222.61015625 -0.05347656 223.6328125 -0.04882812 C226.0886016 -0.03702145 228.54427104 -0.020554 231 0 C230.44820068 0.64267822 230.44820068 0.64267822 229.88525391 1.29833984 C226.36914571 5.39654809 222.86475341 9.50433072 219.375 13.625 C218.9109375 14.1715625 218.446875 14.718125 217.96875 15.28125 C215.88699254 17.73937039 213.83540441 20.20730147 211.83203125 22.73046875 C209.72434026 25.34148893 207.37103 27.62897 205 30 C204.67 30.66 204.34 31.32 204 32 C203.34 32 202.68 32 202 32 C201.73960937 32.57878906 201.47921875 33.15757812 201.2109375 33.75390625 C199.91807675 36.15195442 198.45274925 37.92218697 196.625 39.9375 C194.63928505 42.1529671 192.72145456 44.35227805 190.875 46.6875 C188.74477075 49.31478275 186.39189007 51.60810993 184 54 C179.88874709 58.47798439 176.07952518 63.08942467 172.5546875 68.04296875 C170.55210929 70.56380213 168.29134236 72.73850146 166 75 C163.95621054 77.12468093 161.94496303 79.27853033 159.9375 81.4375 C159.1630957 82.25831055 159.1630957 82.25831055 158.37304688 83.09570312 C155.18177236 86.53089671 152.56942698 90.06207387 150 94 C149.113125 94.86625 148.22625 95.7325 147.3125 96.625 C145.008727 98.77944738 145.008727 98.77944738 143.9375 100.9375 C144.03857706 104.27304301 146.10285612 106.35549642 148 109 C148 109.66 148 110.32 148 111 C148.66 111 149.32 111 150 111 C151.515625 113.125 151.515625 113.125 153.25 116 C155.40357349 119.48673803 157.56767498 122.87317003 160.0625 126.125 C169 137.7847035 169 137.7847035 169 141 C169.66 141 170.32 141 171 141 C172.515625 143.125 172.515625 143.125 174.25 146 C176.40357349 149.48673803 178.56767498 152.87317003 181.0625 156.125 C190 167.7847035 190 167.7847035 190 171 C190.66 171 191.32 171 192 171 C193.54630202 173.01198371 194.97223998 175.01627579 196.375 177.125 C196.95507812 177.97964844 196.95507812 177.97964844 197.546875 178.8515625 C198.32193833 179.9959513 199.0924698 181.14342273 199.85839844 182.29394531 C200.62232003 183.43558006 201.39654612 184.57038354 202.18066406 185.69824219 C205 189.7844163 205 189.7844163 205 192 C205.66 192 206.32 192 207 192 C208.4453125 194.01953125 208.4453125 194.01953125 210.125 196.8125 C213.26788743 201.90410887 216.65477589 206.72918567 220.19921875 211.546875 C226 219.44902386 226 219.44902386 226 222 C226.66 222 227.32 222 228 222 C229.62109375 224.265625 229.62109375 224.265625 231.4375 227.25 C233.93749864 231.33995353 233.93749864 231.33995353 236.72265625 235.234375 C238 237 238 237 238 239 C228.88143671 239.2555115 219.76411499 239.4506301 210.64274597 239.56993389 C206.40653575 239.62721341 202.17278353 239.70480835 197.93798828 239.82983398 C193.84639612 239.94986784 189.75715795 240.01522419 185.66394043 240.04364967 C184.10716685 240.06388796 182.55051437 240.10341664 180.99475098 240.16303062 C168.81508197 240.61092669 168.81508197 240.61092669 164.32666016 236.62734985 C162.28477861 233.83677259 160.6331087 231.04291268 159 228 C157.94467198 226.56234972 156.86663423 225.14056951 155.75 223.75 C153.56884889 220.86525176 151.7812773 217.92224358 150.04296875 214.7578125 C148.49341442 212.14620407 146.63731603 209.79918134 144.79296875 207.390625 C142.50822565 204.34430087 140.30832371 201.244524 138.125 198.125 C137.71934814 197.55313965 137.31369629 196.9812793 136.89575195 196.39208984 C134 192.23329054 134 192.23329054 134 190 C133.34 190 132.68 190 132 190 C130.70182307 188.23626997 129.48705117 186.41086049 128.3125 184.5625 C125.76431174 180.63153807 123.1788189 176.84377932 120.25 173.1875 C118.25341621 170.6816296 116.47565586 168.24795763 114.9375 165.4375 C111.59485725 159.50700479 107.2860378 154.27512345 103 149 C99.58875982 150.41154766 98.1543777 152.06221223 96 155 C95.34 155 94.68 155 94 155 C93.60941406 155.86818359 93.60941406 155.86818359 93.2109375 156.75390625 C91.91807675 159.15195442 90.45274925 160.92218697 88.625 162.9375 C86.63928505 165.1529671 84.72145456 167.35227805 82.875 169.6875 C80.74394748 172.31579811 78.39481968 174.60861129 76 177 C68.64455409 184.62074209 68.64455409 184.62074209 62.125 192.9375 C59.9782917 196.03128549 57.67715434 198.35711933 55 201 C52.95612884 203.12460407 50.94496383 205.27852946 48.9375 207.4375 C48.42123047 207.98470703 47.90496094 208.53191406 47.37304688 209.09570312 C44.95230058 211.70147462 42.89236999 214.1652233 40.94140625 217.16015625 C38.90326601 220.14150022 36.83458304 221.79872134 34 224 C32.43441802 225.79527107 30.91392468 227.63071797 29.4375 229.5 C27.9743076 231.34610757 26.49590299 233.1802969 25 235 C24.47019531 235.76828125 23.94039062 236.5365625 23.39453125 237.328125 C19.38773183 240.12569458 14.99614875 239.41431407 10.25 239.25 C9.26644531 239.23195313 8.28289063 239.21390625 7.26953125 239.1953125 C4.84536217 239.14824126 2.42317941 239.08250742 0 239 C8.25 228 8.25 228 10 226 C10.66 226 11.32 226 12 226 C12.268125 225.360625 12.53625 224.72125 12.8125 224.0625 C14 222 14 222 17 221 C17.35669921 219.67272664 17.68680886 218.33820783 18 217 C19.36694336 215.21655273 19.36694336 215.21655273 21.08984375 213.43359375 C21.70923828 212.78326172 22.32863281 212.13292969 22.96679688 211.46289062 C23.61712891 210.79451172 24.26746094 210.12613281 24.9375 209.4375 C26.21926908 208.10461351 27.49928967 206.77004283 28.77734375 205.43359375 C29.34702881 204.84634521 29.91671387 204.25909668 30.50366211 203.65405273 C32.19693578 201.86367561 32.19693578 201.86367561 34 199 C34.66 199 35.32 199 36 199 C36.185625 198.319375 36.37125 197.63875 36.5625 196.9375 C38.24329885 193.50282408 40.32002881 191.51694009 43.05859375 188.8984375 C46.87956359 185.16203641 50.49694204 181.1318124 53.578125 176.76171875 C54.28195312 175.88966797 54.28195312 175.88966797 55 175 C55.66 175 56.32 175 57 175 C57.268125 174.4121875 57.53625 173.824375 57.8125 173.21875 C59.01264238 170.97637872 60.28999645 169.37442696 62 167.5 C64.26499562 164.98227856 66.47616113 162.43897161 68.61328125 159.8125 C69.05994141 159.26529297 69.50660156 158.71808594 69.96679688 158.15429688 C70.85672364 157.06029401 71.74222926 155.96267832 72.62304688 154.86132812 C73.70507449 153.53733528 74.84801932 152.26359856 76 151 C76.66 151 77.32 151 78 151 C78.26167969 150.42121094 78.52335938 149.84242188 78.79296875 149.24609375 C81.93557611 143.3981998 87.26212556 138.59430248 92 134 C88.08932822 125.64267605 82.24241705 118.19829882 76.51953125 111.015625 C75.15355554 109.20368806 74.02493381 107.42441609 72.9375 105.4375 C71.10385548 102.18425973 69.09958449 99.38277012 66.8359375 96.4296875 C61.12649949 88.87379294 55.68957852 81.10937353 50.484375 73.19921875 C46.78120424 67.71267892 42.79263461 62.41842705 38.8515625 57.1015625 C32.95013862 49.09405426 32.95013862 49.09405426 30.875 45.3125 C29.05430407 42.09593719 27.03308123 39.3160161 24.79296875 36.390625 C22.50822565 33.34430087 20.30832371 30.244524 18.125 27.125 C17.71934814 26.55313965 17.31369629 25.9812793 16.89575195 25.39208984 C14 21.23329054 14 21.23329054 14 19 C13.34 19 12.68 19 12 19 C11.67 17.35 11.34 15.7 11 14 C10.34 14 9.68 14 9 14 C7.4921875 12.3203125 7.4921875 12.3203125 5.875 10.125 C5.33617187 9.40570313 4.79734375 8.68640625 4.2421875 7.9453125 C3 6 3 6 3 4 C2.34 4 1.68 4 1 4 C0.67 2.68 0.34 1.36 0 0 Z " fill="#F9F9F9" transform="translate(618,200)"/>
<path d="M0 0 C4.41042515 -0.24902505 8.81703976 -0.42943744 13.23242188 -0.54931641 C14.73054306 -0.5993183 16.22818317 -0.66735482 17.72460938 -0.75439453 C30.07763882 -1.45439953 30.07763882 -1.45439953 34.67578125 2.02441406 C36.7659231 4.58280198 38.41601542 7.10441197 40 10 C40.38414062 10.65145996 40.76828125 11.30291992 41.1640625 11.97412109 C42.12802225 13.63875434 43.06447312 15.31922289 44 17 C45.74934208 19.40264576 47.61693571 21.70132752 49.5 24 C52.72488236 27.93664114 55.51316931 31.78676111 57.95898438 36.25 C59.83197577 39.39859342 62.18273068 42.17128977 64.5 45 C67.72488236 48.93664114 70.51316931 52.78676111 72.95898438 57.25 C74.83197577 60.39859342 77.18273068 63.17128977 79.5 66 C82.72488236 69.93664114 85.51316931 73.78676111 87.95898438 78.25 C89.83197577 81.39859342 92.18273068 84.17128977 94.5 87 C97.72488236 90.93664114 100.51316931 94.78676111 102.95898438 99.25 C104.83197577 102.39859342 107.18273068 105.17128977 109.5 108 C112.72488236 111.93664114 115.51316931 115.78676111 117.95898438 120.25 C119.83197577 123.39859342 122.18273068 126.17128977 124.5 129 C127.72488236 132.93664114 130.51316931 136.78676111 132.95898438 141.25 C134.83197577 144.39859342 137.18273068 147.17128977 139.5 150 C142.72488236 153.93664114 145.51316931 157.78676111 147.95898438 162.25 C149.83197577 165.39859342 152.18273068 168.17128977 154.5 171 C157.72488236 174.93664114 160.51316931 178.78676111 162.95898438 183.25 C164.83197577 186.39859342 167.18273068 189.17128977 169.5 192 C174.17146676 197.70249894 177.69167885 203.3833577 181 210 C170.11 210 159.22 210 148 210 C148 209.01 148 208.02 148 207 C147.34 207 146.68 207 146 207 C144.45640364 204.79784225 143.02552438 202.60322696 141.625 200.3125 C139.44751383 196.78860155 137.31920426 193.39491995 134.7109375 190.16796875 C133 188 133 188 133 186 C132.34 186 131.68 186 131 186 C129.45640364 183.79784225 128.02552438 181.60322696 126.625 179.3125 C124.44751383 175.78860155 122.31920426 172.39491995 119.7109375 169.16796875 C118 167 118 167 118 165 C117.34 165 116.68 165 116 165 C114.45640364 162.79784225 113.02552438 160.60322696 111.625 158.3125 C109.44751383 154.78860155 107.31920426 151.39491995 104.7109375 148.16796875 C103 146 103 146 103 144 C102.34 144 101.68 144 101 144 C99.78514615 142.27578573 98.65181296 140.49365116 97.5625 138.6875 C95.58454311 135.41938549 93.77633919 132.61948387 91 130 C88 125.44444444 88 125.44444444 88 123 C87.34 123 86.68 123 86 123 C84.78514615 121.27578573 83.65181296 119.49365116 82.5625 117.6875 C80.58454311 114.41938549 78.77633919 111.61948387 76 109 C73 104.44444444 73 104.44444444 73 102 C72.34 102 71.68 102 71 102 C69.78514615 100.27578573 68.65181296 98.49365116 67.5625 96.6875 C65.58454311 93.41938549 63.77633919 90.61948387 61 88 C58 83.44444444 58 83.44444444 58 81 C57.34 81 56.68 81 56 81 C54.78514615 79.27578573 53.65181296 77.49365116 52.5625 75.6875 C50.58454311 72.41938549 48.77633919 69.61948387 46 67 C43 62.44444444 43 62.44444444 43 60 C42.34 60 41.68 60 41 60 C39.78514615 58.27578573 38.65181296 56.49365116 37.5625 54.6875 C35.58454311 51.41938549 33.77633919 48.61948387 31 46 C28 41.44444444 28 41.44444444 28 39 C27.34 39 26.68 39 26 39 C24.6328125 37.20703125 24.6328125 37.20703125 23.125 34.8125 C20.91159906 31.37122701 18.56774105 28.18754062 16 25 C15.59394531 24.29488281 15.18789063 23.58976562 14.76953125 22.86328125 C11.92407287 18.25904065 8.52946075 14.06272651 5.20703125 9.79492188 C4.68238281 9.10849609 4.15773438 8.42207031 3.6171875 7.71484375 C3.13878418 7.09730225 2.66038086 6.47976074 2.16748047 5.84350586 C0.93335757 3.89476851 0.42888498 2.25366917 0 0 Z " fill="#1F1D1E" transform="translate(647,215)"/>
<path d="M0 0 C0.495 1.485 0.495 1.485 1 3 C-0.18645614 5.20821143 -1.40550535 7.18852975 -2.8125 9.25 C-3.21976318 9.86407715 -3.62702637 10.4781543 -4.04663086 11.11083984 C-4.91390411 12.41579776 -5.78587441 13.71764416 -6.66210938 15.01660156 C-7.9664613 16.95027949 -9.25857342 18.89153798 -10.546875 20.8359375 C-12.63227943 23.98002348 -14.72833823 27.11680967 -16.82861328 30.25097656 C-19.19569973 33.78532573 -21.5516932 37.32708141 -23.91015625 40.8671875 C-25.49899758 43.24896459 -27.09038223 45.62896156 -28.68359375 48.0078125 C-29.14056641 48.69101562 -29.59753906 49.37421875 -30.06835938 50.078125 C-30.96586145 51.419897 -31.86426705 52.76106518 -32.76367188 54.1015625 C-35.02857817 57.46350767 -35.02857817 57.46350767 -37 61 C-37.66 61 -38.32 61 -39 61 C-39.33 62.32 -39.66 63.64 -40 65 C-40.66 65 -41.32 65 -42 65 C-42.28875 65.7425 -42.5775 66.485 -42.875 67.25 C-43.82302644 69.56739797 -44.84845911 71.77917115 -46 74 C-46.66 74 -47.32 74 -48 74 C-48.26039063 74.72316406 -48.52078125 75.44632812 -48.7890625 76.19140625 C-50.04051825 79.09397619 -51.5248514 81.38041689 -53.375 83.9375 C-55.41455592 86.77256736 -57.4030512 89.59879146 -59.25 92.5625 C-61 95 -61 95 -64 96 C-62.50406958 91.60262212 -60.11364028 88.13378958 -57.375 84.4375 C-53.35610169 78.92375865 -49.51568625 73.33789316 -45.7890625 67.62109375 C-44 65 -44 65 -41.8828125 62.35546875 C-40.03414874 60.04272135 -38.67874522 57.65042592 -37.25 55.06640625 C-35.10972703 51.52826749 -32.58529136 48.26718478 -30.1328125 44.94140625 C-26.597496 40.06577744 -23.31482362 35.02687538 -20 30 C-18.33615309 27.49811754 -16.66798713 24.99912346 -15 22.5 C-14.15617519 21.23442488 -13.31242456 19.96880029 -12.46875 18.703125 C-11.24869792 16.87304687 -10.02864583 15.04296875 -8.80859375 13.21289062 C-8.23818359 12.35727539 -8.23818359 12.35727539 -7.65625 11.484375 C-5.10416667 7.65625 -2.55208333 3.828125 0 0 Z " fill="#24618A" transform="translate(475,211)"/>
<path d="M0 0 C0.66 0 1.32 0 2 0 C0.37940026 3.54506192 -1.72629052 6.59021257 -4 9.75 C-5.051875 11.22726562 -5.051875 11.22726562 -6.125 12.734375 C-6.74375 13.48203125 -7.3625 14.2296875 -8 15 C-8.66 15 -9.32 15 -10 15 C-10.2784375 15.99 -10.2784375 15.99 -10.5625 17 C-12.25861303 20.53971415 -14.46044774 22.9479939 -17.08203125 25.83984375 C-19.57758653 28.65052006 -21.83820941 31.61275512 -24.125 34.59375 C-26.16163597 37.20743283 -28.26245368 39.75983987 -30.375 42.3125 C-34.38225684 47.17454712 -38.15232824 52.17968066 -41.859375 57.2734375 C-47.54463131 64.5148771 -47.54463131 64.5148771 -52 66 C-52 64 -52 64 -49.82421875 61.78515625 C-48.89222656 60.86605469 -47.96023437 59.94695313 -47 59 C-45.20263773 56.86464879 -43.51013511 54.65255656 -41.8125 52.4375 C-38.28487224 47.88833999 -34.70691672 43.40455016 -31 39 C-27.00827699 34.24764945 -23.15085863 29.41030888 -19.33618164 24.51635742 C-15.04808351 19.0277432 -10.65539085 13.62694387 -6.23901367 8.24121094 C-5.7154126 7.60086914 -5.19181152 6.96052734 -4.65234375 6.30078125 C-3.95612915 5.45253784 -3.95612915 5.45253784 -3.24584961 4.5871582 C-2.08928002 3.11373886 -1.03902584 1.55853877 0 0 Z " fill="#21618D" transform="translate(281,480)"/>
<path d="M0 0 C0.495 1.485 0.495 1.485 1 3 C-0.3984375 5.15625 -0.3984375 5.15625 -2.375 7.5 C-4.5596122 10.11109028 -5.91576304 11.74728912 -7 15 C-8.31054623 16.35573748 -9.64748503 17.68612831 -11 19 C-13.00963512 21.37502332 -14.8028254 23.66085969 -16.3671875 26.3515625 C-18.06989907 29.11337697 -19.96351125 31.46518839 -22.0625 33.9375 C-26.24816575 38.9602989 -30.04765929 44.17457466 -33.72485352 49.57983398 C-34.76929054 51.08710576 -35.87916733 52.54863822 -37 54 C-37.66 54 -38.32 54 -39 54 C-39.2475 54.804375 -39.495 55.60875 -39.75 56.4375 C-40.36875 57.7059375 -40.36875 57.7059375 -41 59 C-43.078125 59.66015625 -43.078125 59.66015625 -45 60 C-40.086036 52.19546895 -34.39553945 45.15526232 -28.41796875 38.14453125 C-25.93714992 35.22900701 -23.93143891 32.29954146 -22 29 C-21.16117753 27.71898676 -20.30605155 26.4485457 -19.4375 25.1875 C-18.81681641 24.28064453 -18.81681641 24.28064453 -18.18359375 23.35546875 C-17.79300781 22.90816406 -17.40242188 22.46085937 -17 22 C-16.34 22 -15.68 22 -15 22 C-14.67 20.68 -14.34 19.36 -14 18 C-13.34 18 -12.68 18 -12 18 C-11.67 16.68 -11.34 15.36 -11 14 C-10.34 14 -9.68 14 -9 14 C-8.74476563 13.44828125 -8.48953125 12.8965625 -8.2265625 12.328125 C-6.80697926 9.63362942 -5.13867746 7.23221272 -3.375 4.75 C-2.74335938 3.85796875 -2.11171875 2.9659375 -1.4609375 2.046875 C-0.73777344 1.03367187 -0.73777344 1.03367187 0 0 Z " fill="#20608B" transform="translate(343,399)"/>
<path d="M0 0 C0.66 0 1.32 0 2 0 C0.6243563 3.85041981 -1.16687107 6.8816321 -3.5625 10.1875 C-5.97200639 13.47878323 -5.97200639 13.47878323 -8 17 C-8.66 17 -9.32 17 -10 17 C-10.2371875 17.69996094 -10.474375 18.39992188 -10.71875 19.12109375 C-12.23424555 22.52633832 -14.21134841 25.1236633 -16.5 28.0625 C-20.17451346 32.77062003 -20.17451346 32.77062003 -23 38 C-23.66 38 -24.32 38 -25 38 C-25.226875 38.680625 -25.45375 39.36125 -25.6875 40.0625 C-27.31226146 43.6988709 -29.32803257 47.02829263 -32 50 C-32.66 50 -33.32 50 -34 50 C-34.226875 50.721875 -34.45375 51.44375 -34.6875 52.1875 C-36.24831013 55.53209313 -38.3031287 57.51603959 -41 60 C-40.39640294 56.90102355 -39.42857775 54.91028711 -37.53125 52.3984375 C-37.04269531 51.74359375 -36.55414063 51.08875 -36.05078125 50.4140625 C-35.53902344 49.74117188 -35.02726562 49.06828125 -34.5 48.375 C-33.48836985 47.02955739 -32.4778978 45.683243 -31.46875 44.3359375 C-31.01951172 43.74345215 -30.57027344 43.1509668 -30.10742188 42.54052734 C-28.9238836 40.98022267 -28.9238836 40.98022267 -28 39 C-27.34 39 -26.68 39 -26 39 C-25.59007812 37.89011719 -25.59007812 37.89011719 -25.171875 36.7578125 C-24.06763705 34.15917253 -22.88770243 32.16271835 -21.25 29.875 C-20.33734375 28.59689453 -20.33734375 28.59689453 -19.40625 27.29296875 C-17.46105957 24.61919414 -15.49627758 21.9599991 -13.53125 19.30078125 C-12.91088867 18.46111816 -12.29052734 17.62145508 -11.65136719 16.75634766 C-10.39960353 15.06514873 -9.14511416 13.37596333 -7.88769531 11.68896484 C-5.51196712 8.48805923 -3.21646624 5.3703455 -1.203125 1.92578125 C-0.80609375 1.29027344 -0.4090625 0.65476562 0 0 Z " fill="#23618A" transform="translate(401,319)"/>
<path d="M0 0 C0.66 0.33 1.32 0.66 2 1 C-1.33333333 7.66666667 -4.66666667 14.33333333 -8 21 C-8.66 21 -9.32 21 -10 21 C-10 21.99 -10 22.98 -10 24 C-10.66 24 -11.32 24 -12 24 C-12.103125 24.721875 -12.20625 25.44375 -12.3125 26.1875 C-13.06793947 29.27793421 -14.15531315 31.41743841 -16 34 C-16.66 34 -17.32 34 -18 34 C-17.33136404 30.32684403 -15.73075099 27.61764678 -13.8125 24.4375 C-10.88045803 19.51070817 -8.08161379 14.53519039 -5.35546875 9.4921875 C-3.6187636 6.29905238 -1.81838246 3.14720042 0 0 Z " fill="#2B6790" transform="translate(574,49)"/>
<path d="M0 0 C1 3 1 3 0.0625 5.1875 C-0.288125 5.785625 -0.63875 6.38375 -1 7 C-1.66 7 -2.32 7 -3 7 C-3.33 8.65 -3.66 10.3 -4 12 C-4.66 12 -5.32 12 -6 12 C-6.25007813 12.69351563 -6.50015625 13.38703125 -6.7578125 14.1015625 C-8.18011957 17.420279 -9.95181213 20.31967135 -11.875 23.375 C-14.68282869 27.86536798 -17.41870907 32.37518708 -20 37 C-20.66 37 -21.32 37 -22 37 C-21.45028314 33.15868586 -20.46561577 30.88665803 -18.125 27.8125 C-14.00416242 22.16130988 -10.41879356 16.23607462 -6.82080078 10.24536133 C-6.36946777 9.49665771 -5.91813477 8.7479541 -5.453125 7.9765625 C-5.05254883 7.30705566 -4.65197266 6.63754883 -4.23925781 5.94775391 C-2.92421367 3.88088587 -1.49273803 1.94142543 0 0 Z " fill="#23618A" transform="translate(499,174)"/>
<path d="M0 0 C3.875 1.75 3.875 1.75 5 4 C-5.56 4 -16.12 4 -27 4 C-27 3.34 -27 2.68 -27 2 C-18.09 2 -9.18 2 0 2 C0 1.34 0 0.68 0 0 Z " fill="#110E0F" transform="translate(823,420)"/>
<path d="M0 0 C10.56 0 21.12 0 32 0 C32 0.66 32 1.32 32 2 C22.43 2.33 12.86 2.66 3 3 C2.67 3.66 2.34 4.32 2 5 C1.34 3.35 0.68 1.7 0 0 Z " fill="#373637" transform="translate(647,215)"/>
<path d="M0 0 C0.99 0 1.98 0 3 0 C-0.55097963 8.46772067 -9.61120043 14.92278019 -17 20 C-15.57593775 15.29550863 -13.137622 12.9182827 -9.5 9.6875 C-8.5203125 8.80449219 -7.540625 7.92148437 -6.53125 7.01171875 C-4 5 -4 5 -2 5 C-1.34 3.35 -0.68 1.7 0 0 Z " fill="#256F9F" transform="translate(303,375)"/>
<path d="M0 0 C0.66 0 1.32 0 2 0 C0.66355783 3.59811352 -0.9752784 6.74283916 -3 10 C-3.33 10.66 -3.66 11.32 -4 12 C-4.66 12 -5.32 12 -6 12 C-6.061875 12.721875 -6.12375 13.44375 -6.1875 14.1875 C-7.24456647 17.84657625 -9.20550071 19.49211602 -12 22 C-11.50649937 16.77711835 -8.77838229 13.0410571 -6 8.75 C-5.5359375 8.0178125 -5.071875 7.285625 -4.59375 6.53125 C-1.1932398 1.1932398 -1.1932398 1.1932398 0 0 Z " fill="#2E6A93" transform="translate(603,0)"/>
<path d="M0 0 C1.1055189 0.93590504 2.20935453 1.87379858 3.3125 2.8125 C3.92738281 3.33457031 4.54226562 3.85664063 5.17578125 4.39453125 C6.85424679 5.87172469 8.43882034 7.40039131 10 9 C7.87422093 8.9131724 5.74930419 8.8050049 3.625 8.6875 C2.44164062 8.62949219 1.25828125 8.57148438 0.0390625 8.51171875 C-1.46527344 8.25841797 -1.46527344 8.25841797 -3 8 C-3.66 7.01 -4.32 6.02 -5 5 C-2.69 5 -0.38 5 2 5 C1.34 4.67 0.68 4.34 0 4 C0 2.68 0 1.36 0 0 Z " fill="#2B88C8" transform="translate(139,286)"/>
<path d="M0 0 C0.33 0.99 0.66 1.98 1 3 C-0.50534576 5.35284357 -2.01519152 7.45411944 -3.75 9.625 C-4.20632813 10.223125 -4.66265625 10.82125 -5.1328125 11.4375 C-8.59998406 15.86666135 -8.59998406 15.86666135 -12 17 C-10.25477062 12.94785821 -7.5771843 9.69396039 -4.875 6.25 C-4.40707031 5.64800781 -3.93914062 5.04601562 -3.45703125 4.42578125 C-2.30774993 2.94813384 -1.15428765 1.47373995 0 0 Z " fill="#1F5F8B" transform="translate(295,462)"/>
<path d="M0 0 C1.2077558 3.62326739 0.54311128 4.64146369 -1 8 C-1.66 8 -2.32 8 -3 8 C-3.2475 8.680625 -3.495 9.36125 -3.75 10.0625 C-5.24197908 13.56865083 -7.06835511 16.71620368 -9 20 C-9.66796875 18.3046875 -9.66796875 18.3046875 -10 16 C-8.92578125 13.6328125 -8.92578125 13.6328125 -7.3125 11.125 C-6.48298828 9.81789063 -6.48298828 9.81789063 -5.63671875 8.484375 C-5.09660156 7.66453125 -4.55648437 6.8446875 -4 6 C-3.57332031 5.34515625 -3.14664063 4.6903125 -2.70703125 4.015625 C-1.81826165 2.6680321 -0.91156112 1.33228164 0 0 Z " fill="#20608B" transform="translate(550,91)"/>
<path d="M0 0 C5.49346022 1.11835544 10.1812346 4.12612049 14.0625 8.125 C14.371875 8.74375 14.68125 9.3625 15 10 C14.67 10.99 14.34 11.98 14 13 C13.7525 12.38125 13.505 11.7625 13.25 11.125 C11.75375691 8.58138675 10.68927323 8.1073478 8 7 C6 6 6 6 4 5 C4 4.34 4 3.68 4 3 C2.68 2.67 1.36 2.34 0 2 C0 1.34 0 0.68 0 0 Z " fill="#2E4654" transform="translate(366,618)"/>
<path d="M0 0 C0.33 0.66 0.66 1.32 1 2 C0.67 2.99 0.34 3.98 0 5 C0.66 5.33 1.32 5.66 2 6 C2 6.66 2 7.32 2 8 C-1.47325181 9.1577506 -4.36067448 9.06866652 -8 9 C-7.04270084 7.87411986 -6.08412105 6.7493285 -5.125 5.625 C-4.59132813 4.99851563 -4.05765625 4.37203125 -3.5078125 3.7265625 C-2.38567993 2.44163349 -1.20628025 1.20628025 0 0 Z " fill="#317DAD" transform="translate(350,240)"/>
<path d="M0 0 C1 3 1 3 0.3984375 4.76171875 C0.06070313 5.39722656 -0.27703125 6.03273438 -0.625 6.6875 C-0.99367188 7.38230469 -1.36234375 8.07710937 -1.7421875 8.79296875 C-3.72079498 12.26474895 -5.82498194 15.64833283 -8 19 C-9 16 -9 16 -7.890625 13.4765625 C-7.34921875 12.53554688 -6.8078125 11.59453125 -6.25 10.625 C-5.45335937 9.22121094 -5.45335937 9.22121094 -4.640625 7.7890625 C-3.10812274 5.18380866 -1.56200643 2.58766125 0 0 Z " fill="#286690" transform="translate(585,30)"/>
<path d="M0 0 C0.6875 1.6875 0.6875 1.6875 1 4 C-0.3125 6.75 -0.3125 6.75 -2 9 C-2.66 9 -3.32 9 -4 9 C-3.46930939 5.17902761 -2.50298434 2.93828597 0 0 Z M-6 9 C-5.34 9.33 -4.68 9.66 -4 10 C-5.32 12.97 -6.64 15.94 -8 19 C-8.99 18.67 -9.98 18.34 -11 18 C-9.35 15.03 -7.7 12.06 -6 9 Z " fill="#ADB7BE" transform="translate(520,144)"/>
<path d="M0 0 C4.04704581 0.72404774 7.89070402 1.83446287 11.8125 3.0625 C13.55466797 3.60583984 13.55466797 3.60583984 15.33203125 4.16015625 C16.65267578 4.57587891 16.65267578 4.57587891 18 5 C17.01 5.66 16.02 6.32 15 7 C12.32043601 6.32644839 9.88886074 5.57760397 7.3125 4.625 C6.61060547 4.3775 5.90871094 4.13 5.18554688 3.875 C3.45272855 3.26203025 1.72576088 2.63256672 0 2 C0 1.34 0 0.68 0 0 Z " fill="#1B4B67" transform="translate(296,591)"/>
<path d="M0 0 C1.32 0 2.64 0 4 0 C4 0.66 4 1.32 4 2 C2.25531628 2.70088156 0.50398839 3.38524009 -1.25 4.0625 C-2.22453125 4.44535156 -3.1990625 4.82820312 -4.203125 5.22265625 C-7.04007395 6.01113787 -8.29409552 6.02437812 -11 5 C-10.67 4.34 -10.34 3.68 -10 3 C-7.96875 2.40234375 -7.96875 2.40234375 -5.5 1.9375 C-2.46226779 1.54135157 -2.46226779 1.54135157 0 0 Z " fill="#2076AA" transform="translate(345,226)"/>
<path d="M0 0 C1.25901921 3.77705763 0.54474507 4.64019028 -1.1875 8.125 C-1.61417969 9.01445312 -2.04085938 9.90390625 -2.48046875 10.8203125 C-4 13 -4 13 -6.17578125 13.8046875 C-7.07876953 13.90136719 -7.07876953 13.90136719 -8 14 C-5.40358635 9.28951041 -2.81136668 4.58696668 0 0 Z " fill="#AEB6BC" transform="translate(493,186)"/>
<path d="M0 0 C3.3 0 6.6 0 10 0 C9.67 0.66 9.34 1.32 9 2 C8.34 2 7.68 2 7 2 C7 2.66 7 3.32 7 4 C5.35 4.33 3.7 4.66 2 5 C1.34 3.35 0.68 1.7 0 0 Z " fill="#1777B5" transform="translate(182,377)"/>
<path d="M0 0 C0.33 1.32 0.66 2.64 1 4 C0.34 4 -0.32 4 -1 4 C-0.67 4.99 -0.34 5.98 0 7 C-1.8125 9.5 -1.8125 9.5 -4 12 C-4.66 12.99 -5.32 13.98 -6 15 C-5.17688553 9.73206741 -3.83775737 3.83775737 0 0 Z " fill="#353636" transform="translate(568,128)"/>
<path d="M0 0 C3.89086767 0.57642484 6.20617303 2.28168187 9 5 C9.8125 7.75 9.8125 7.75 10 10 C2.51708428 3.84965831 2.51708428 3.84965831 0 0 Z " fill="#368ECB" transform="translate(143,236)"/>
<path d="M0 0 C8.25 0.33 16.5 0.66 25 1 C25 1.33 25 1.66 25 2 C17.08 2.33 9.16 2.66 1 3 C0.67 2.01 0.34 1.02 0 0 Z " fill="#378DC5" transform="translate(117,397)"/>
<path d="M0 0 C0.8125 1.625 0.8125 1.625 1 4 C-0.5954349 6.05727132 -2.26526288 8.05874656 -4 10 C-4.33 10.99 -4.66 11.98 -5 13 C-5.99 12.67 -6.98 12.34 -8 12 C-7.05208333 10.578125 -6.10416667 9.15625 -5.15625 7.734375 C-4.7746875 7.16203125 -4.393125 6.5896875 -4 6 C-2 3 -2 3 0 0 Z " fill="#C2C4C5" transform="translate(481,206)"/>
<path d="M0 0 C2 3 2 3 1.7578125 5.04296875 C1.171875 7.02864583 0.5859375 9.01432292 0 11 C-0.66 11 -1.32 11 -2 11 C-2.33 13.64 -2.66 16.28 -3 19 C-3.91222891 15.92122743 -4.32903218 13.20806377 -4 10 C-3.525625 9.54625 -3.05125 9.0925 -2.5625 8.625 C-0.14743461 6.11333199 -0.31735658 3.36397973 0 0 Z " fill="#ADAEAF" transform="translate(485,343)"/>
<path d="M0 0 C1 3 1 3 0.07421875 5.04296875 C-0.61220703 6.10451172 -0.61220703 6.10451172 -1.3125 7.1875 C-1.76238281 7.90292969 -2.21226562 8.61835938 -2.67578125 9.35546875 C-3.11277344 9.89816406 -3.54976562 10.44085938 -4 11 C-4.66 11 -5.32 11 -6 11 C-4.54955729 6.89041233 -2.48889248 3.56741255 0 0 Z " fill="#2A658E" transform="translate(525,133)"/>
<path d="M0 0 C1 3 1 3 0.00390625 5.26171875 C-0.47175781 6.06222656 -0.94742188 6.86273438 -1.4375 7.6875 C-2.14712891 8.89986328 -2.14712891 8.89986328 -2.87109375 10.13671875 C-3.24363281 10.75160156 -3.61617187 11.36648437 -4 12 C-4.66 12 -5.32 12 -6 12 C-5.36934243 8.78147169 -4.21979305 6.49198931 -2.4375 3.75 C-1.98246094 3.04359375 -1.52742187 2.3371875 -1.05859375 1.609375 C-0.53458984 0.81273438 -0.53458984 0.81273438 0 0 Z " fill="#1E5E8A" transform="translate(538,111)"/>
<path d="M0 0 C0.66 0 1.32 0 2 0 C1.67 2.97 1.34 5.94 1 9 C-0.32 9.33 -1.64 9.66 -3 10 C-2.67 8.02 -2.34 6.04 -2 4 C-1.34 4 -0.68 4 0 4 C0 2.68 0 1.36 0 0 Z " fill="#303233" transform="translate(387,614)"/>
<path d="M0 0 C4.33034194 3.84919283 6.6560756 7.72289646 9 13 C8.34 13 7.68 13 7 13 C2.9353721 8.8337564 1.24503167 5.65923484 0 0 Z " fill="#333031" transform="translate(742,304)"/>
<path d="M0 0 C4.33034194 3.84919283 6.6560756 7.72289646 9 13 C8.34 13 7.68 13 7 13 C2.9353721 8.8337564 1.24503167 5.65923484 0 0 Z " fill="#323031" transform="translate(727,283)"/>
<path d="M0 0 C6.625 -0.125 6.625 -0.125 10 1 C9.67 1.99 9.34 2.98 9 4 C5.85262818 3.30058404 2.97411124 2.23921302 0 1 C0 0.67 0 0.34 0 0 Z " fill="#316A91" transform="translate(226,570)"/>
<path d="M0 0 C0.99 0.33 1.98 0.66 3 1 C2.38125 1.7425 1.7625 2.485 1.125 3.25 C-0.60437281 5.48801188 -1.86106661 7.43739987 -3 10 C-3.66 9.01 -4.32 8.02 -5 7 C-4.34 6.01 -3.68 5.02 -3 4 C-2.34 4 -1.68 4 -1 4 C-0.67 2.68 -0.34 1.36 0 0 Z " fill="#27658E" transform="translate(329,417)"/>
<path d="M0 0 C0.66 0 1.32 0 2 0 C2 1.98 2 3.96 2 6 C1.01 6.495 1.01 6.495 0 7 C-0.33 7.99 -0.66 8.98 -1 10 C-1.66 10 -2.32 10 -3 10 C-2.67 8.02 -2.34 6.04 -2 4 C-1.34 4 -0.68 4 0 4 C0 2.68 0 1.36 0 0 Z " fill="#303233" transform="translate(414,541)"/>
<path d="M0 0 C0.99 0.33 1.98 0.66 3 1 C0.69 3.97 -1.62 6.94 -4 10 C-5 6 -5 6 -4.00390625 4.296875 C-2.66927083 2.86458333 -1.33463542 1.43229167 0 0 Z " fill="#296791" transform="translate(261,505)"/>
<path d="M0 0 C-1.75 3.875 -1.75 3.875 -4 5 C-4 4.34 -4 3.68 -4 3 C-5.65 3 -7.3 3 -9 3 C-8 1 -8 1 -6.1875 0.375 C-4 0 -4 0 0 0 Z " fill="#B5D0E1" transform="translate(367,243)"/>
<path d="M0 0 C-1 2 -2 4 -3 6 C-3.66 6 -4.32 6 -5 6 C-5 6.99 -5 7.98 -5 9 C-5.66 9 -6.32 9 -7 9 C-6.53149863 4.78348764 -4.94559315 0 0 0 Z " fill="#226490" transform="translate(220,558)"/>
<path d="M0 0 C0.66 0.33 1.32 0.66 2 1 C1.34 2.98 0.68 4.96 0 7 C-0.66 7 -1.32 7 -2 7 C-2 5.35 -2 3.7 -2 2 C-1.34 2 -0.68 2 0 2 C0 1.34 0 0.68 0 0 Z M-3 7 C-2.67 7 -2.34 7 -2 7 C-2 8.65 -2 10.3 -2 12 C-2.33 12 -2.66 12 -3 12 C-3 10.35 -3 8.7 -3 7 Z " fill="#0E0F0F" transform="translate(395,596)"/>
<path d="M0 0 C0.66 0 1.32 0 2 0 C4.1875 2.3125 4.1875 2.3125 6 5 C5.67 5.99 5.34 6.98 5 8 C2.5 5.6875 2.5 5.6875 0 3 C0 2.01 0 1.02 0 0 Z " fill="#BEDBED" transform="translate(156,358)"/>
<path d="M0 0 C0.99 0.33 1.98 0.66 3 1 C-0.625 6.875 -0.625 6.875 -4 8 C-2.87548273 5.0280615 -1.77706209 2.66559313 0 0 Z " fill="#EAEFF3" transform="translate(375,359)"/>
<path d="M0 0 C1 3 1 3 0.0625 5.1875 C-0.4634375 6.0846875 -0.4634375 6.0846875 -1 7 C-1.66 7 -2.32 7 -3 7 C-3.33 7.99 -3.66 8.98 -4 10 C-4.66 10 -5.32 10 -6 10 C-4.34832443 6.4213696 -2.21713508 3.25179812 0 0 Z " fill="#1F5E88" transform="translate(409,308)"/>
<path d="M0 0 C0.33 0 0.66 0 1 0 C1.17835515 4.54805635 0.99785435 7.8794254 -1 12 C-1.33 12 -1.66 12 -2 12 C-2 9.69 -2 7.38 -2 5 C-1.34 5 -0.68 5 0 5 C0 3.35 0 1.7 0 0 Z " fill="#1D6C9D" transform="translate(341,300)"/>
<path d="M0 0 C0.98120464 3.05263664 0.98120464 4.94736336 0 8 C-0.66 8 -1.32 8 -2 8 C-2.33 8.99 -2.66 9.98 -3 11 C-2.25 3.375 -2.25 3.375 0 0 Z " fill="#E3E4E4" transform="translate(501,301)"/>
<path d="M0 0 C2.64 0.33 5.28 0.66 8 1 C7.67 1.66 7.34 2.32 7 3 C3.9375 3.625 3.9375 3.625 1 4 C0.67 2.68 0.34 1.36 0 0 Z " fill="#3181B3" transform="translate(327,230)"/>
<path d="M0 0 C0.98726527 2.66561622 1.0275526 3.90126985 0.25 6.6875 C-1 9 -1 9 -4 10 C-2.8905928 6.51329166 -1.73662334 3.22515763 0 0 Z " fill="#20608C" transform="translate(568,59)"/>
<path d="M0 0 C0.66 0.33 1.32 0.66 2 1 C1.74337755 2.44010481 1.46909179 3.8770687 1.1875 5.3125 C1.03667969 6.11300781 0.88585937 6.91351563 0.73046875 7.73828125 C-0.07572236 10.23445587 -1.02052002 11.32422106 -3 13 C-2.17812739 8.61667943 -1.09845718 4.32059823 0 0 Z " fill="#535657" transform="translate(427,504)"/>
<path d="M0 0 C1.98 0.99 1.98 0.99 4 2 C4 2.66 4 3.32 4 4 C4.99 4.33 5.98 4.66 7 5 C6.67 5.66 6.34 6.32 6 7 C5.01 6.67 4.02 6.34 3 6 C3 5.34 3 4.68 3 4 C2.34 4 1.68 4 1 4 C0.67 2.68 0.34 1.36 0 0 Z " fill="#2E8BC8" transform="translate(138,323)"/>
<path d="M0 0 C3.73487777 0.4979837 5.81237635 0.87491756 9 3 C6.21176345 4.0326802 5.1322726 4.04509293 2.25 3.0625 C1.5075 2.711875 0.765 2.36125 0 2 C0 1.34 0 0.68 0 0 Z " fill="#1D587E" transform="translate(248,576)"/>
<path d="M0 0 C-2.6465335 2.6465335 -5.56221264 3.59941997 -9 5 C-9 4.01 -9 3.02 -9 2 C-5.5647952 -0.29013653 -4.014669 -0.17842973 0 0 Z " fill="#2E7DAE" transform="translate(358,223)"/>
<path d="M0 0 C0 0.99 0 1.98 0 3 C-2.5 4.6875 -2.5 4.6875 -5 6 C-4.75 4.125 -4.75 4.125 -4 2 C-1.9375 0.75 -1.9375 0.75 0 0 Z " fill="#2474A5" transform="translate(358,256)"/>
<path d="M0 0 C0.33 0 0.66 0 1 0 C1.125 2.375 1.125 2.375 1 5 C0.34 5.66 -0.32 6.32 -1 7 C-1.99 6.67 -2.98 6.34 -4 6 C-2.69593116 3.98079663 -1.36176581 1.98075027 0 0 Z " fill="#BEC4C8" transform="translate(462,234)"/>
<path d="M0 0 C1.875 0.3125 1.875 0.3125 4 1 C4.66 1.99 5.32 2.98 6 4 C3.69 4 1.38 4 -1 4 C-0.67 2.68 -0.34 1.36 0 0 Z " fill="#B9DAEF" transform="translate(133,228)"/>
<path d="M0 0 C0.66 0 1.32 0 2 0 C0.125 4.75 0.125 4.75 -1 7 C-1.66 7 -2.32 7 -3 7 C-2.25 2.25 -2.25 2.25 0 0 Z " fill="#356C91" transform="translate(480,204)"/>
<path d="M0 0 C0.33 0.99 0.66 1.98 1 3 C0.34 3.66 -0.32 4.32 -1 5 C-1.33 5.99 -1.66 6.98 -2 8 C-2.99 7.67 -3.98 7.34 -5 7 C-1.125 1.125 -1.125 1.125 0 0 Z " fill="#B2B9BE" transform="translate(505,169)"/>
</svg>
