<?xml version="1.0" standalone="no"?>
<!DOCTYPE svg PUBLIC "-//W3C//DTD SVG 20010904//EN"
 "http://www.w3.org/TR/2001/REC-SVG-20010904/DTD/svg10.dtd">
<svg version="1.0" xmlns="http://www.w3.org/2000/svg"
 width="512.000000pt" height="512.000000pt" viewBox="0 0 512.000000 512.000000"
 preserveAspectRatio="xMidYMid meet">

<g transform="translate(0.000000,512.000000) scale(0.100000,-0.100000)"
fill="#000000" stroke="none">
<path d="M2330 5110 c-890 -86 -1671 -622 -2060 -1415 -161 -327 -236 -606
-262 -973 -24 -335 30 -719 147 -1038 51 -141 183 -402 263 -522 253 -380 599
-690 991 -886 556 -280 1189 -347 1792 -192 429 110 811 325 1136 640 463 446
729 1022 775 1673 24 336 -30 722 -147 1039 -53 144 -183 403 -264 524 -105
158 -225 301 -364 437 -385 374 -869 614 -1402 694 -151 23 -462 32 -605 19z
m511 -1620 c300 -12 565 -35 639 -56 135 -39 262 -143 294 -241 36 -112 66
-404 66 -638 0 -282 -39 -593 -84 -670 -52 -88 -160 -166 -276 -199 -91 -25
-384 -49 -755 -61 -327 -10 -961 25 -1085 61 -117 34 -224 111 -275 199 -46
79 -85 386 -85 675 0 289 39 596 85 675 50 87 156 164 274 199 90 27 515 58
876 64 44 1 191 -3 326 -8z"/>
<path d="M2260 2560 c0 -264 2 -480 5 -480 10 0 775 473 775 480 0 7 -765 480
-775 480 -3 0 -5 -216 -5 -480z"/>
</g>
</svg>
