<?xml version="1.0" standalone="no"?>
<!DOCTYPE svg PUBLIC "-//W3C//DTD SVG 20010904//EN"
 "http://www.w3.org/TR/2001/REC-SVG-20010904/DTD/svg10.dtd">
<svg version="1.0" xmlns="http://www.w3.org/2000/svg"
 width="722.000000pt" height="647.000000pt" viewBox="0 0 722.000000 647.000000"
 preserveAspectRatio="xMidYMid meet">

<g transform="translate(0.000000,647.000000) scale(0.100000,-0.100000)"
fill="#000000" stroke="none">
<path d="M0 3235 l0 -3235 3610 0 3610 0 0 3235 0 3235 -3610 0 -3610 0 0
-3235z m3599 2300 c31 -30 -19 -66 -132 -97 -44 -11 -50 -11 -92 12 -25 14
-45 28 -45 31 0 14 62 59 88 65 15 3 32 7 37 10 21 8 131 -8 144 -21z m743
-112 c58 -30 77 -46 91 -76 24 -48 16 -82 -26 -107 -39 -24 -76 -25 -147 -4
-91 27 -156 111 -122 160 14 21 87 64 109 64 12 0 55 -17 95 -37z m-417 -42
c91 -45 120 -104 72 -149 -30 -28 -75 -46 -169 -66 -76 -17 -79 -17 -155 5
-189 53 -246 104 -192 173 46 59 109 76 261 72 109 -3 123 -6 183 -35z m-595
-26 c32 -29 24 -55 -38 -117 -33 -32 -54 -58 -48 -58 72 0 293 -24 336 -36
122 -35 206 -100 258 -199 24 -45 27 -61 27 -155 0 -99 -2 -109 -34 -175 -45
-93 -169 -217 -261 -262 -118 -57 -187 -75 -305 -80 -127 -6 -204 9 -298 60
-78 41 -134 97 -164 165 -21 46 -27 78 -31 165 -2 59 -8 107 -12 107 -4 0 -13
-7 -21 -16 -7 -8 -30 -24 -50 -35 -97 -49 -162 2 -139 108 22 94 86 182 163
223 39 21 48 22 74 11 35 -14 53 -47 53 -96 0 -19 3 -35 6 -35 6 0 234 181
234 185 0 1 -26 2 -57 1 -122 -2 -150 50 -71 131 48 49 158 108 228 123 62 12
127 6 150 -15z m-450 -85 c0 -11 -16 -35 -36 -52 -54 -48 -122 -98 -132 -98
-11 0 -32 45 -32 69 0 25 21 41 94 73 76 33 106 35 106 8z m1327 -131 c77 -28
182 -131 206 -203 57 -166 -27 -289 -198 -289 -154 -1 -290 128 -302 287 -14
169 126 266 294 205z m-1743 -368 c23 -25 14 -75 -25 -135 -33 -53 -69 -68
-99 -41 -38 34 -16 121 42 170 35 30 59 32 82 6z m237 -213 c29 -23 57 -60 90
-120 26 -49 43 -90 38 -94 -5 -3 -9 -17 -9 -32 -1 -43 -36 -109 -67 -125 -101
-52 -189 -9 -259 126 -25 47 -29 121 -10 171 40 105 134 137 217 74z m1460
-39 c108 -54 124 -171 43 -306 -80 -133 -201 -215 -344 -233 -172 -21 -265 41
-262 174 2 146 95 271 259 348 107 51 226 57 304 17z m543 -84 c160 -77 55
-324 -155 -366 -128 -26 -247 66 -224 174 21 95 98 173 205 208 39 13 131 5
174 -16z m-1423 -214 c155 -53 213 -118 194 -217 -8 -46 -59 -102 -112 -125
-61 -26 -193 -41 -251 -29 -198 43 -282 106 -282 211 0 112 111 177 306 178
64 1 107 -4 145 -18z m-744 -78 c29 -13 43 -31 71 -91 l35 -74 -24 -45 c-28
-53 -50 -67 -89 -58 -66 14 -120 90 -122 170 0 34 6 53 26 80 30 39 51 43 103
18z m998 -344 c85 -16 134 -43 151 -86 18 -43 13 -71 -22 -113 -31 -36 -64
-54 -153 -85 l-66 -22 -68 19 c-124 34 -157 62 -157 134 0 52 26 87 91 119 84
43 134 51 224 34z m-147 -766 l3 -102 -78 -3 -78 -3 -3 -57 -3 -58 81 0 81 0
-3 -102 -3 -103 -77 -3 -78 -3 0 -504 0 -505 -105 0 -105 0 0 688 c0 776 -4
733 80 804 53 46 93 57 200 55 l85 -2 3 -102z m2310 -542 l2 -645 22 -23 c17
-18 32 -23 70 -23 l48 0 0 -106 0 -107 -78 5 c-121 7 -198 56 -255 162 -22 41
-22 42 -25 714 l-3 673 108 -3 108 -3 3 -644z m-350 482 l3 -103 -106 0 -105
0 0 98 c0 54 3 102 7 106 4 4 50 5 103 4 l95 -3 3 -102z m-950 -138 c2 -17 11
-20 55 -21 30 0 72 -9 99 -21 l47 -21 62 25 c51 20 72 24 112 19 98 -13 166
-59 210 -141 22 -39 22 -49 25 -562 l3 -523 -106 0 -105 0 0 490 c0 477 -1
491 -20 510 -23 23 -30 24 -53 8 -15 -12 -17 -57 -19 -508 l-3 -495 -105 0
-105 0 -3 489 c-2 438 -4 492 -19 508 -18 20 -31 22 -53 8 -13 -8 -16 -80 -20
-512 l-5 -503 -105 0 -105 0 -3 625 c-1 344 0 631 3 638 3 9 31 12 107 10 94
-3 103 -5 106 -23z m-3501 -47 c58 -27 111 -82 142 -147 l26 -56 0 -385 c0
-383 0 -385 -24 -437 -13 -29 -43 -71 -68 -94 -65 -59 -114 -79 -204 -79 -92
0 -159 29 -218 96 -70 79 -71 89 -71 523 0 366 1 388 21 431 67 149 249 217
396 148z m3009 4 c56 -28 103 -77 128 -132 20 -43 21 -62 24 -558 l3 -514
-173 4 c-155 3 -177 5 -214 25 -66 35 -101 70 -129 127 -26 53 -26 56 -23 243
3 188 3 190 31 231 44 67 96 94 205 106 l92 10 0 110 c0 134 -10 160 -62 164
-54 5 -68 -21 -68 -130 l0 -88 -105 0 -105 0 0 98 c0 53 5 115 11 136 24 85
84 148 176 182 53 20 157 13 209 -14z m1444 -587 l0 -616 -102 3 -103 3 -3
600 c-1 330 0 606 3 613 3 8 34 12 105 12 l100 0 0 -615z m720 593 c6 -13 42
-156 80 -318 78 -326 80 -333 86 -327 2 2 38 145 80 318 41 173 77 322 80 332
5 15 19 17 115 17 91 0 109 -3 109 -15 0 -40 -321 -1337 -340 -1374 -52 -104
-157 -179 -261 -188 l-60 -6 3 103 3 103 39 14 c80 27 110 77 109 178 -1 53
-34 204 -136 620 -74 303 -133 553 -130 558 2 4 51 7 109 7 99 0 105 -1 114
-22z m-4010 -10 c0 -22 4 -23 83 -23 70 0 91 -5 139 -28 102 -50 148 -132 148
-264 l0 -73 -104 0 -104 0 -4 66 c-5 80 -21 96 -88 92 -36 -2 -47 -8 -57 -28
-10 -19 -13 -135 -13 -482 l0 -458 -112 0 -111 0 6 362 c4 199 7 473 7 610 l0
248 105 0 c102 0 105 -1 105 -22z m-650 -473 c0 -469 1 -485 19 -495 27 -14
37 -13 55 6 14 14 16 72 16 495 l0 479 110 0 110 0 -2 -617 -3 -618 -107 -3
c-103 -3 -108 -2 -108 18 0 16 -6 20 -36 20 -104 0 -196 56 -240 147 l-29 58
-3 484 c-2 266 -1 490 2 498 4 10 32 13 111 13 l105 0 0 -485z m5218 -1327
l-3 -43 -3072 -3 -3073 -2 0 45 0 45 3076 0 3075 0 -3 -42z"/>
<path d="M719 2581 l-24 -19 -3 -339 c-2 -186 0 -348 3 -361 15 -61 86 -82
130 -37 l25 24 0 349 c0 338 -1 350 -21 376 -25 32 -75 35 -110 7z"/>
<path d="M3737 2114 c-4 -4 -7 -69 -7 -144 0 -120 2 -139 18 -153 25 -22 65
-21 86 2 14 16 16 38 14 157 l-3 139 -50 3 c-28 2 -54 0 -58 -4z"/>
</g>
</svg>
