<?xml version="1.0" encoding="UTF-8"?>
<svg version="1.1" xmlns="http://www.w3.org/2000/svg" width="512" height="512">
<path d="M0 0 C0.92329102 0.1556543 1.84658203 0.31130859 2.79785156 0.47167969 C45.33389777 7.65420721 86.95928309 26.17890555 120 54 C120.52271484 54.43393066 121.04542969 54.86786133 121.58398438 55.31494141 C133.92823131 65.57248981 145.10275756 76.32520107 155 89 C155.77730469 89.96035156 156.55460937 90.92070313 157.35546875 91.91015625 C164.6777722 101.11833118 170.95705057 110.9138633 177 121 C177.37898438 121.63099609 177.75796875 122.26199219 178.1484375 122.91210938 C190.82353456 144.37876812 198.56003231 168.92858031 203.75 193.1875 C203.94891846 194.11248291 204.14783691 195.03746582 204.3527832 195.99047852 C207.63957729 212.17628258 208.37533967 228.08926513 208.3125 244.5625 C208.31034485 245.57879486 208.3081897 246.59508972 208.30596924 247.6421814 C208.25503098 262.60993108 207.97101998 277.27836911 205 292 C204.70198486 293.4857251 204.70198486 293.4857251 204.39794922 295.00146484 C196.46763018 333.1442203 181.17771274 368.33590088 157 399 C156.33895264 399.83934082 155.67790527 400.67868164 154.99682617 401.54345703 C149.37482786 408.54603061 143.3597204 415.04034607 137 421.375 C136.50032715 421.87446136 136.0006543 422.37392273 135.48583984 422.88851929 C126.90383439 431.43456185 117.97042495 439.10937878 108 446 C107.36690918 446.44585449 106.73381836 446.89170898 106.08154297 447.35107422 C48.96998439 487.44817825 -25.27634059 502.99374616 -94 491 C-100.17672725 489.77399089 -106.33078849 488.45442405 -112.45361328 486.98193359 C-125.15195477 483.99685465 -133.26323092 484.37018352 -145.22366333 489.92935181 C-147.16664111 490.8318418 -149.12010797 491.70701954 -151.07788086 492.5769043 C-157.43970227 495.41491151 -163.75377094 498.35015454 -170.05859375 501.3125 C-171.15864746 501.81934326 -172.25870117 502.32618652 -173.39208984 502.84838867 C-175.43556654 503.79207647 -177.46947361 504.75691253 -179.49072266 505.74731445 C-187.14607675 509.27867228 -195.30366401 510.78837184 -203.54443359 508.20117188 C-209.55663854 505.55364877 -212.83871964 501.20308513 -215.35354614 495.18865967 C-216.69105439 490.660339 -216.52118468 485.94594472 -216.58984375 481.2578125 C-216.65280596 478.95181775 -216.71596303 476.64582832 -216.77929688 474.33984375 C-216.86151942 470.7303966 -216.93758028 467.12091635 -217.00854492 463.51123047 C-217.08238369 460.00950459 -217.1789353 456.50892146 -217.27734375 453.0078125 C-217.291035 451.93878693 -217.30472626 450.86976135 -217.3188324 449.76834106 C-217.55397745 441.80555498 -219.12603256 435.56289702 -224.18359375 429.29296875 C-224.92738281 428.59816406 -225.67117187 427.90335937 -226.4375 427.1875 C-227.22769531 426.43984375 -228.01789063 425.6921875 -228.83203125 424.921875 C-230.386702 423.54368039 -231.99134507 422.22108602 -233.625 420.9375 C-236.48798613 418.60190605 -238.7501467 415.97338529 -241.140625 413.1640625 C-242.31126178 411.80159868 -243.50636282 410.45942347 -244.734375 409.1484375 C-273.35589162 378.44757993 -291.51818668 337.75734507 -300 297 C-300.21172852 295.99984863 -300.42345703 294.99969727 -300.64160156 293.96923828 C-303.90775302 277.75494439 -304.38826952 261.66911553 -304.4375 245.1875 C-304.44376404 244.20901093 -304.45002808 243.23052185 -304.45648193 242.22238159 C-304.53329854 223.24529734 -302.75793217 204.48429349 -298.3125 186 C-298.05758789 184.92588867 -297.80267578 183.85177734 -297.54003906 182.74511719 C-288.17768187 144.68047978 -269.9324371 110.29622231 -244 81 C-243.21753906 80.10667969 -242.43507812 79.21335937 -241.62890625 78.29296875 C-233.39059025 68.9980923 -224.75458614 60.69412543 -215 53 C-213.55367187 51.82824219 -213.55367187 51.82824219 -212.078125 50.6328125 C-178.27452403 23.77868279 -138.17087728 7.90299083 -96 0 C-95.14744629 -0.16661133 -94.29489258 -0.33322266 -93.41650391 -0.50488281 C-63.79083591 -6.04571443 -29.57684506 -5.57147818 0 0 Z " fill="#9F4ED9" transform="translate(304,3)"/>
<path d="M0 0 C4.33976986 2.25334204 7.09688482 4.45366929 9 9 C9.96028387 15.98873263 7.06741139 19.96502296 3.375 25.5625 C2.78960449 26.47797607 2.20420898 27.39345215 1.60107422 28.33666992 C0.36498587 30.26709202 -0.87783549 32.19321746 -2.12695312 34.11523438 C-4.49662764 37.76487906 -6.82860121 41.43774983 -9.16015625 45.11181641 C-10.89930159 47.85077223 -12.6448612 50.58557157 -14.390625 53.3203125 C-18.81427093 60.26519488 -23.17009279 67.25209006 -27.52807617 74.23828125 C-32.83712439 82.74714269 -38.1847944 91.23098311 -43.54833984 99.70556641 C-45.53240673 102.8414999 -47.51390739 105.9790501 -49.49487305 109.11694336 C-50.49162333 110.69509089 -51.48917131 112.27273491 -52.48754883 113.84985352 C-55.07965042 117.94647055 -57.65633736 122.0517516 -60.2109375 126.171875 C-60.74074219 127.02201172 -61.27054688 127.87214844 -61.81640625 128.74804688 C-62.8211778 130.36096963 -63.82152463 131.97666136 -64.81640625 133.59570312 C-71.46226346 144.23465942 -78.31889479 151.50941559 -90.55078125 155.26953125 C-101.01021946 157.48461046 -110.46865581 156.93613373 -120 152 C-123.47379342 149.73430246 -126.70055709 147.21455433 -129.9375 144.625 C-131.78927938 143.17829736 -133.64216638 141.73301149 -135.49609375 140.2890625 C-136.41890137 139.5662207 -137.34170898 138.84337891 -138.29248047 138.09863281 C-142.30545541 134.98812491 -146.39743777 131.99076613 -150.5 129 C-155.57215883 125.29614448 -160.60443185 121.55149978 -165.57421875 117.7109375 C-166.51007813 116.9890625 -167.4459375 116.2671875 -168.41015625 115.5234375 C-170.21031572 114.13090908 -172.00617936 112.73280242 -173.796875 111.328125 C-183.63094521 103.61837486 -183.63094521 103.61837486 -195.58422852 101.52587891 C-198.33067366 102.06489826 -199.86550808 102.96986862 -202.15625 104.5625 C-202.93991943 105.10696777 -203.72358887 105.65143555 -204.53100586 106.21240234 C-208.7647872 109.27773874 -212.92332776 112.43342349 -217.0625 115.625 C-218.92800834 117.05517949 -220.79389688 118.48486318 -222.66015625 119.9140625 C-223.57039551 120.61176758 -224.48063477 121.30947266 -225.41845703 122.02832031 C-228.92827163 124.7089769 -232.46103438 127.35801778 -236 130 C-241.21379641 133.89651451 -246.40399249 137.82245516 -251.57666016 141.7734375 C-253.3549276 143.12979272 -255.13584713 144.48267811 -256.91943359 145.83203125 C-261.46747067 149.27638484 -265.96549481 152.76386735 -270.3984375 156.35546875 C-271.2759668 157.05115967 -272.15349609 157.74685059 -273.05761719 158.46362305 C-274.71858983 159.78106055 -276.36383963 161.11867519 -277.98925781 162.47973633 C-283.18797319 166.55206338 -286.95505844 167.69636297 -293.56323242 167.50927734 C-297.2215496 166.74469968 -298.93935883 165.2054384 -301.04077148 162.1706543 C-302.82942081 158.12308974 -302.73754586 154.31941471 -302 150 C-300.33702856 146.21845838 -298.10610506 142.94529624 -295.75 139.5625 C-294.45126223 137.61365478 -293.15309431 135.6644297 -291.85546875 133.71484375 C-291.20239746 132.75046387 -290.54932617 131.78608398 -289.87646484 130.79248047 C-287.18646983 126.7893367 -284.62117093 122.71281486 -282.0625 118.625 C-281.08483968 117.07539194 -280.10697059 115.52591558 -279.12890625 113.9765625 C-274.92601896 107.30003759 -270.75124577 100.60592978 -266.57324219 93.91381836 C-261.22812537 85.35574114 -255.84774864 76.820436 -250.45166016 68.29443359 C-248.46765326 65.15859491 -246.48619222 62.0211526 -244.50537109 58.88330078 C-243.50797865 57.30423087 -242.50961809 55.72577199 -241.51025391 54.14794922 C-238.9264584 50.06617859 -236.36155294 45.9741199 -233.82421875 41.86328125 C-233.29892578 41.01765625 -232.77363281 40.17203125 -232.23242188 39.30078125 C-231.2395131 37.70158304 -230.25205934 36.09897793 -229.27148438 34.4921875 C-224.9464055 27.55010038 -220.19662919 20.70899788 -212.9375 16.625 C-212.14214844 16.16351563 -211.34679687 15.70203125 -210.52734375 15.2265625 C-201.79620328 10.98919294 -191.50865364 10.55842817 -182.0546875 12.65234375 C-179.55389144 13.58913713 -177.32123687 14.68093536 -175 16 C-173.80503906 16.65935547 -173.80503906 16.65935547 -172.5859375 17.33203125 C-165.69506901 21.44365218 -159.468796 26.43865196 -153.17553711 31.39208984 C-145.40243231 37.50634433 -137.44949016 43.35789667 -129.46582031 49.19287109 C-126.85438696 51.10671561 -124.25059971 53.03060244 -121.6484375 54.95703125 C-120.77630615 55.60220703 -119.9041748 56.24738281 -119.00561523 56.91210938 C-117.32473573 58.15595062 -115.64453276 59.40070676 -113.96508789 60.64648438 C-112.83574829 61.48083008 -112.83574829 61.48083008 -111.68359375 62.33203125 C-111.01900146 62.82421143 -110.35440918 63.3163916 -109.66967773 63.82348633 C-106.96778711 65.72733352 -105.14624777 66.20421828 -101.875 66.3125 C-101.15054688 66.34988281 -100.42609375 66.38726562 -99.6796875 66.42578125 C-92.79739934 65.33223984 -87.38349061 61.00509126 -82.1875 56.625 C-76.48170725 51.93739801 -70.65611333 47.4727264 -64.6875 43.125 C-58.39915045 38.53482083 -52.19032213 33.86498515 -46.0625 29.0625 C-39.59154878 23.99481852 -33.07251898 18.99788101 -26.5 14.0625 C-25.29935913 13.15866577 -25.29935913 13.15866577 -24.07446289 12.23657227 C-21.72569609 10.47785736 -19.36669915 8.73450199 -17 7 C-16.1140918 6.349104 -15.22818359 5.69820801 -14.31542969 5.02758789 C-12.99140137 4.07420532 -12.99140137 4.07420532 -11.640625 3.1015625 C-10.44228027 2.2345874 -10.44228027 2.2345874 -9.21972656 1.35009766 C-5.9279897 -0.65202562 -3.73780407 -0.79068932 0 0 Z " fill="#FEFEFE" transform="translate(403,172)"/>
</svg>
