<?xml version="1.0" encoding="UTF-8"?>
<svg version="1.1" xmlns="http://www.w3.org/2000/svg" width="512" height="512">
<path d="M0 0 C1.01790619 0.00215515 2.03581238 0.0043103 3.08456421 0.00653076 C17.69363523 0.05620146 32.02575853 0.30709809 46.375 3.3125 C47.34985352 3.51117676 48.32470703 3.70985352 49.32910156 3.91455078 C97.7109774 14.03517194 141.69928269 35.9516877 177.375 70.3125 C178.3640332 71.26068604 178.3640332 71.26068604 179.37304688 72.22802734 C188.86130305 81.37247479 197.6012044 90.66984009 205.375 101.3125 C206.23306152 102.46355017 207.09113451 103.61459177 207.94921875 104.765625 C213.98736829 112.95680614 219.34595521 121.47054105 224.375 130.3125 C224.73948242 130.94430176 225.10396484 131.57610352 225.47949219 132.22705078 C247.08534998 169.97532572 256.85198095 212.74189997 256.6875 255.9375 C256.68534485 256.95540619 256.6831897 257.97331238 256.68096924 259.02206421 C256.63129854 273.63113523 256.38040191 287.96325853 253.375 302.3125 C253.07698486 303.77478027 253.07698486 303.77478027 252.77294922 305.26660156 C242.65232806 353.6484774 220.7358123 397.63678269 186.375 433.3125 C185.74287598 433.97185547 185.11075195 434.63121094 184.45947266 435.31054688 C175.31502521 444.79880305 166.01765991 453.5387044 155.375 461.3125 C154.22394983 462.17056152 153.07290823 463.02863451 151.921875 463.88671875 C143.73224019 469.92427396 135.22961724 475.30707302 126.375 480.3125 C125.66778809 480.7146875 124.96057617 481.116875 124.23193359 481.53125 C101.09654164 494.5566741 75.92537591 503.30551461 49.9375 508.625 C49.21860596 508.77235596 48.49971191 508.91971191 47.7590332 509.0715332 C33.08339502 511.86090125 18.55831162 512.66142619 3.64770508 512.62817383 C0.70811513 512.6250221 -2.2304558 512.64854926 -5.16992188 512.67382812 C-18.54306192 512.71848737 -31.43916711 511.51301542 -44.625 509.3125 C-46.33055054 509.03031616 -46.33055054 509.03031616 -48.07055664 508.74243164 C-91.33802759 500.97044532 -132.38793216 480.98345309 -165.625 452.3125 C-166.37007813 451.67828125 -167.11515625 451.0440625 -167.8828125 450.390625 C-181.38779833 438.57948485 -194.05918743 425.82889772 -204.625 411.3125 C-205.48149066 410.16255169 -206.33826433 409.01281411 -207.1953125 407.86328125 C-213.23534209 399.67315742 -218.61867614 391.16870382 -223.625 382.3125 C-224.0271875 381.60528809 -224.429375 380.89807617 -224.84375 380.16943359 C-237.8691741 357.03404164 -246.61801461 331.86287591 -251.9375 305.875 C-252.08485596 305.15610596 -252.23221191 304.43721191 -252.3840332 303.6965332 C-255.35789088 288.05024391 -255.99800362 272.57681954 -255.9375 256.6875 C-255.93534485 255.66959381 -255.9331897 254.65168762 -255.93096924 253.60293579 C-255.88129854 238.99386477 -255.63040191 224.66174147 -252.625 210.3125 C-252.42632324 209.33764648 -252.22764648 208.36279297 -252.02294922 207.35839844 C-241.90232806 158.9765226 -219.9858123 114.98821731 -185.625 79.3125 C-184.99287598 78.65314453 -184.36075195 77.99378906 -183.70947266 77.31445312 C-174.56502521 67.82619695 -165.26765991 59.0862956 -154.625 51.3125 C-153.47394983 50.45443848 -152.32290823 49.59636549 -151.171875 48.73828125 C-142.98224019 42.70072604 -134.47961724 37.31792698 -125.625 32.3125 C-124.91778809 31.9103125 -124.21057617 31.508125 -123.48193359 31.09375 C-100.34654164 18.0683259 -75.17537591 9.31948539 -49.1875 4 C-48.46860596 3.85264404 -47.74971191 3.70528809 -47.0090332 3.5534668 C-31.36274391 0.57960912 -15.88931954 -0.06050362 0 0 Z " fill="#A67793" transform="translate(255.625,-0.3125)"/>
<path d="M0 0 C16.83 0 33.66 0 51 0 C51.99 6.6 52.98 13.2 54 20 C56.96622471 32.75476625 63.09234371 44.38645397 72 54 C72.64195312 54.69609375 73.28390625 55.3921875 73.9453125 56.109375 C86.77035633 68.6905967 103.83991008 72.35998617 121 75 C121 91.83 121 108.66 121 126 C102.26583361 124.8291146 102.26583361 124.8291146 94.5625 122.875 C93.68416504 122.65763184 92.80583008 122.44026367 91.90087891 122.21630859 C76.60296008 118.24874787 63.34679457 111.93039435 51 102 C50.99641747 102.87462639 50.99641747 102.87462639 50.99276257 103.766922 C50.93334511 118.02625008 50.85762734 132.28542492 50.76428509 146.54457092 C50.71952695 153.44050558 50.68006773 160.33639089 50.65356445 167.23242188 C50.62793129 173.89802601 50.58689475 180.56337869 50.53681374 187.22885132 C50.52023788 189.76106998 50.50866624 192.29332692 50.50238609 194.82559204 C50.41724428 226.02463495 44.71284016 253.20087691 22.58984375 276.54296875 C2.87056162 295.17207919 -21.91464866 300.89410571 -48.2890625 300.27734375 C-73.08800652 299.29726085 -94.91450776 287.5324964 -112 270 C-114.88029569 266.79859026 -117.5023264 263.5068916 -120 260 C-120.77923828 258.92105469 -120.77923828 258.92105469 -121.57421875 257.8203125 C-125.13007912 252.42585766 -127.47424903 246.64104732 -129.75 240.625 C-130.04398682 239.85873291 -130.33797363 239.09246582 -130.64086914 238.30297852 C-134.56378727 227.48344541 -135.3271226 216.74592597 -135.25 205.3125 C-135.25773437 204.15427734 -135.26546875 202.99605469 -135.2734375 201.80273438 C-135.25851573 195.23342675 -134.70222221 189.33632426 -133 183 C-132.81179687 182.0409375 -132.62359375 181.081875 -132.4296875 180.09375 C-127.83947113 158.62963966 -113.9729527 137.53139118 -95.7487793 125.29101562 C-78.64425183 114.27993284 -62.84564053 109.80093172 -42.625 109.875 C-41.54605469 109.87113281 -40.46710938 109.86726563 -39.35546875 109.86328125 C-38.32292969 109.86457031 -37.29039062 109.86585938 -36.2265625 109.8671875 C-35.29408691 109.86831543 -34.36161133 109.86944336 -33.40087891 109.87060547 C-31 110 -31 110 -28 111 C-28 129.15 -28 147.3 -28 166 C-33.61 166 -39.22 166 -45 166 C-52.93358156 167.44940432 -59.31511957 169.49609408 -66 174 C-66.62648438 174.41894531 -67.25296875 174.83789062 -67.8984375 175.26953125 C-75.12944495 180.74804563 -79.02305966 189.32141328 -81 198 C-81.28975829 201.13085401 -81.32505067 204.23231111 -81.3125 207.375 C-81.32861328 208.17421875 -81.34472656 208.9734375 -81.36132812 209.796875 C-81.36610352 215.69925889 -80.17987649 220.53355102 -78 226 C-77.67 226.84691406 -77.34 227.69382812 -77 228.56640625 C-72.68443506 237.18067846 -64.97944993 242.15759175 -56.125 245.5 C-43.54448678 249.19246232 -31.40745137 247.04394792 -20 241 C-11.56977426 236.01707846 -5.84552425 228.34783243 -2.5078125 219.1796875 C-1.03857396 212.87326359 -0.84975739 206.54464088 -0.84178162 200.10351562 C-0.83684364 199.24321778 -0.83190566 198.38291994 -0.82681805 197.49655247 C-0.81154179 194.63312013 -0.80310939 191.76971004 -0.79467773 188.90625 C-0.78509144 186.8459809 -0.77508092 184.78571375 -0.76467896 182.72544861 C-0.73770528 177.14553421 -0.71665501 171.56561142 -0.69667697 165.98566818 C-0.6747708 160.14936555 -0.64740481 154.31308856 -0.62062073 148.47680664 C-0.57075637 137.43084691 -0.52579437 126.3848729 -0.48259836 115.33888531 C-0.43317245 102.76092939 -0.37827421 90.18299921 -0.32291877 77.60506821 C-0.2091948 51.736735 -0.10305731 25.86837806 0 0 Z " fill="#FEFEFE" transform="translate(263,106)"/>
</svg>
