<?xml version="1.0" encoding="UTF-8"?>
<svg version="1.1" xmlns="http://www.w3.org/2000/svg" width="512" height="512">
<path d="M0 0 C1.45108658 0.00273422 1.45108658 0.00273422 2.93148804 0.00552368 C17.26440977 0.05095174 31.21023917 0.55983928 45.3125 3.3125 C46.65803955 3.55395752 46.65803955 3.55395752 48.03076172 3.80029297 C107.84088904 14.62287989 165.35495829 48.68064457 202.3125 97.3125 C202.72918945 97.85277832 203.14587891 98.39305664 203.57519531 98.94970703 C211.2584873 108.9447116 218.00092968 119.40459036 224.3125 130.3125 C224.70679199 130.98974121 225.10108398 131.66698242 225.50732422 132.36474609 C238.68961173 155.2833756 247.29510918 180.85822563 252.625 206.6875 C252.77243652 207.39817627 252.91987305 208.10885254 253.07177734 208.84106445 C256.05713787 224.48358366 256.6873098 240.11919606 256.625 256 C256.62226578 257.45108658 256.62226578 257.45108658 256.61947632 258.93148804 C256.57404826 273.26440977 256.06516072 287.21023917 253.3125 301.3125 C253.15152832 302.20952637 252.99055664 303.10655273 252.82470703 304.03076172 C242.00212011 363.84088904 207.94435543 421.35495829 159.3125 458.3125 C158.77222168 458.72918945 158.23194336 459.14587891 157.67529297 459.57519531 C147.6802884 467.2584873 137.22040964 474.00092968 126.3125 480.3125 C125.63525879 480.70679199 124.95801758 481.10108398 124.26025391 481.50732422 C101.3416244 494.68961173 75.76677437 503.29510918 49.9375 508.625 C49.22682373 508.77243652 48.51614746 508.91987305 47.78393555 509.07177734 C32.14141634 512.05713787 16.50580394 512.6873098 0.625 512.625 C-0.34239105 512.62317719 -1.3097821 512.62135437 -2.30648804 512.61947632 C-16.63940977 512.57404826 -30.58523917 512.06516072 -44.6875 509.3125 C-45.58452637 509.15152832 -46.48155273 508.99055664 -47.40576172 508.82470703 C-107.21588904 498.00212011 -164.72995829 463.94435543 -201.6875 415.3125 C-202.10418945 414.77222168 -202.52087891 414.23194336 -202.95019531 413.67529297 C-210.6334873 403.6802884 -217.37592968 393.22040964 -223.6875 382.3125 C-224.08179199 381.63525879 -224.47608398 380.95801758 -224.88232422 380.26025391 C-238.06461173 357.3416244 -246.67010918 331.76677437 -252 305.9375 C-252.14743652 305.22682373 -252.29487305 304.51614746 -252.44677734 303.78393555 C-255.43213787 288.14141634 -256.0623098 272.50580394 -256 256.625 C-255.99817719 255.65760895 -255.99635437 254.6902179 -255.99447632 253.69351196 C-255.94904826 239.36059023 -255.44016072 225.41476083 -252.6875 211.3125 C-252.44604248 209.96696045 -252.44604248 209.96696045 -252.19970703 208.59423828 C-241.37712011 148.78411096 -207.31935543 91.27004171 -158.6875 54.3125 C-158.14722168 53.89581055 -157.60694336 53.47912109 -157.05029297 53.04980469 C-147.0552884 45.3665127 -136.59540964 38.62407032 -125.6875 32.3125 C-125.01025879 31.91820801 -124.33301758 31.52391602 -123.63525391 31.11767578 C-100.7166244 17.93538827 -75.14177437 9.32989082 -49.3125 4 C-48.60182373 3.85256348 -47.89114746 3.70512695 -47.15893555 3.55322266 C-31.51641634 0.56786213 -15.88080394 -0.0623098 0 0 Z " fill="#720E9E" transform="translate(255.6875,-0.3125)"/>
<path d="M0 0 C42.57 0 85.14 0 129 0 C129 5.28 129 10.56 129 16 C117.78 16 106.56 16 95 16 C101.90510229 26.38001038 108.85000986 36.73188626 115.83129883 47.06079102 C117.43327594 49.43124963 119.03405938 51.8025112 120.63476562 54.17382812 C126.16001027 62.35383209 131.70812713 70.51694791 137.31614685 78.64048767 C141.27774932 84.38275793 145.15316659 90.18014889 149 96 C153.13782214 95.48751744 154.95085585 93.32569018 157.75 90.375 C161.31882249 86.63349255 165.01419907 83.19897394 168.92529297 79.81640625 C172.25800873 76.89861321 175.46831711 73.85431411 178.6875 70.8125 C180.08179605 69.50235382 181.47633097 68.1924618 182.87109375 66.8828125 C184.89362372 64.98175722 186.91534574 63.07988832 188.93408203 61.17480469 C190.70204841 59.50803817 192.47536597 57.84716136 194.25 56.1875 C194.77424561 55.69032471 195.29849121 55.19314941 195.83862305 54.6809082 C198.40085152 52.29338668 200.74475119 50.34085249 204 49 C204 48.34 204 47.68 204 47 C193.44 47 182.88 47 172 47 C168 35 168 35 168 31 C206.94 31 245.88 31 286 31 C279.55470696 43.89058609 279.55470696 43.89058609 274 47 C269.00011025 48.09894749 264.00514408 48.06284874 258.90771484 47.90307617 C247.2985832 47.5563536 239.86214651 51.54020223 230.8125 58.5 C229.996604 59.11439941 229.18070801 59.72879883 228.34008789 60.36181641 C221.31353529 65.68191073 214.4140753 71.15963068 207.578125 76.72167969 C205.38074067 78.50161539 203.15755181 80.24846561 200.9375 82 C195.06830846 86.69925303 189.36509895 91.5902148 183.69433594 96.52587891 C182.12586571 97.89049321 180.55146615 99.24828434 178.9765625 100.60546875 C172.36110302 106.43337353 164.99871667 113.00256666 161 121 C160.90927713 122.7566923 160.88245856 124.5168501 160.88647461 126.27587891 C160.88655014 127.3768692 160.88662567 128.4778595 160.88670349 129.61221313 C160.89186478 130.80494843 160.89702606 131.99768372 160.90234375 133.2265625 C160.9037587 134.44451508 160.90517365 135.66246765 160.90663147 136.91732788 C160.91224361 140.8199099 160.92479821 144.72243523 160.9375 148.625 C160.94251343 151.26562417 160.94707661 153.90624924 160.95117188 156.546875 C160.96221699 163.03126945 160.97896698 169.51563068 161 176 C162.28293945 175.99214478 162.28293945 175.99214478 163.59179688 175.98413086 C193.73878951 175.82381769 193.73878951 175.82381769 208 177 C208 181.95 208 186.9 208 192 C165.43 192 122.86 192 79 192 C79 186.72 79 181.44 79 176 C80.21582764 175.98018066 81.43165527 175.96036133 82.68432617 175.93994141 C87.20390198 175.86375305 91.7231614 175.77505595 96.24243164 175.68261719 C98.19679509 175.64438211 100.15122759 175.60951973 102.10571289 175.578125 C104.91838222 175.53235565 107.73057839 175.47438077 110.54296875 175.4140625 C111.84949654 175.39673569 111.84949654 175.39673569 113.18241882 175.37905884 C119.3367645 175.25287022 119.3367645 175.25287022 125 173 C125.93682719 170.18951844 126.13121749 168.45676565 126.14526367 165.54785156 C126.15164352 164.64971741 126.15802338 163.75158325 126.16459656 162.82623291 C126.16570938 161.8574823 126.1668222 160.88873169 126.16796875 159.890625 C126.17129715 158.89045349 126.17462555 157.89028198 126.17805481 156.85980225 C126.18312 154.74150045 126.18546326 152.62319066 126.18530273 150.50488281 C126.18748207 147.27655722 126.20562248 144.0485773 126.22460938 140.8203125 C126.22754487 138.76041783 126.22952862 136.70052154 126.23046875 134.640625 C126.24124702 133.19964447 126.24124702 133.19964447 126.25224304 131.72955322 C126.22470882 123.57888313 124.99703357 117.85295463 120.1875 111.0625 C119.80150635 110.51746826 119.4155127 109.97243652 119.01782227 109.41088867 C114.13786955 102.63375801 108.78855411 96.21994719 103.47021484 89.78613281 C101.53864865 87.43951404 99.64171912 85.06630847 97.75 82.6875 C90.20188357 73.23662922 82.45645045 63.97710603 74.56152344 54.81591797 C72.9974147 52.99699352 71.43918924 51.17319921 69.8828125 49.34765625 C64.67602852 43.24369066 59.42976529 37.19031708 54.03125 31.25390625 C51.50090507 28.44619659 49.04574408 25.57755904 46.60546875 22.69140625 C45.00255765 20.89984836 45.00255765 20.89984836 42.80078125 19.40234375 C42.20652344 18.93957031 41.61226562 18.47679687 41 18 C41 17.34 41 16.68 41 16 C27.47 16 13.94 16 0 16 C0 10.72 0 5.44 0 0 Z " fill="#FDFCFE" transform="translate(96,160)"/>
<path d="M0 0 C6.6 0.66 13.2 1.32 20 2 C24.58325717 2.39078298 29.16402175 2.77311991 33.75 3.125 C35.40322266 3.25455078 35.40322266 3.25455078 37.08984375 3.38671875 C39.72641996 3.5930595 42.36312547 3.79751408 45 4 C43.4122674 11.38334766 41.5856859 18.69075168 39.6875 26 C39.37554687 27.20333984 39.06359375 28.40667969 38.7421875 29.64648438 C36.92413082 36.60821993 35.0144012 43.5252016 32.91918945 50.40795898 C30.52245436 58.38958514 28.52316847 66.48005478 26.49804688 74.5625 C24.98049215 80.54201447 23.31117512 86.27809069 21 92 C19.18759041 92.02760015 17.37505052 92.04665998 15.5625 92.0625 C14.55316406 92.07410156 13.54382813 92.08570313 12.50390625 92.09765625 C8.32153275 91.98109066 4.15840713 91.46204524 0 91 C0 60.97 0 30.94 0 0 Z " fill="#FDFBFD" transform="translate(355,224)"/>
<path d="M0 0 C3.01125 0.144375 6.0225 0.28875 9.125 0.4375 C10.06230957 0.48060303 10.99961914 0.52370605 11.96533203 0.56811523 C12.72185059 0.60622314 13.47836914 0.64433105 14.2578125 0.68359375 C15.40467529 0.73858032 15.40467529 0.73858032 16.57470703 0.79467773 C19.40161906 1.03400057 22.20157644 1.53359607 25 2 C24.01 8.93 23.02 15.86 22 23 C14.74 22.67 7.48 22.34 0 22 C0 14.74 0 7.48 0 0 Z " fill="#FBF8FC" transform="translate(352,329)"/>
</svg>
